<svg width="251" height="164" viewBox="0 0 251 164" fill="none" xmlns="http://www.w3.org/2000/svg">
<g clip-path="url(#clip0)">
<path d="M159.95 122.946V162.479H50.0704C37.5511 162.479 27.3652 153.612 27.3652 142.713C27.3652 131.813 37.551 122.946 50.0704 122.946H159.95Z" fill="#F2F2F2"/>
<path d="M162.649 162.175C162.648 162.579 162.471 162.965 162.154 163.25C161.838 163.535 161.409 163.696 160.962 163.696H48.113C41.9839 163.696 36.1059 161.501 31.7721 157.595C27.4382 153.688 25.0034 148.389 25.0034 142.865C25.0034 137.34 27.4382 132.041 31.7721 128.135C36.1059 124.228 41.9839 122.033 48.113 122.033H160.962C161.409 122.033 161.838 122.194 162.154 122.479C162.471 122.764 162.649 123.151 162.649 123.554C162.649 123.957 162.471 124.344 162.154 124.629C161.838 124.914 161.409 125.074 160.962 125.074H48.113C42.8787 125.074 37.8588 126.949 34.1576 130.285C30.4564 133.621 28.3771 138.146 28.3771 142.865C28.3771 147.583 30.4564 152.108 34.1576 155.444C37.8588 158.78 42.8787 160.655 48.113 160.655H160.962C161.409 160.655 161.838 160.815 162.154 161.1C162.471 161.385 162.648 161.772 162.649 162.175Z" fill="#34A853"/>
<path d="M159.95 132.069H41.872C41.7826 132.069 41.6968 132.037 41.6335 131.98C41.5702 131.923 41.5347 131.845 41.5347 131.765C41.5347 131.684 41.5702 131.607 41.6335 131.55C41.6968 131.493 41.7826 131.461 41.872 131.461H159.95C160.039 131.461 160.125 131.493 160.189 131.55C160.252 131.607 160.287 131.684 160.287 131.765C160.287 131.845 160.252 131.923 160.189 131.98C160.125 132.037 160.039 132.069 159.95 132.069Z" fill="#CCCCCC"/>
<path d="M159.95 139.367H41.872C41.7826 139.367 41.6968 139.335 41.6335 139.278C41.5702 139.221 41.5347 139.144 41.5347 139.063C41.5347 138.983 41.5702 138.905 41.6335 138.848C41.6968 138.791 41.7826 138.759 41.872 138.759H159.95C160.039 138.759 160.125 138.791 160.189 138.848C160.252 138.905 160.287 138.983 160.287 139.063C160.287 139.144 160.252 139.221 160.189 139.278C160.125 139.335 160.039 139.367 159.95 139.367Z" fill="#CCCCCC"/>
<path d="M159.95 146.666H41.872C41.7826 146.666 41.6968 146.634 41.6335 146.577C41.5702 146.52 41.5347 146.442 41.5347 146.362C41.5347 146.281 41.5702 146.204 41.6335 146.147C41.6968 146.09 41.7826 146.058 41.872 146.058H159.95C160.039 146.058 160.125 146.09 160.189 146.147C160.252 146.204 160.287 146.281 160.287 146.362C160.287 146.442 160.252 146.52 160.189 146.577C160.125 146.634 160.039 146.666 159.95 146.666Z" fill="#CCCCCC"/>
<path d="M159.95 153.964H41.872C41.7826 153.964 41.6968 153.932 41.6335 153.875C41.5702 153.818 41.5347 153.741 41.5347 153.66C41.5347 153.58 41.5702 153.502 41.6335 153.445C41.6968 153.388 41.7826 153.356 41.872 153.356H159.95C160.039 153.356 160.125 153.388 160.189 153.445C160.252 153.502 160.287 153.58 160.287 153.66C160.287 153.741 160.252 153.818 160.189 153.875C160.125 153.932 160.039 153.964 159.95 153.964Z" fill="#CCCCCC"/>
<path d="M244.87 130.387L217.353 161.172L131.792 99.0275C122.044 91.947 120.285 79.2812 127.871 70.7942C135.457 62.3072 149.561 61.1629 159.309 68.2434L244.87 130.387Z" fill="#F2F2F2"/>
<path d="M219.667 162.461C219.386 162.775 218.978 162.976 218.534 163.019C218.089 163.062 217.643 162.944 217.295 162.691L129.422 98.8678C124.649 95.4015 121.6 90.3681 120.944 84.875C120.289 79.3819 122.081 73.879 125.926 69.577C129.772 65.2749 135.356 62.5261 141.449 61.9352C147.543 61.3443 153.648 62.9597 158.421 66.4261L246.294 130.249C246.466 130.375 246.61 130.529 246.716 130.705C246.822 130.88 246.889 131.072 246.913 131.271C246.937 131.47 246.917 131.67 246.855 131.862C246.792 132.054 246.689 132.232 246.55 132.388C246.411 132.544 246.239 132.673 246.044 132.769C245.85 132.864 245.636 132.925 245.416 132.946C245.196 132.967 244.973 132.949 244.76 132.893C244.548 132.836 244.349 132.743 244.177 132.617L156.304 68.7941C154.286 67.3272 151.967 66.233 149.48 65.5742C146.993 64.9153 144.386 64.7045 141.808 64.954C139.23 65.2035 136.733 65.9083 134.457 67.0282C132.182 68.148 130.174 69.661 128.547 71.4806C126.921 73.3003 125.708 75.3909 124.978 77.6332C124.248 79.8755 124.015 82.2254 124.293 84.5488C124.571 86.8722 125.353 89.1235 126.597 91.1741C127.84 93.2246 129.519 95.0344 131.538 96.4998L219.412 160.323C219.76 160.576 219.982 160.944 220.03 161.345C220.078 161.746 219.947 162.147 219.667 162.461Z" fill="#FBBC04"/>
<path d="M238.52 137.492L146.575 70.7107C146.541 70.6857 146.512 70.6547 146.491 70.6197C146.47 70.5846 146.456 70.5461 146.452 70.5064C146.447 70.4667 146.451 70.4266 146.463 70.3882C146.476 70.3499 146.497 70.3142 146.524 70.2831C146.552 70.252 146.586 70.2261 146.625 70.207C146.664 70.1879 146.707 70.1758 146.751 70.1715C146.795 70.1673 146.84 70.1709 146.882 70.1821C146.925 70.1934 146.964 70.212 146.999 70.2371L238.944 137.018C238.978 137.043 239.007 137.074 239.028 137.109C239.05 137.144 239.063 137.183 239.068 137.222C239.073 137.262 239.069 137.302 239.056 137.341C239.044 137.379 239.023 137.415 238.995 137.446C238.967 137.477 238.933 137.503 238.894 137.522C238.855 137.541 238.812 137.553 238.768 137.557C238.724 137.562 238.68 137.558 238.637 137.547C238.595 137.535 238.555 137.517 238.52 137.492V137.492Z" fill="#CCCCCC"/>
<path d="M233.44 143.175L141.495 76.3939C141.426 76.3432 141.382 76.2698 141.372 76.1896C141.363 76.1095 141.389 76.0293 141.445 75.9665C141.501 75.9038 141.582 75.8636 141.671 75.855C141.76 75.8463 141.849 75.8698 141.919 75.9203L233.864 142.701C233.898 142.726 233.927 142.757 233.948 142.792C233.97 142.827 233.983 142.866 233.988 142.905C233.993 142.945 233.989 142.985 233.976 143.024C233.964 143.062 233.943 143.098 233.915 143.129C233.887 143.16 233.853 143.186 233.814 143.205C233.775 143.224 233.732 143.236 233.688 143.241C233.644 143.245 233.6 143.241 233.557 143.23C233.515 143.219 233.475 143.2 233.44 143.175Z" fill="#CCCCCC"/>
<path d="M228.36 148.858L136.415 82.0772C136.346 82.0266 136.301 81.9531 136.291 81.8729C136.282 81.7927 136.308 81.7124 136.364 81.6496C136.42 81.5868 136.502 81.5466 136.591 81.538C136.68 81.5294 136.769 81.553 136.839 81.6036L228.784 148.384C228.818 148.409 228.847 148.44 228.868 148.475C228.889 148.51 228.903 148.549 228.907 148.589C228.912 148.628 228.908 148.669 228.896 148.707C228.883 148.745 228.862 148.781 228.835 148.812C228.807 148.843 228.772 148.869 228.734 148.888C228.695 148.907 228.652 148.919 228.608 148.924C228.564 148.928 228.519 148.924 228.477 148.913C228.434 148.902 228.395 148.883 228.36 148.858V148.858Z" fill="#CCCCCC"/>
<path d="M223.28 154.541L131.335 87.7604C131.301 87.7353 131.272 87.7044 131.251 87.6693C131.23 87.6343 131.216 87.5958 131.211 87.5561C131.207 87.5164 131.211 87.4762 131.223 87.4379C131.236 87.3996 131.256 87.3639 131.284 87.3328C131.312 87.3017 131.346 87.2758 131.385 87.2567C131.424 87.2375 131.467 87.2255 131.511 87.2212C131.555 87.217 131.599 87.2205 131.642 87.2318C131.684 87.243 131.724 87.2617 131.759 87.2868L223.703 154.068C223.738 154.093 223.767 154.124 223.788 154.159C223.809 154.194 223.823 154.232 223.828 154.272C223.832 154.312 223.828 154.352 223.816 154.39C223.803 154.429 223.783 154.464 223.755 154.495C223.727 154.527 223.693 154.552 223.654 154.572C223.615 154.591 223.572 154.603 223.528 154.607C223.484 154.611 223.439 154.608 223.397 154.596C223.354 154.585 223.315 154.566 223.28 154.541Z" fill="#CCCCCC"/>
<path d="M250.663 164H0.337366C0.247891 164 0.16208 163.968 0.0988118 163.911C0.0355435 163.854 0 163.777 0 163.696C0 163.615 0.0355435 163.538 0.0988118 163.481C0.16208 163.424 0.247891 163.392 0.337366 163.392H250.663C250.752 163.392 250.838 163.424 250.901 163.481C250.964 163.538 251 163.615 251 163.696C251 163.777 250.964 163.854 250.901 163.911C250.838 163.968 250.752 164 250.663 164Z" fill="#CCCCCC"/>
<path d="M114.057 118.79L110.2 118.79L108.366 105.38L114.058 105.381L114.057 118.79Z" fill="#FFB8B8"/>
<path d="M107.445 117.797H114.883V122.018H102.762C102.762 121.464 102.883 120.915 103.118 120.403C103.354 119.891 103.699 119.425 104.133 119.033C104.568 118.641 105.085 118.33 105.653 118.118C106.221 117.906 106.83 117.797 107.445 117.797Z" fill="#2F2E41"/>
<path d="M74.6544 118.79L70.7976 118.79L68.9634 105.38L74.6557 105.381L74.6544 118.79Z" fill="#FFB8B8"/>
<path d="M68.0427 117.797H75.4808V122.018H63.3594C63.3594 121.464 63.4805 120.915 63.7159 120.403C63.9512 119.891 64.2962 119.425 64.7311 119.033C65.166 118.641 65.6822 118.33 66.2504 118.118C66.8186 117.906 67.4276 117.797 68.0427 117.797Z" fill="#2F2E41"/>
<path d="M87.5366 19.3208V17.8002C87.5366 15.1991 88.6829 12.7046 90.7233 10.8653C92.7637 9.02608 95.5311 7.9928 98.4167 7.9928H98.4167C101.302 7.9928 104.07 9.02608 106.11 10.8653C108.15 12.7046 109.297 15.1991 109.297 17.8002V19.3208C109.297 21.196 108.47 22.9944 106.999 24.3203C105.528 25.6463 103.533 26.3912 101.453 26.3912H95.3804C94.3503 26.3912 93.3304 26.2083 92.3787 25.853C91.4271 25.4977 90.5624 24.9769 89.834 24.3203C89.1056 23.6638 88.5279 22.8843 88.1337 22.0265C87.7395 21.1687 87.5366 20.2493 87.5366 19.3208Z" fill="#2F2E41"/>
<path d="M98.4164 26.9144C102.993 26.9144 106.702 23.5704 106.702 19.4453C106.702 15.3202 102.993 11.9761 98.4164 11.9761C93.8402 11.9761 90.1304 15.3202 90.1304 19.4453C90.1304 23.5704 93.8402 26.9144 98.4164 26.9144Z" fill="#FFB8B8"/>
<path d="M53.3459 45.1158C53.6822 44.8296 54.084 44.6133 54.523 44.4822C54.962 44.3511 55.4276 44.3084 55.8869 44.357C56.3462 44.4056 56.7881 44.5445 57.1815 44.7637C57.5748 44.9829 57.9101 45.2772 58.1636 45.6259L65.2667 44.4147L67.136 48.1262L57.0784 49.7096C56.4004 50.0547 55.6055 50.1636 54.8443 50.0157C54.0832 49.8678 53.4087 49.4733 52.9486 48.9071C52.4885 48.3408 52.2749 47.6421 52.3481 46.9434C52.4213 46.2446 52.7764 45.5943 53.3459 45.1158V45.1158Z" fill="#FFB8B8"/>
<path d="M91.9565 31.6182L92.0494 31.7451L80.4015 38.6618L60.7472 44.3192C60.4866 44.3946 60.2632 44.5492 60.1148 44.7564C59.9664 44.9637 59.9024 45.2109 59.9334 45.456L60.3622 48.7849C60.3812 48.9323 60.4342 49.0744 60.5177 49.2022C60.6012 49.33 60.7134 49.4407 60.8472 49.5271C60.9809 49.6135 61.1332 49.6738 61.2943 49.7041C61.4554 49.7343 61.6217 49.7339 61.7826 49.7029L80.2803 46.1288C81.1755 45.9568 82.0219 45.6209 82.7671 45.1418L95.8528 36.7494C96.3272 36.4435 96.7058 36.0322 96.9516 35.5554C97.1974 35.0786 97.3022 34.5526 97.2557 34.0285C97.2077 33.5036 97.009 32.9991 96.6791 32.5645C96.3492 32.1299 95.8994 31.7803 95.3741 31.5499C94.8488 31.3195 94.266 31.2163 93.683 31.2506C93.1001 31.2848 92.5371 31.4552 92.0493 31.7451L91.9565 31.6182Z" fill="#4285F4"/>
<path d="M110.269 114.985C109.973 114.985 109.684 114.907 109.436 114.762C109.188 114.616 108.992 114.408 108.873 114.164L91.192 74.7816C91.1508 74.6961 91.0814 74.6242 90.9934 74.5753C90.9054 74.5265 90.8029 74.5031 90.6997 74.5083C90.5965 74.5136 90.4976 74.5472 90.4162 74.6046C90.3348 74.6621 90.2749 74.7406 90.2445 74.8297L75.8193 113.169C75.7584 113.348 75.6577 113.513 75.5233 113.655C75.3889 113.797 75.2237 113.913 75.0379 113.995C74.852 114.078 74.6494 114.125 74.4426 114.134C74.2357 114.143 74.029 114.114 73.8351 114.049L68.9978 112.413C68.7353 112.326 68.5049 112.174 68.3324 111.975C68.1598 111.776 68.0519 111.538 68.0205 111.287C65.8443 94.1985 84.8213 51.0649 85.0133 50.6313L85.0664 50.5112L102.366 53.9606L102.402 53.9959C109.303 60.7829 114.976 103.59 116.043 112.103C116.083 112.41 116.006 112.721 115.823 112.983C115.641 113.245 115.365 113.444 115.041 113.546L110.771 114.907C110.61 114.959 110.44 114.985 110.269 114.985Z" fill="#0D2244"/>
<path d="M95.3638 55.349C91.1725 55.349 86.4997 54.5957 85.0614 51.4866L85.0283 51.4152L85.073 51.349C86.2083 49.6699 87.7089 46.8055 86.9023 46.2678C85.3136 45.209 84.5427 43.467 84.6111 41.0903C84.7597 35.9309 88.6597 31.3502 94.3157 29.6917C95.8945 29.2362 97.5012 28.8634 99.1276 28.5749C100.313 28.3592 101.537 28.3829 102.712 28.6444C103.886 28.9058 104.982 29.3984 105.92 30.0868C106.87 30.7798 107.637 31.6537 108.168 32.646C108.698 33.6382 108.979 34.724 108.988 35.8255C109.048 41.3392 108.106 49.0186 103.283 54.2909C103.057 54.5355 102.742 54.7004 102.394 54.7565C100.074 55.1349 97.7219 55.3331 95.3638 55.349Z" fill="#4285F4"/>
<path d="M93.805 55.1425C94.0331 54.405 94.5749 53.7784 95.3126 53.3989C96.0504 53.0194 96.9244 52.9177 97.7449 53.1159C97.9124 53.1581 98.0758 53.2127 98.2333 53.279L103.627 48.8546L107.378 51.1324L99.6648 57.2848C99.3165 57.8508 98.7682 58.2956 98.1072 58.5483C97.4461 58.8011 96.7103 58.8473 96.0167 58.6796C95.6127 58.5799 95.2347 58.4091 94.9044 58.1769C94.5741 57.9447 94.2981 57.6558 94.0925 57.3269C93.8868 56.998 93.7555 56.6356 93.7061 56.2607C93.6568 55.8857 93.6904 55.5057 93.805 55.1425Z" fill="#FFB8B8"/>
<path d="M102.772 55.1987C102.422 55.1989 102.083 55.0898 101.812 54.89L99.6854 53.3233C99.5081 53.1927 99.3659 53.0276 99.2694 52.8404C99.1729 52.6533 99.1246 52.4489 99.1281 52.2425C99.1317 52.0361 99.1869 51.8331 99.2898 51.6488C99.3927 51.4644 99.5405 51.3034 99.7222 51.1778L108.643 45.0106C108.748 44.9371 108.818 44.829 108.836 44.7098C108.854 44.5905 108.819 44.4697 108.738 44.3735L103.232 37.8121C102.593 37.0523 102.272 36.113 102.327 35.1605C102.381 34.208 102.808 33.3036 103.532 32.6076C104.294 31.8658 105.337 31.4093 106.455 31.3288C107.573 31.2482 108.684 31.5493 109.567 32.1725L109.601 32.2056L115.351 39.6265C115.972 40.0659 116.473 40.6289 116.813 41.2715C117.154 41.9142 117.325 42.6191 117.313 43.3311C117.301 44.0432 117.107 44.7432 116.746 45.3764C116.384 46.0096 115.865 46.5589 115.229 46.9815L103.676 54.9304C103.414 55.1046 103.098 55.1987 102.772 55.1987Z" fill="#4285F4"/>
<path d="M91.0771 17.344V13.6382L98.4167 10.7491L105.415 13.6382V17.344C105.415 17.5053 105.344 17.66 105.218 17.7741C105.091 17.8882 104.919 17.9522 104.74 17.9522H91.7519C91.5729 17.9522 91.4013 17.8882 91.2748 17.7741C91.1482 17.66 91.0771 17.5053 91.0771 17.344Z" fill="#2F2E41"/>
<path d="M98.0795 8.48444C97.0004 5.37084 99.2668 1.80252 102.617 0.57008C105.968 -0.662361 109.976 0.199153 112.804 2.23533C115.631 4.27151 117.385 7.32132 118.314 10.4739C119.244 13.6265 119.42 16.9139 119.592 20.1723C123.708 20.8539 126.509 25.2552 125.083 28.8023C123.657 32.3494 118.378 34.1116 114.733 32.2576C111.088 30.4036 110.032 25.4199 112.663 22.4856C113.908 21.0971 114.603 19.374 114.639 17.589C114.675 15.8041 114.049 14.0594 112.86 12.6313C111.672 11.2033 109.989 10.1734 108.078 9.70487C106.167 9.23634 104.137 9.35593 102.31 10.0447C100.281 10.8095 97.7354 8.82237 98.0795 8.48444Z" fill="#2F2E41"/>
<path d="M51.824 30.7399C46.8953 30.7107 42.0283 29.7499 37.5372 27.9193C37.2699 27.8119 37.043 27.6368 36.8841 27.4152C36.7253 27.1936 36.6414 26.9351 36.6426 26.6713V15.5964C36.643 15.2336 36.8031 14.8857 37.0877 14.6292C37.3724 14.3726 37.7582 14.2283 38.1607 14.2279H65.4873C65.8898 14.2283 66.2757 14.3726 66.5603 14.6292C66.8449 14.8857 67.005 15.2336 67.0055 15.5964V26.6713C67.0067 26.9351 66.9228 27.1936 66.7639 27.4152C66.6051 27.6368 66.3782 27.812 66.1108 27.9194C61.6198 29.7499 56.7527 30.7107 51.824 30.7399Z" fill="#EA4335"/>
<path d="M51.8204 21.7678C51.6178 21.768 51.4172 21.7316 51.2305 21.6609L29.5608 13.4198C29.2814 13.3135 29.0436 13.1342 28.8783 12.905C28.7129 12.6759 28.6275 12.4073 28.6331 12.1339C28.6386 11.8606 28.7349 11.595 28.9095 11.3714C29.084 11.1479 29.3289 10.9765 29.6125 10.8796L51.2824 3.46922C51.6314 3.34931 52.0173 3.35005 52.3658 3.47129L73.7453 10.8816C74.0273 10.9794 74.2705 11.1507 74.4438 11.3738C74.6172 11.5968 74.7127 11.8614 74.7183 12.1337C74.7239 12.4059 74.6392 12.6735 74.4752 12.9022C74.3111 13.1308 74.0751 13.3102 73.7973 13.4173L52.4175 21.6583C52.2287 21.7307 52.0256 21.768 51.8204 21.7678Z" fill="#EA4335"/>
<path d="M39.1731 28.6729C40.291 28.6729 41.1973 27.856 41.1973 26.8483C41.1973 25.8405 40.291 25.0236 39.1731 25.0236C38.0552 25.0236 37.1489 25.8405 37.1489 26.8483C37.1489 27.856 38.0552 28.6729 39.1731 28.6729Z" fill="#3F3D56"/>
<path opacity="0.2" d="M73.8711 12.2475L52.4912 20.4885C52.3245 20.5527 52.1452 20.5861 51.9639 20.5865C51.7827 20.5869 51.6032 20.5543 51.4361 20.4908L29.7665 12.2499C29.4943 12.1489 29.2673 11.969 29.1212 11.7387C29.0257 11.888 28.9665 12.054 28.9475 12.2255C28.9286 12.3971 28.9504 12.5703 29.0114 12.7337C29.0724 12.8971 29.1713 13.047 29.3015 13.1733C29.4317 13.2996 29.5902 13.3995 29.7665 13.4663L51.4361 21.7072C51.6032 21.7707 51.7827 21.8033 51.9639 21.8029C52.1452 21.8025 52.3245 21.7692 52.4912 21.7049L73.8711 13.4639C74.0465 13.3965 74.2041 13.2963 74.3333 13.1699C74.4626 13.0435 74.5607 12.8939 74.6211 12.7308C74.6815 12.5678 74.7029 12.3951 74.6837 12.224C74.6646 12.053 74.6055 11.8876 74.5103 11.7386C74.3652 11.9671 74.1405 12.146 73.8711 12.2475Z" fill="black"/>
<path d="M39.3432 26.8411C39.4327 26.8411 39.5185 26.8091 39.5818 26.7521C39.6451 26.695 39.6806 26.6177 39.6806 26.537V16.3612L50.8073 12.7073C50.8968 12.7085 50.9831 12.6776 51.0473 12.6215C51.1115 12.5653 51.1484 12.4884 51.1497 12.4078C51.151 12.3271 51.1168 12.2493 51.0545 12.1914C50.9921 12.1335 50.9068 12.1003 50.8174 12.0991L39.6906 15.753C39.6011 15.7511 39.5121 15.7657 39.429 15.7957C39.3458 15.8258 39.2704 15.8708 39.2071 15.9279C39.1431 15.9844 39.0924 16.0518 39.0578 16.1262C39.0233 16.2006 39.0056 16.2805 39.0059 16.3612V26.537C39.0059 26.6177 39.0414 26.695 39.1047 26.752C39.1679 26.8091 39.2538 26.8411 39.3432 26.8411Z" fill="#3F3D56"/>
</g>
<defs>
<clipPath id="clip0">
<rect width="251" height="164" fill="white"/>
</clipPath>
</defs>
</svg>
