<svg width="287" height="215" viewBox="0 0 287 215" fill="none" xmlns="http://www.w3.org/2000/svg">
<path d="M238.693 141.662C240.663 141.662 242.26 139.801 242.26 137.507C242.26 135.212 240.663 133.351 238.693 133.351C236.723 133.351 235.126 135.212 235.126 137.507C235.126 139.801 236.723 141.662 238.693 141.662Z" fill="#F2F2F2"/>
<path d="M201.651 206.42C214.714 206.42 225.303 194.084 225.303 178.867C225.303 163.65 214.714 151.315 201.651 151.315C188.589 151.315 178 163.65 178 178.867C178 194.084 188.589 206.42 201.651 206.42Z" fill="#EA4335"/>
<path d="M199.786 181.616C204.242 181.616 207.853 177.409 207.853 172.219C207.853 167.029 204.242 162.822 199.786 162.822C195.331 162.822 191.72 167.029 191.72 172.219C191.72 177.409 195.331 181.616 199.786 181.616Z" fill="white"/>
<path d="M196.548 172.922C198.033 172.922 199.237 171.519 199.237 169.789C199.237 168.059 198.033 166.657 196.548 166.657C195.063 166.657 193.859 168.059 193.859 169.789C193.859 171.519 195.063 172.922 196.548 172.922Z" fill="#3F3D56"/>
<path d="M200.719 160.264C191.061 160.264 184.256 158.219 184.311 148.054C184.366 137.89 192.159 129.58 201.817 129.643C211.475 129.707 219.322 137.954 219.267 148.182C219.267 158.283 210.432 160.264 200.719 160.264Z" fill="#FBBC04"/>
<path d="M238.692 183.47C235.894 194.657 227.827 202.52 219.376 209.168C218.224 210.127 217.017 211.022 215.864 211.917C215.809 211.981 215.755 211.981 215.7 212.045C215.48 212.237 215.206 212.428 214.986 212.62L215.096 212.684C215.054 212.677 215.016 212.655 214.986 212.62C210.102 210.319 205.109 207.826 201.322 203.542C197.426 199.068 195.121 192.036 197.261 186.154C197.521 185.377 197.872 184.646 198.304 183.981C198.47 183.689 198.653 183.411 198.853 183.15C199.712 181.924 200.77 180.909 201.967 180.162C203.164 179.415 204.476 178.95 205.827 178.796C207.179 178.641 208.543 178.8 209.842 179.262C211.14 179.724 212.348 180.48 213.395 181.488C214.873 182.889 215.977 184.751 216.578 186.858C217.181 180.145 212.462 174.52 207.852 170.365C203.243 166.209 198.03 161.67 197.152 154.958C196.945 153.133 197.073 151.278 197.527 149.515C197.981 147.752 198.751 146.121 199.786 144.73C199.841 144.666 199.896 144.538 199.95 144.474C202.409 141.087 205.881 138.916 209.663 138.401C216.687 137.57 223.547 141.917 228.65 147.607C236.882 156.62 241.875 170.748 238.692 183.47Z" fill="#1A73E8"/>
<path d="M225.523 168.831C226.877 171.282 227.913 173.953 228.596 176.757C229.179 179.256 229.438 181.841 229.364 184.429C229.174 189.753 227.895 194.947 225.633 199.579C223.935 203.097 221.85 206.342 219.432 209.232C218.28 210.191 217.072 211.086 215.92 211.981C215.865 212.045 215.81 212.045 215.755 212.109C215.536 212.301 215.261 212.492 215.042 212.684C215.042 212.684 215.316 212.812 215.152 212.748C215.11 212.741 215.071 212.719 215.042 212.684C215.748 206.361 214.448 199.956 211.387 194.67C208.325 189.385 203.712 185.584 198.415 183.981C198.58 183.689 198.763 183.411 198.963 183.15C200.303 183.591 201.607 184.169 202.859 184.876C207.371 187.397 211.066 191.544 213.396 196.703C215.473 201.388 216.368 206.664 215.975 211.917C216.194 211.725 216.359 211.47 216.578 211.278C220.387 207.296 223.532 202.528 225.852 197.214C227.785 192.669 228.746 187.646 228.651 182.575C228.486 177.013 226.566 171.899 223.822 167.488C220.813 162.737 217.27 158.48 213.286 154.831C209.254 151.078 204.851 147.901 200.171 145.369C200.063 145.308 199.98 145.201 199.939 145.07C199.898 144.938 199.902 144.794 199.951 144.666C199.992 144.57 200.048 144.483 200.116 144.411C200.156 144.379 200.204 144.362 200.253 144.362C200.302 144.362 200.35 144.379 200.39 144.411C200.994 144.73 201.542 145.05 202.091 145.369C206.836 148.123 211.276 151.536 215.316 155.534C219.103 159.369 222.779 163.78 225.523 168.831Z" fill="white"/>
<path d="M40.4432 214.538C43.7467 214.538 46.4246 213.364 46.4246 211.917C46.4246 210.469 43.7467 209.296 40.4432 209.296C37.1398 209.296 34.4618 210.469 34.4618 211.917C34.4618 213.364 37.1398 214.538 40.4432 214.538Z" fill="#34A853"/>
<path d="M54.8207 214.155C58.1241 214.155 60.8021 212.981 60.8021 211.534C60.8021 210.086 58.1241 208.913 54.8207 208.913C51.5172 208.913 48.8392 210.086 48.8392 211.534C48.8392 212.981 51.5172 214.155 54.8207 214.155Z" fill="#34A853"/>
<path d="M73.8575 170.247C79.5029 166.456 83.2452 161.697 82.216 159.617C81.1868 157.537 75.7759 158.924 70.1304 162.714C64.485 166.505 60.7428 171.265 61.772 173.345C62.8012 175.425 68.212 174.038 73.8575 170.247Z" fill="#4285F4"/>
<path d="M45.253 202.709C58.3155 202.709 68.9047 190.373 68.9047 175.156C68.9047 159.939 58.3155 147.604 45.253 147.604C32.1905 147.604 21.6013 159.939 21.6013 175.156C21.6013 190.373 32.1905 202.709 45.253 202.709Z" fill="#EA4335"/>
<path d="M41.6505 196.766H34.4618V211.725H41.6505V196.766Z" fill="#34A853"/>
<path d="M56.0279 196.766H48.8392V211.725H56.0279V196.766Z" fill="#34A853"/>
<path d="M45.8211 177.589C50.2762 177.589 53.8878 173.381 53.8878 168.191C53.8878 163.001 50.2762 158.794 45.8211 158.794C41.366 158.794 37.7544 163.001 37.7544 168.191C37.7544 173.381 41.366 177.589 45.8211 177.589Z" fill="white"/>
<path d="M48.6889 170.265C50.1739 170.265 51.3778 168.862 51.3778 167.132C51.3778 165.402 50.1739 164 48.6889 164C47.2039 164 46 165.402 46 167.132C46 168.862 47.2039 170.265 48.6889 170.265Z" fill="#3F3D56"/>
<path d="M22.3343 149.525C20.4136 139.552 26.5048 129.516 35.9434 127.086C45.382 124.657 54.5462 130.73 56.4668 140.639C58.3875 150.547 52.1317 154.255 42.6931 156.748C33.2545 159.241 24.2 159.497 22.3343 149.525Z" fill="#FBBC04"/>
<path d="M29.2818 168.271C30.1649 166.102 26.1082 161.706 20.221 158.454C14.3338 155.201 8.84545 154.323 7.96236 156.492C7.07928 158.661 11.1359 163.056 17.0231 166.309C22.9103 169.561 28.3987 170.44 29.2818 168.271Z" fill="#4285F4"/>
<path d="M33.6387 185.068C33.6387 187.753 39.6201 193.059 46.2052 193.059C52.7902 193.059 58.9911 185.452 58.9911 182.767C58.9911 180.082 52.7902 183.278 46.2052 183.278C39.6201 183.278 33.6387 182.383 33.6387 185.068Z" fill="white"/>
<path d="M127.64 214.538C130.944 214.538 133.622 213.364 133.622 211.917C133.622 210.469 130.944 209.296 127.64 209.296C124.337 209.296 121.659 210.469 121.659 211.917C121.659 213.364 124.337 214.538 127.64 214.538Z" fill="#FBBC04"/>
<path d="M113.263 214.155C116.566 214.155 119.244 212.981 119.244 211.534C119.244 210.086 116.566 208.913 113.263 208.913C109.959 208.913 107.281 210.086 107.281 211.534C107.281 212.981 109.959 214.155 113.263 214.155Z" fill="#FBBC04"/>
<path d="M106.277 173.324C107.307 171.244 103.564 166.484 97.919 162.693C92.2736 158.903 86.8627 157.516 85.8335 159.596C84.8043 161.676 88.5465 166.435 94.192 170.226C99.8374 174.017 105.248 175.404 106.277 173.324Z" fill="#FBBC04"/>
<path d="M122.866 202.712C135.929 202.712 146.518 190.376 146.518 175.159C146.518 159.943 135.929 147.607 122.866 147.607C109.804 147.607 99.2151 159.943 99.2151 175.159C99.2151 190.376 109.804 202.712 122.866 202.712Z" fill="#4285F4"/>
<path d="M133.622 196.766H126.433V211.725H133.622V196.766Z" fill="#FBBC04"/>
<path d="M119.299 196.766H112.111V211.725H119.299V196.766Z" fill="#FBBC04"/>
<path d="M117.324 177.589C121.779 177.589 125.391 173.381 125.391 168.191C125.391 163.001 121.779 158.794 117.324 158.794C112.869 158.794 109.257 163.001 109.257 168.191C109.257 173.381 112.869 177.589 117.324 177.589Z" fill="white"/>
<path d="M113.494 170.033C114.979 170.033 116.183 168.63 116.183 166.9C116.183 165.17 114.979 163.768 113.494 163.768C112.009 163.768 110.805 165.17 110.805 166.9C110.805 168.63 112.009 170.033 113.494 170.033Z" fill="#3F3D56"/>
<path d="M125.39 156.748C115.952 154.319 109.696 150.611 111.617 140.639C113.537 130.666 122.702 124.593 132.14 127.086C141.579 129.58 147.67 139.616 145.749 149.525C143.829 159.433 134.829 159.178 125.39 156.748Z" fill="#34A853"/>
<path d="M147.575 196.112C149.567 195.495 149.826 189.048 148.153 181.712C146.48 174.375 143.51 168.928 141.518 169.544C139.526 170.16 139.267 176.607 140.94 183.944C142.613 191.28 145.583 196.728 147.575 196.112Z" fill="#EA4335"/>
<path d="M117.488 183.342C113.153 183.342 109.092 180.145 109.092 182.83C109.092 185.515 113.153 193.123 117.488 193.123C121.824 193.123 125.72 187.817 125.72 185.132C125.72 182.447 121.824 183.342 117.488 183.342Z" fill="white"/>
<path d="M86.9773 129.516H84.892C83.0159 129.51 81.218 128.64 79.8915 127.094C78.5649 125.549 77.8176 123.454 77.8131 121.269V119.223C77.8131 114.109 78.6362 109.89 80.2825 106.566C82.2635 102.715 84.5608 99.0965 87.1419 95.7622C88.859 93.7305 90.4198 91.5273 91.8063 89.1778C92.8083 87.3468 93.3237 85.2118 93.2879 83.0408C93.2879 77.9267 90.4344 75.4336 84.5627 75.4336C81.3138 75.5069 78.0864 76.0655 74.9595 77.0956C72.9003 77.7768 70.6932 77.4798 68.8214 76.2697C66.9497 75.0597 65.5656 73.0351 64.9722 70.6391C64.7557 69.81 64.6448 68.9485 64.6429 68.082V63.9267C64.6419 62.1385 65.0806 60.3874 65.9073 58.8806C66.7339 57.3738 67.9138 56.1744 69.3074 55.4245C74.8219 52.6884 80.7643 51.317 86.7578 51.3971C93.0136 51.3971 98.7206 52.6117 103.605 55.0409C108.488 57.4702 112.385 60.9222 115.128 65.2053C117.859 69.4898 119.305 74.7007 119.244 80.0363C119.244 85.7897 117.872 90.776 115.238 94.8673C112.604 98.9586 108.873 103.433 104.044 108.164C101.503 110.601 99.1021 113.227 96.8549 116.027C95.4173 117.855 94.3982 120.076 93.8916 122.484C93.6565 124.428 92.8284 126.209 91.5587 127.5C90.289 128.791 88.6627 129.507 86.9773 129.516Z" fill="#EA4335"/>
<path d="M85.7709 168.319H85.4965C82.0159 168.31 78.6806 166.693 76.2222 163.823C73.7638 160.952 72.3832 157.063 72.3832 153.009C72.3832 148.954 73.7638 145.065 76.2222 142.195C78.6806 139.324 82.0159 137.707 85.4965 137.698H85.7709C87.4992 137.694 89.2114 138.086 90.8094 138.854C92.4073 139.621 93.8596 140.748 95.0832 142.17C96.3067 143.593 97.2774 145.282 97.9397 147.142C98.6021 149.002 98.943 150.995 98.943 153.009C98.943 155.022 98.6021 157.016 97.9397 158.876C97.2774 160.736 96.3067 162.425 95.0832 163.847C93.8596 165.269 92.4073 166.396 90.8094 167.164C89.2114 167.931 87.4992 168.324 85.7709 168.319Z" fill="#EA4335"/>
<path d="M196.784 196.127C203.298 195.978 208.547 193.912 208.507 191.512C208.466 189.112 203.152 187.286 196.638 187.435C190.123 187.583 184.874 189.649 184.915 192.05C184.955 194.45 190.269 196.275 196.784 196.127Z" fill="#EA4335"/>
</svg>