<svg width="288" height="119" viewBox="0 0 288 119" fill="none" xmlns="http://www.w3.org/2000/svg">
<g clip-path="url(#clip0)">
<path d="M243.02 114.733H101.106C101.002 114.733 100.902 114.693 100.828 114.622C100.754 114.55 100.713 114.453 100.713 114.352V24.4205C100.713 24.3196 100.755 24.223 100.828 24.1517C100.902 24.0805 101.002 24.0405 101.106 24.0405C101.21 24.0405 101.31 24.0805 101.384 24.1517C101.457 24.223 101.499 24.3196 101.499 24.4205V113.971H243.02C243.124 113.971 243.224 114.012 243.297 114.083C243.371 114.155 243.412 114.251 243.412 114.352C243.412 114.453 243.371 114.55 243.297 114.621C243.224 114.693 243.124 114.733 243.02 114.733Z" fill="#3F3D56"/>
<path d="M243.02 96.8232H101.106C101.002 96.8229 100.902 96.7826 100.829 96.7112C100.755 96.6397 100.714 96.543 100.714 96.4421C100.714 96.3412 100.755 96.2445 100.829 96.173C100.902 96.1016 101.002 96.0613 101.106 96.061H243.02C243.124 96.0613 243.224 96.1016 243.297 96.173C243.37 96.2445 243.412 96.3412 243.412 96.4421C243.412 96.543 243.37 96.6397 243.297 96.7112C243.224 96.7826 243.124 96.8229 243.02 96.8232Z" fill="#3F3D56"/>
<path d="M243.216 82.3427H101.302C101.198 82.3427 101.098 82.3025 101.024 82.2311C100.951 82.1596 100.909 82.0627 100.909 81.9616C100.909 81.8606 100.951 81.7636 101.024 81.6922C101.098 81.6207 101.198 81.5806 101.302 81.5806H243.216C243.32 81.5809 243.42 81.6211 243.494 81.6926C243.567 81.764 243.608 81.8607 243.608 81.9616C243.608 82.0625 243.567 82.1592 243.494 82.2307C243.42 82.3021 243.32 82.3424 243.216 82.3427Z" fill="#3F3D56"/>
<path d="M243.217 67.8621H101.303C101.199 67.8618 101.099 67.8215 101.025 67.7501C100.952 67.6787 100.911 67.5819 100.911 67.481C100.911 67.3802 100.952 67.2834 101.025 67.212C101.099 67.1406 101.199 67.1003 101.303 67.1H243.217C243.321 67.1003 243.42 67.1406 243.494 67.212C243.567 67.2834 243.609 67.3802 243.609 67.481C243.609 67.5819 243.567 67.6787 243.494 67.7501C243.42 67.8215 243.321 67.8618 243.217 67.8621Z" fill="#3F3D56"/>
<path d="M243.216 53.3815H101.302C101.198 53.3815 101.098 53.3414 101.024 53.2699C100.951 53.1984 100.909 53.1015 100.909 53.0005C100.909 52.8994 100.951 52.8025 101.024 52.731C101.098 52.6595 101.198 52.6194 101.302 52.6194H243.216C243.321 52.6194 243.421 52.6595 243.494 52.731C243.568 52.8025 243.609 52.8994 243.609 53.0005C243.609 53.1015 243.568 53.1984 243.494 53.2699C243.421 53.3414 243.321 53.3815 243.216 53.3815Z" fill="#3F3D56"/>
<path d="M243.216 38.9009H101.302C101.198 38.9009 101.098 38.8608 101.024 38.7893C100.951 38.7179 100.909 38.6209 100.909 38.5199C100.909 38.4188 100.951 38.3219 101.024 38.2504C101.098 38.1789 101.198 38.1388 101.302 38.1388H243.216C243.321 38.1388 243.421 38.1789 243.494 38.2504C243.568 38.3219 243.609 38.4188 243.609 38.5199C243.609 38.6209 243.568 38.7179 243.494 38.7893C243.421 38.8608 243.321 38.9009 243.216 38.9009Z" fill="#3F3D56"/>
<path d="M243.217 24.4205H101.303C101.199 24.4202 101.099 24.3799 101.025 24.3085C100.952 24.237 100.911 24.1403 100.911 24.0394C100.911 23.9385 100.952 23.8418 101.025 23.7703C101.099 23.6989 101.199 23.6586 101.303 23.6583H243.217C243.321 23.6586 243.42 23.6989 243.494 23.7703C243.567 23.8418 243.609 23.9385 243.609 24.0394C243.609 24.1403 243.567 24.237 243.494 24.3085C243.42 24.3799 243.321 24.4202 243.217 24.4205Z" fill="#3F3D56"/>
<path d="M115.03 114.09H110.075C109.465 114.089 108.881 113.854 108.45 113.437C108.019 113.019 107.777 112.453 107.776 111.862V98.613C107.777 98.0223 108.019 97.4561 108.45 97.0384C108.881 96.6207 109.465 96.3858 110.075 96.3851H115.03C115.64 96.3858 116.224 96.6207 116.655 97.0384C117.086 97.4561 117.328 98.0223 117.329 98.613V111.862C117.328 112.453 117.086 113.019 116.655 113.437C116.224 113.854 115.64 114.089 115.03 114.09Z" fill="#3F3D56"/>
<path d="M135.669 114.09H130.713C130.104 114.089 129.52 113.854 129.089 113.437C128.658 113.019 128.416 112.453 128.415 111.862V87.395C128.416 86.8043 128.658 86.238 129.089 85.8204C129.52 85.4027 130.104 85.1678 130.713 85.1671H135.669C136.278 85.1678 136.863 85.4027 137.293 85.8204C137.724 86.238 137.967 86.8043 137.967 87.395V111.862C137.967 112.453 137.724 113.019 137.293 113.437C136.863 113.854 136.278 114.089 135.669 114.09Z" fill="#3F3D56"/>
<path d="M176.946 114.09H171.99C171.381 114.089 170.797 113.854 170.366 113.437C169.935 113.019 169.693 112.453 169.692 111.862V60.9985C169.693 60.4079 169.935 59.8416 170.366 59.4239C170.797 59.0062 171.381 58.7713 171.99 58.7706H176.946C177.555 58.7713 178.139 59.0062 178.57 59.4239C179.001 59.8416 179.244 60.4079 179.244 60.9985V111.862C179.244 112.453 179.001 113.019 178.57 113.437C178.139 113.854 177.555 114.089 176.946 114.09Z" fill="#1E8E3E"/>
<path d="M156.111 114.09H151.155C150.546 114.089 149.962 113.854 149.531 113.437C149.1 113.019 148.858 112.453 148.857 111.862V78.4165C148.858 77.8258 149.1 77.2595 149.531 76.8419C149.962 76.4242 150.546 76.1893 151.155 76.1886H156.111C156.72 76.1893 157.304 76.4242 157.735 76.8419C158.166 77.2595 158.409 77.8258 158.409 78.4165V111.862C158.409 112.453 158.166 113.019 157.735 113.437C157.304 113.854 156.72 114.089 156.111 114.09Z" fill="#3F3D56"/>
<path d="M197.584 114.09H192.628C192.019 114.089 191.435 113.854 191.004 113.437C190.573 113.019 190.331 112.453 190.33 111.862V47.6118C190.331 47.0211 190.573 46.4548 191.004 46.0372C191.435 45.6195 192.019 45.3846 192.628 45.3839H197.584C198.193 45.3846 198.778 45.6195 199.209 46.0372C199.639 46.4548 199.882 47.0211 199.882 47.6118V111.862C199.882 112.453 199.639 113.019 199.209 113.437C198.778 113.854 198.193 114.089 197.584 114.09Z" fill="#3F3D56"/>
<path d="M218.223 114.09H213.267C212.658 114.089 212.074 113.854 211.643 113.437C211.212 113.019 210.969 112.453 210.969 111.862V60.9985C210.969 60.4079 211.212 59.8416 211.643 59.4239C212.074 59.0062 212.658 58.7713 213.267 58.7706H218.223C218.832 58.7713 219.416 59.0062 219.847 59.4239C220.278 59.8416 220.52 60.4079 220.521 60.9985V111.862C220.52 112.453 220.278 113.019 219.847 113.437C219.416 113.854 218.832 114.089 218.223 114.09Z" fill="#3F3D56"/>
<path d="M238.861 114.09H233.906C233.296 114.089 232.712 113.854 232.281 113.437C231.85 113.019 231.608 112.453 231.607 111.862V25.8292C231.608 25.2385 231.85 24.6723 232.281 24.2546C232.712 23.8369 233.296 23.602 233.906 23.6013H238.861C239.471 23.602 240.055 23.8369 240.486 24.2546C240.917 24.6723 241.159 25.2385 241.16 25.8292V111.862C241.159 112.453 240.917 113.019 240.486 113.437C240.055 113.854 239.471 114.089 238.861 114.09Z" fill="#1A73E8"/>
<path d="M173.113 38.7024C181.02 38.7024 187.429 32.4895 187.429 24.8255C187.429 17.1614 181.02 10.9485 173.113 10.9485C165.207 10.9485 158.798 17.1614 158.798 24.8255C158.798 32.4895 165.207 38.7024 173.113 38.7024Z" fill="#2F2E41"/>
<path d="M167.669 33.9428L160.702 37.325L162.65 41.0945L169.617 37.7123L167.669 33.9428Z" fill="#2F2E41"/>
<path d="M163.568 40.7118C163.981 40.1044 162.962 38.7461 161.291 37.6781C159.619 36.61 157.93 36.2366 157.517 36.8441C157.104 37.4515 158.123 38.8098 159.794 39.8778C161.465 40.9459 163.155 41.3193 163.568 40.7118Z" fill="#2F2E41"/>
<path d="M178.557 33.9427L176.61 37.7123L183.577 41.0945L185.525 37.3249L178.557 33.9427Z" fill="#2F2E41"/>
<path d="M186.432 39.8778C188.103 38.8098 189.123 37.4515 188.71 36.8441C188.297 36.2366 186.607 36.61 184.936 37.6781C183.265 38.7461 182.245 40.1044 182.658 40.7118C183.071 41.3193 184.761 40.9459 186.432 39.8778Z" fill="#2F2E41"/>
<path d="M172.111 26.1738C174.813 26.1738 177.004 24.0503 177.004 21.431C177.004 18.8116 174.813 16.6882 172.111 16.6882C169.409 16.6882 167.218 18.8116 167.218 21.431C167.218 24.0503 169.409 26.1738 172.111 26.1738Z" fill="white"/>
<path d="M173.301 24.4856C173.936 23.8707 173.932 22.8704 173.293 22.2512C172.654 21.6321 171.622 21.6285 170.988 22.2434C170.354 22.8582 170.358 23.8585 170.996 24.4777C171.635 25.0968 172.667 25.1004 173.301 24.4856Z" fill="#3F3D56"/>
<path d="M184.406 9.72878C184.621 4.59132 180.054 0.239851 174.204 0.00951849C168.354 -0.220815 163.437 3.75718 163.222 8.89464C163.007 14.0321 167.073 15.1994 172.923 15.4297C178.773 15.6601 184.191 14.8662 184.406 9.72878Z" fill="#F9A826"/>
<path d="M192.658 32.0919C193.6 31.3083 192.276 28.316 189.701 25.4084C187.126 22.5009 184.275 20.779 183.333 21.5626C182.392 22.3462 183.716 25.3385 186.291 28.2461C188.866 31.1537 191.717 32.8755 192.658 32.0919Z" fill="#2F2E41"/>
<path d="M159.976 28.2461C162.551 25.3385 163.875 22.3463 162.933 21.5627C161.991 20.7791 159.141 22.5009 156.566 25.4085C153.991 28.316 152.667 31.3083 153.608 32.0919C154.55 32.8755 157.401 31.1537 159.976 28.2461Z" fill="#2F2E41"/>
<path d="M177.045 30.2942C177.122 30.7027 177.115 31.1219 177.024 31.5278C176.934 31.9336 176.762 32.3183 176.518 32.6597C176.275 33.0011 175.964 33.2927 175.604 33.5177C175.244 33.7428 174.842 33.8969 174.42 33.9712C173.999 34.0456 173.566 34.0388 173.148 33.9511C172.729 33.8635 172.332 33.6968 171.98 33.4605C171.628 33.2243 171.327 32.9231 171.095 32.5741C170.863 32.2252 170.704 31.8353 170.627 31.4268L170.626 31.4207C170.305 29.7024 171.676 29.0943 173.448 28.7833C175.221 28.4722 176.724 28.5759 177.045 30.2942Z" fill="white"/>
<path d="M287.678 103.038C288.654 102.246 287.336 99.1626 284.734 96.1507C282.132 93.1387 279.233 91.3389 278.257 92.1305C277.282 92.9222 278.6 96.0056 281.202 99.0175C283.803 102.029 286.703 103.829 287.678 103.038Z" fill="#2F2E41"/>
<path d="M281.281 99.6126C283.844 92.1593 279.689 84.1032 272 81.6187C264.311 79.1343 256 83.1623 253.437 90.6157C250.874 98.069 255.03 106.125 262.718 108.61C270.407 111.094 278.718 107.066 281.281 99.6126Z" fill="#2F2E41"/>
<path d="M273.571 106.278H269.112V114.021H273.571V106.278Z" fill="#2F2E41"/>
<path d="M264.654 106.278H260.196V114.021H264.654V106.278Z" fill="#2F2E41"/>
<path d="M269.855 115.462C271.907 115.462 273.571 114.857 273.571 114.111C273.571 113.366 271.907 112.761 269.855 112.761C267.804 112.761 266.14 113.366 266.14 114.111C266.14 114.857 267.804 115.462 269.855 115.462Z" fill="#2F2E41"/>
<path d="M260.939 115.282C262.991 115.282 264.654 114.677 264.654 113.931C264.654 113.185 262.991 112.581 260.939 112.581C258.887 112.581 257.224 113.185 257.224 113.931C257.224 114.677 258.887 115.282 260.939 115.282Z" fill="#2F2E41"/>
<path d="M262.751 77.2323C264.062 72.1169 269.846 69.1065 275.671 70.5086C281.496 71.9106 285.155 77.1941 283.845 82.3095C282.535 87.425 278.187 87.4415 272.362 86.0395C266.538 84.6374 261.441 82.3478 262.751 77.2323Z" fill="#D93025"/>
<path d="M257.46 91.5615C258.005 90.4472 255.479 88.1793 251.817 86.4959C248.156 84.8126 244.746 84.3512 244.2 85.4654C243.655 86.5797 246.182 88.8476 249.843 90.5309C253.505 92.2143 256.915 92.6757 257.46 91.5615Z" fill="#2F2E41"/>
<path d="M265.165 96.8553C267.867 96.8553 270.058 94.7319 270.058 92.1125C270.058 89.4932 267.867 87.3698 265.165 87.3698C262.463 87.3698 260.272 89.4932 260.272 92.1125C260.272 94.7319 262.463 96.8553 265.165 96.8553Z" fill="white"/>
<path d="M263.154 91.9934C264.055 91.9934 264.785 91.2856 264.785 90.4125C264.785 89.5393 264.055 88.8315 263.154 88.8315C262.254 88.8315 261.523 89.5393 261.523 90.4125C261.523 91.2856 262.254 91.9934 263.154 91.9934Z" fill="#3F3D56"/>
<path d="M268.235 101.994C268.389 102.819 268.199 103.669 267.707 104.358C267.214 105.047 266.46 105.518 265.609 105.669C264.759 105.819 263.881 105.635 263.17 105.158C262.459 104.682 261.972 103.951 261.817 103.126L261.815 103.12C261.494 101.402 262.865 100.794 264.638 100.483C266.41 100.172 267.914 100.276 268.235 101.994Z" fill="white"/>
<path d="M247.44 119H242.484C241.875 118.999 241.29 118.764 240.859 118.347C240.429 117.929 240.186 117.363 240.186 116.772V30.7394C240.186 30.1487 240.429 29.5824 240.859 29.1647C241.29 28.7471 241.875 28.5121 242.484 28.5115H247.44C248.049 28.5121 248.633 28.7471 249.064 29.1647C249.495 29.5824 249.737 30.1487 249.738 30.7394V116.772C249.737 117.363 249.495 117.929 249.064 118.347C248.633 118.764 248.049 118.999 247.44 119Z" fill="#F9A826"/>
<path d="M38.8944 109.34C46.9992 109.34 53.5695 102.971 53.5695 95.1141C53.5695 87.2576 46.9992 80.8887 38.8944 80.8887C30.7895 80.8887 24.2192 87.2576 24.2192 95.1141C24.2192 102.971 30.7895 109.34 38.8944 109.34Z" fill="#2F2E41"/>
<path d="M36.6653 106.278H32.207V114.021H36.6653V106.278Z" fill="#2F2E41"/>
<path d="M45.5818 106.278H41.1235V114.021H45.5818V106.278Z" fill="#2F2E41"/>
<path d="M35.9223 115.462C37.9741 115.462 39.6375 114.857 39.6375 114.111C39.6375 113.366 37.9741 112.761 35.9223 112.761C33.8704 112.761 32.207 113.366 32.207 114.111C32.207 114.857 33.8704 115.462 35.9223 115.462Z" fill="#2F2E41"/>
<path d="M44.8388 115.282C46.8906 115.282 48.554 114.677 48.554 113.931C48.554 113.185 46.8906 112.581 44.8388 112.581C42.7869 112.581 41.1235 113.185 41.1235 113.931C41.1235 114.677 42.7869 115.282 44.8388 115.282Z" fill="#2F2E41"/>
<path d="M39.2661 96.3746C42.0361 96.3746 44.2816 94.1979 44.2816 91.5127C44.2816 88.8276 42.0361 86.6509 39.2661 86.6509C36.496 86.6509 34.2505 88.8276 34.2505 91.5127C34.2505 94.1979 36.496 96.3746 39.2661 96.3746Z" fill="white"/>
<path d="M39.2661 93.1333C40.1894 93.1333 40.938 92.4078 40.938 91.5127C40.938 90.6177 40.1894 89.8921 39.2661 89.8921C38.3428 89.8921 37.5942 90.6177 37.5942 91.5127C37.5942 92.4078 38.3428 93.1333 39.2661 93.1333Z" fill="#3F3D56"/>
<path d="M24.6593 81.8849C23.4744 76.7408 27.2622 71.5428 33.1197 70.275C38.9771 69.0071 44.6861 72.1495 45.8711 77.2936C47.056 82.4378 43.1741 84.335 37.3166 85.6029C31.4592 86.8707 25.8443 87.029 24.6593 81.8849Z" fill="#1A73E8"/>
<path d="M49.5949 44.2935C51.0418 40.6241 51.2513 37.2926 50.063 36.8523C48.8747 36.412 46.7384 39.0297 45.2916 42.6991C43.8448 46.3684 43.6352 49.6999 44.8235 50.1402C46.0119 50.5805 48.1481 47.9628 49.5949 44.2935Z" fill="#2F2E41"/>
<path d="M48.3645 56.5172C49.6628 48.7621 44.2298 41.4552 36.2295 40.1967C28.2293 38.9383 20.6914 44.2048 19.3932 51.9598C18.0949 59.7149 23.5279 67.0218 31.5281 68.2803C39.5284 69.5387 47.0662 64.2722 48.3645 56.5172Z" fill="#2F2E41"/>
<path d="M31.6497 65.4028H27.1914V73.1458H31.6497V65.4028Z" fill="#2F2E41"/>
<path d="M40.5662 65.4028H36.1079V73.1458H40.5662V65.4028Z" fill="#2F2E41"/>
<path d="M30.9066 74.5863C32.9585 74.5863 34.6219 73.9816 34.6219 73.2358C34.6219 72.4899 32.9585 71.8853 30.9066 71.8853C28.8548 71.8853 27.1914 72.4899 27.1914 73.2358C27.1914 73.9816 28.8548 74.5863 30.9066 74.5863Z" fill="#2F2E41"/>
<path d="M39.8231 74.4062C41.875 74.4062 43.5384 73.8016 43.5384 73.0557C43.5384 72.3098 41.875 71.7052 39.8231 71.7052C37.7713 71.7052 36.1079 72.3098 36.1079 73.0557C36.1079 73.8016 37.7713 74.4062 39.8231 74.4062Z" fill="#2F2E41"/>
<path d="M34.3979 55.4969C37.1667 55.418 39.3453 53.1783 39.264 50.4943C39.1826 47.8103 36.8721 45.6985 34.1032 45.7774C31.3344 45.8562 29.1558 48.096 29.2372 50.7799C29.3185 53.4639 31.6291 55.5758 34.3979 55.4969Z" fill="white"/>
<path d="M34.2505 52.2577C35.1738 52.2577 35.9223 51.5322 35.9223 50.6371C35.9223 49.7421 35.1738 49.0165 34.2505 49.0165C33.3271 49.0165 32.5786 49.7421 32.5786 50.6371C32.5786 51.5322 33.3271 52.2577 34.2505 52.2577Z" fill="#3F3D56"/>
<path d="M19.6437 41.0091C18.4588 35.865 22.2466 30.6671 28.104 29.3993C33.9615 28.1314 39.6705 31.2738 40.8554 36.4179C42.0404 41.562 38.1584 43.4593 32.301 44.7271C26.4435 45.9949 20.8287 46.1533 19.6437 41.0091Z" fill="#F9A826"/>
<path d="M23.9794 50.6858C24.5246 49.5716 21.9983 47.3037 18.3368 45.6203C14.6754 43.937 11.2652 43.4756 10.72 44.5898C10.1749 45.704 12.7011 47.9719 16.3626 49.6553C20.0241 51.3387 23.4343 51.8001 23.9794 50.6858Z" fill="#2F2E41"/>
<path d="M26.6704 59.3705C26.6704 60.7628 30.3687 63.5121 34.4724 63.5121C38.5761 63.5121 42.4238 59.5923 42.4238 58.2001C42.4238 56.8078 38.5761 58.4702 34.4724 58.4702C30.3687 58.4702 26.6704 57.9782 26.6704 59.3705Z" fill="white"/>
<path d="M176.503 76.5362L171.694 77.6948C171.103 77.8366 170.477 77.7452 169.955 77.4405C169.433 77.1359 169.057 76.643 168.909 76.0699L156.255 26.7079C156.109 26.1345 156.203 25.5282 156.517 25.0222C156.831 24.5161 157.34 24.1515 157.931 24.0084L162.74 22.8499C163.332 22.7081 163.957 22.7995 164.479 23.1041C165.001 23.4087 165.378 23.9017 165.525 24.4747L178.18 73.8368C178.326 74.4102 178.232 75.0164 177.917 75.5225C177.603 76.0286 177.095 76.3932 176.503 76.5362Z" fill="#F9A826"/>
<path d="M62.1993 51.1894L51.397 53.2334C51.2221 53.2671 51.0415 53.2616 50.8691 53.2174C50.6967 53.1732 50.5369 53.0914 50.402 52.9783C50.2644 52.8639 50.1555 52.7205 50.0836 52.5591C50.0118 52.3976 49.9789 52.2224 49.9875 52.0468C50.1717 47.753 49.3107 43.4774 47.4741 39.5659C47.3981 39.4063 47.3606 39.232 47.3645 39.0562C47.3685 38.8805 47.4138 38.7079 47.4969 38.5517C47.578 38.3977 47.6943 38.2637 47.837 38.1599C47.9796 38.056 48.1448 37.9852 48.3199 37.9526L59.1222 35.9086C59.3983 35.8569 59.6844 35.9019 59.9295 36.0355C60.1746 36.1691 60.3629 36.3827 60.4608 36.6383C62.0586 40.9412 62.9678 45.4558 63.1565 50.0253C63.165 50.2978 63.0734 50.5644 62.8981 50.7775C62.7228 50.9907 62.4752 51.1367 62.1993 51.1894Z" fill="#FF6584"/>
<path d="M14.835 60.7684L4.03276 62.8124C3.85782 62.8461 3.67726 62.8406 3.50483 62.7964C3.3324 62.7522 3.17266 62.6704 3.03775 62.5573C2.90009 62.4429 2.7912 62.2995 2.71936 62.138C2.64751 61.9766 2.61462 61.8014 2.62318 61.6258C2.80746 57.332 1.94645 53.0564 0.10982 49.1449C0.0337902 48.9853 -0.0036725 48.811 0.000283728 48.6352C0.00423996 48.4594 0.0495113 48.2869 0.13265 48.1306C0.213775 47.9767 0.330072 47.8427 0.472692 47.7388C0.615313 47.635 0.780492 47.5641 0.955651 47.5315L11.7579 45.4876C12.034 45.4359 12.3201 45.4808 12.5652 45.6145C12.8104 45.7481 12.9986 45.9617 13.0965 46.2173C14.6944 50.5202 15.6035 55.0348 15.7923 59.6043C15.8007 59.8768 15.7092 60.1433 15.5339 60.3565C15.3586 60.5697 15.1109 60.7157 14.835 60.7684Z" fill="#34A853"/>
<path d="M85.5021 27.6728C87.5722 27.6728 89.2504 26.046 89.2504 24.0394C89.2504 22.0327 87.5722 20.406 85.5021 20.406C83.4321 20.406 81.7539 22.0327 81.7539 24.0394C81.7539 26.046 83.4321 27.6728 85.5021 27.6728Z" fill="#FAD2CF"/>
<path d="M85.5021 42.1534C87.5722 42.1534 89.2504 40.5266 89.2504 38.52C89.2504 36.5133 87.5722 34.8866 85.5021 34.8866C83.4321 34.8866 81.7539 36.5133 81.7539 38.52C81.7539 40.5266 83.4321 42.1534 85.5021 42.1534Z" fill="#EA4335"/>
<path d="M85.5021 56.6338C87.5722 56.6338 89.2504 55.0071 89.2504 53.0004C89.2504 50.9938 87.5722 49.3671 85.5021 49.3671C83.4321 49.3671 81.7539 50.9938 81.7539 53.0004C81.7539 55.0071 83.4321 56.6338 85.5021 56.6338Z" fill="#D93025"/>
<path d="M85.5021 71.1144C87.5722 71.1144 89.2504 69.4877 89.2504 67.481C89.2504 65.4744 87.5722 63.8477 85.5021 63.8477C83.4321 63.8477 81.7539 65.4744 81.7539 67.481C81.7539 69.4877 83.4321 71.1144 85.5021 71.1144Z" fill="#C5221F"/>
<path d="M85.5021 85.595C87.5722 85.595 89.2504 83.9683 89.2504 81.9616C89.2504 79.955 87.5722 78.3282 85.5021 78.3282C83.4321 78.3282 81.7539 79.955 81.7539 81.9616C81.7539 83.9683 83.4321 85.595 85.5021 85.595Z" fill="#B31412"/>
<path d="M85.5021 100.075C87.5722 100.075 89.2504 98.4488 89.2504 96.4421C89.2504 94.4354 87.5722 92.8087 85.5021 92.8087C83.4321 92.8087 81.7539 94.4354 81.7539 96.4421C81.7539 98.4488 83.4321 100.075 85.5021 100.075Z" fill="#A50E0E"/>
</g>
<defs>
<clipPath id="clip0">
<rect width="288" height="119" fill="white"/>
</clipPath>
</defs>
</svg>
