<svg width="282" height="163" viewBox="0 0 282 163" fill="none" xmlns="http://www.w3.org/2000/svg">
<g filter="url(#filter0_d)">
<g clip-path="url(#clip0)">
<path d="M63.3682 137.586C71.238 137.586 77.6178 131.305 77.6178 123.557C77.6178 115.809 71.238 109.528 63.3682 109.528C55.4984 109.528 49.1187 115.809 49.1187 123.557C49.1187 131.305 55.4984 137.586 63.3682 137.586Z" fill="#F2F2F2"/>
<path d="M65.6851 135.533C73.5549 135.533 79.9347 129.252 79.9347 121.504C79.9347 113.756 73.5549 107.475 65.6851 107.475C57.8153 107.475 51.4355 113.756 51.4355 121.504C51.4355 129.252 57.8153 135.533 65.6851 135.533Z" fill="#188038"/>
<path d="M253.466 105.981H77.1611V106.455H253.466V105.981Z" fill="#3F3D56"/>
<path d="M168.47 4.41693H105.892V3.14709H77.5173V4.41693H14.6819C14.126 4.41693 13.5756 4.52472 13.062 4.73415C12.5485 4.94359 12.0818 5.25056 11.6888 5.63754C11.2957 6.02452 10.9839 6.48394 10.7712 6.98955C10.5585 7.49517 10.449 8.03709 10.449 8.58437V92.9472C10.449 94.0524 10.8949 95.1124 11.6888 95.894C12.4826 96.6755 13.5592 97.1146 14.6819 97.1146H168.47C169.593 97.1146 170.669 96.6755 171.463 95.894C172.257 95.1124 172.703 94.0524 172.703 92.9472V8.58437C172.703 8.03709 172.593 7.49517 172.381 6.98955C172.168 6.48394 171.856 6.02452 171.463 5.63754C171.07 5.25056 170.603 4.94359 170.09 4.73415C169.576 4.52472 169.026 4.41693 168.47 4.41693Z" fill="#3F3D56"/>
<path d="M167.028 11.782H16.1238V95.5909H167.028V11.782Z" fill="#FBBC04"/>
<path d="M91.4469 9.49627C92.3017 9.49627 92.9946 8.81404 92.9946 7.97247C92.9946 7.1309 92.3017 6.44867 91.4469 6.44867C90.5921 6.44867 89.8992 7.1309 89.8992 7.97247C89.8992 8.81404 90.5921 9.49627 91.4469 9.49627Z" fill="#6C63FF"/>
<g filter="url(#filter1_d)">
<path d="M123.872 95.5909H16.124V11.782L123.872 95.5909Z" fill="#EA8600"/>
</g>
<path d="M39.7358 89.3194C47.7469 89.3194 54.2411 82.9256 54.2411 75.0384C54.2411 67.1512 47.7469 60.7573 39.7358 60.7573C31.7247 60.7573 25.2305 67.1512 25.2305 75.0384C25.2305 82.9256 31.7247 89.3194 39.7358 89.3194Z" fill="#F2F2F2"/>
<path d="M140.753 56.9808H126.657V59.8807H140.753V56.9808Z" fill="#A50E0E"/>
<path d="M157.794 34.403H109.615V35.6458H157.794V34.403Z" fill="#A50E0E"/>
<path d="M157.794 38.3386H109.615V39.5814H157.794V38.3386Z" fill="#A50E0E"/>
<path d="M157.794 42.2741H109.615V43.5169H157.794V42.2741Z" fill="#A50E0E"/>
<path d="M157.794 46.2097H109.615V47.4525H157.794V46.2097Z" fill="#A50E0E"/>
<path d="M157.794 50.1453H109.615V51.3881H157.794V50.1453Z" fill="#A50E0E"/>
<path d="M157.794 13.4823H151.904V19.2821H157.794V13.4823Z" fill="#F2F2F2"/>
<path d="M160.529 21.9748H153.376V14.9322H160.529V21.9748ZM153.687 21.6686H160.218V15.2384H153.687V21.6686Z" fill="#A50E0E"/>
<path d="M176.94 94.067H162.213V93.0223C162.213 92.9951 162.207 92.9682 162.197 92.9431C162.186 92.9179 162.17 92.8951 162.151 92.8758C162.131 92.8566 162.108 92.8414 162.083 92.831C162.057 92.8205 162.03 92.8152 162.002 92.8152H156.953C156.925 92.8152 156.898 92.8205 156.872 92.831C156.847 92.8414 156.824 92.8566 156.804 92.8758C156.785 92.8951 156.769 92.9179 156.758 92.9431C156.748 92.9682 156.742 92.9951 156.742 93.0223V94.067H153.587V93.0223C153.587 92.9951 153.581 92.9682 153.571 92.9431C153.56 92.9179 153.544 92.8951 153.525 92.8758C153.505 92.8566 153.482 92.8414 153.457 92.831C153.431 92.8205 153.404 92.8152 153.376 92.8152H148.327C148.299 92.8152 148.272 92.8205 148.246 92.831C148.221 92.8414 148.198 92.8566 148.178 92.8758C148.159 92.8951 148.143 92.9179 148.132 92.9431C148.122 92.9682 148.116 92.9951 148.116 93.0223V94.067H144.961V93.0223C144.961 92.9951 144.955 92.9682 144.945 92.9431C144.934 92.9179 144.919 92.8951 144.899 92.8758C144.879 92.8566 144.856 92.8414 144.831 92.831C144.805 92.8205 144.778 92.8152 144.75 92.8152H139.701C139.673 92.8152 139.646 92.8205 139.62 92.831C139.595 92.8414 139.572 92.8566 139.552 92.8758C139.533 92.8951 139.517 92.9179 139.507 92.9431C139.496 92.9682 139.491 92.9951 139.491 93.0223V94.067H136.335V93.0223C136.335 92.9951 136.329 92.9682 136.319 92.9431C136.308 92.9179 136.293 92.8951 136.273 92.8758C136.254 92.8566 136.23 92.8414 136.205 92.831C136.179 92.8205 136.152 92.8152 136.124 92.8152H131.075C131.047 92.8152 131.02 92.8205 130.994 92.831C130.969 92.8414 130.946 92.8566 130.926 92.8758C130.907 92.8951 130.891 92.9179 130.881 92.9431C130.87 92.9682 130.865 92.9951 130.865 93.0223V94.067H127.709V93.0223C127.709 92.9951 127.703 92.9682 127.693 92.9431C127.682 92.9179 127.667 92.8951 127.647 92.8758C127.628 92.8566 127.604 92.8414 127.579 92.831C127.553 92.8205 127.526 92.8152 127.498 92.8152H122.449C122.421 92.8152 122.394 92.8205 122.368 92.831C122.343 92.8414 122.32 92.8566 122.3 92.8758C122.281 92.8951 122.265 92.9179 122.255 92.9431C122.244 92.9682 122.239 92.9951 122.239 93.0223V94.067H119.083V93.0223C119.083 92.9951 119.077 92.9682 119.067 92.9431C119.056 92.9179 119.041 92.8951 119.021 92.8758C119.002 92.8566 118.978 92.8414 118.953 92.831C118.927 92.8205 118.9 92.8152 118.872 92.8152H113.823C113.795 92.8152 113.768 92.8205 113.743 92.831C113.717 92.8414 113.694 92.8566 113.674 92.8758C113.655 92.8951 113.639 92.9179 113.629 92.9431C113.618 92.9682 113.613 92.9951 113.613 93.0223V94.067H110.457V93.0223C110.457 92.9951 110.451 92.9682 110.441 92.9431C110.43 92.9179 110.415 92.8951 110.395 92.8758C110.376 92.8566 110.352 92.8414 110.327 92.831C110.301 92.8205 110.274 92.8152 110.246 92.8152H70.6933C70.6657 92.8152 70.6383 92.8205 70.6128 92.831C70.5873 92.8414 70.5641 92.8566 70.5445 92.8758C70.525 92.8951 70.5095 92.9179 70.4989 92.9431C70.4884 92.9682 70.4829 92.9951 70.4829 93.0223V94.067H67.3271V93.0223C67.3271 92.9951 67.3217 92.9682 67.3111 92.9431C67.3005 92.9179 67.285 92.8951 67.2655 92.8758C67.2459 92.8566 67.2227 92.8414 67.1972 92.831C67.1717 92.8205 67.1443 92.8152 67.1167 92.8152H62.0674C62.0397 92.8152 62.0124 92.8205 61.9869 92.831C61.9613 92.8414 61.9381 92.8566 61.9186 92.8758C61.8991 92.8951 61.8836 92.9179 61.873 92.9431C61.8624 92.9682 61.857 92.9951 61.857 93.0223V94.067H58.7011V93.0223C58.7011 92.9951 58.6957 92.9682 58.6851 92.9431C58.6746 92.9179 58.6591 92.8951 58.6395 92.8758C58.62 92.8566 58.5968 92.8414 58.5713 92.831C58.5457 92.8205 58.5184 92.8152 58.4907 92.8152H53.4414C53.4138 92.8152 53.3864 92.8205 53.3609 92.831C53.3354 92.8414 53.3122 92.8566 53.2926 92.8758C53.2731 92.8951 53.2576 92.9179 53.247 92.9431C53.2365 92.9682 53.231 92.9951 53.231 93.0223V94.067H50.0752V93.0223C50.0752 92.9951 50.0697 92.9682 50.0592 92.9431C50.0486 92.9179 50.0331 92.8951 50.0136 92.8758C49.994 92.8566 49.9708 92.8414 49.9453 92.831C49.9198 92.8205 49.8924 92.8152 49.8648 92.8152H44.8155C44.7878 92.8152 44.7605 92.8205 44.735 92.831C44.7094 92.8414 44.6862 92.8566 44.6667 92.8758C44.6472 92.8951 44.6317 92.9179 44.6211 92.9431C44.6105 92.9682 44.6051 92.9951 44.6051 93.0223V94.067H41.4493V93.0223C41.4493 92.9951 41.4438 92.9682 41.4332 92.9431C41.4227 92.9179 41.4072 92.8951 41.3876 92.8758C41.3681 92.8566 41.3449 92.8414 41.3194 92.831C41.2938 92.8205 41.2665 92.8152 41.2389 92.8152H36.1895C36.1619 92.8152 36.1345 92.8205 36.109 92.831C36.0835 92.8414 36.0603 92.8566 36.0407 92.8758C36.0212 92.8951 36.0057 92.9179 35.9951 92.9431C35.9846 92.9682 35.9791 92.9951 35.9791 93.0223V94.067H32.8233V93.0223C32.8233 92.9951 32.8179 92.9682 32.8073 92.9431C32.7967 92.9179 32.7812 92.8951 32.7617 92.8758C32.7421 92.8566 32.7189 92.8414 32.6934 92.831C32.6679 92.8205 32.6405 92.8152 32.6129 92.8152H27.5636C27.5359 92.8152 27.5086 92.8205 27.4831 92.831C27.4575 92.8414 27.4343 92.8566 27.4148 92.8758C27.3953 92.8951 27.3798 92.9179 27.3692 92.9431C27.3586 92.9682 27.3532 92.9951 27.3532 93.0223V94.067H24.1973V93.0223C24.1973 92.9951 24.1919 92.9682 24.1813 92.9431C24.1708 92.9179 24.1553 92.8951 24.1357 92.8758C24.1162 92.8566 24.093 92.8414 24.0675 92.831C24.0419 92.8205 24.0146 92.8152 23.987 92.8152H18.9376C18.91 92.8152 18.8826 92.8205 18.8571 92.831C18.8316 92.8414 18.8084 92.8566 18.7889 92.8758C18.7693 92.8951 18.7538 92.9179 18.7432 92.9431C18.7327 92.9682 18.7272 92.9951 18.7272 93.0223V94.067H9.04934C7.71017 94.067 6.42585 94.5908 5.47892 95.5231C4.53198 96.4553 4 97.7198 4 99.0383V101.286C4 102.605 4.53199 103.869 5.47892 104.801C6.42586 105.734 7.71017 106.257 9.04934 106.257H176.94C178.279 106.257 179.563 105.734 180.51 104.801C181.457 103.869 181.989 102.605 181.989 101.286V99.0383C181.989 97.7198 181.457 96.4553 180.51 95.5231C179.563 94.5908 178.279 94.067 176.94 94.067Z" fill="#3F3D56"/>
<path d="M43.247 83.9581C39.6316 83.9581 36.0973 82.9026 33.0912 80.925C30.0851 78.9474 27.7421 76.1366 26.3585 72.8481C24.975 69.5595 24.613 65.9408 25.3183 62.4497C26.0236 58.9586 27.7646 55.7518 30.3211 53.2348C32.8776 50.7178 36.1348 49.0038 39.6808 48.3093C43.2267 47.6149 46.9022 47.9713 50.2424 49.3335C53.5827 50.6956 56.4376 53.0024 58.4462 55.962C60.4549 58.9217 61.527 62.4013 61.527 65.9608C61.5215 70.7323 59.5938 75.3069 56.1668 78.6808C52.7399 82.0548 48.0935 83.9527 43.247 83.9581ZM43.247 48.4371C39.7267 48.4371 36.2855 49.4649 33.3585 51.3904C30.4315 53.3159 28.1501 56.0527 26.803 59.2548C25.4558 62.4568 25.1033 65.9802 25.7901 69.3795C26.4769 72.7788 28.1721 75.9012 30.6613 78.3519C33.1505 80.8026 36.322 82.4716 39.7746 83.1478C43.2273 83.8239 46.806 83.4769 50.0584 82.1506C53.3107 80.8242 56.0905 78.5782 58.0463 75.6964C60.002 72.8147 61.0459 69.4266 61.0459 65.9608C61.0406 61.3148 59.1636 56.8607 55.8268 53.5755C52.4901 50.2903 47.9659 48.4424 43.247 48.4371Z" fill="white"/>
<path d="M206.323 7.70642H144.989V8.18003H206.323V7.70642Z" fill="#A50E0E"/>
<path d="M278 132.74H101.695V133.214H278V132.74Z" fill="#3F3D56"/>
<path d="M111.676 154.526H50.3425V155H111.676V154.526Z" fill="#3F3D56"/>
<path d="M124.022 130.244H117.288V136.874H124.022V130.244Z" fill="#F29900"/>
<path d="M128.111 133.085H119.933V125.034H128.111V133.085ZM120.289 132.735H127.756V125.384H120.289V132.735Z" fill="#3F3D56"/>
<path d="M202.193 5.20972H195.458V11.8403H202.193V5.20972Z" fill="#A50E0E"/>
<path d="M206.282 8.05142H198.104V0H206.282V8.05142ZM198.46 7.70135H205.927V0.350062H198.46V7.70135Z" fill="#A50E0E"/>
<path d="M270.022 130.244H263.287V136.874H270.022V130.244Z" fill="#188038"/>
<path d="M274.111 133.085H265.933V125.034H274.111V133.085ZM266.288 132.735H273.755V125.384H266.288V132.735Z" fill="#3F3D56"/>
<path d="M258.277 54.9292H257.705V39.4985C257.705 38.3257 257.47 37.1643 257.014 36.0808C256.559 34.9972 255.89 34.0127 255.048 33.1834C254.206 32.3541 253.206 31.6963 252.105 31.2474C251.005 30.7986 249.825 30.5676 248.634 30.5676H215.428C214.237 30.5676 213.058 30.7986 211.957 31.2474C210.856 31.6963 209.856 32.3541 209.014 33.1834C208.172 34.0127 207.504 34.9972 207.048 36.0808C206.592 37.1643 206.357 38.3257 206.357 39.4985V124.152C206.357 125.325 206.592 126.486 207.048 127.57C207.504 128.654 208.172 129.638 209.014 130.467C209.856 131.297 210.856 131.955 211.957 132.403C213.058 132.852 214.237 133.083 215.428 133.083H248.634C249.825 133.083 251.005 132.852 252.105 132.403C253.206 131.955 254.206 131.297 255.048 130.467C255.89 129.638 256.559 128.654 257.014 127.57C257.47 126.486 257.705 125.325 257.705 124.152V65.913H258.277V54.9292Z" fill="#3F3D56"/>
<path d="M255.773 40.0234V124.554C255.774 126.323 255.06 128.019 253.79 129.27C252.52 130.521 250.797 131.224 249 131.225H215.634C213.838 131.224 212.115 130.521 210.844 129.27C209.574 128.019 208.861 126.323 208.861 124.554V40.0234C208.861 38.2549 209.575 36.5589 210.845 35.3083C212.115 34.0578 213.838 33.3552 215.634 33.355H219.682C219.483 33.8361 219.407 34.358 219.461 34.8749C219.515 35.3917 219.697 35.8875 219.992 36.3187C220.286 36.7498 220.684 37.1031 221.149 37.3474C221.615 37.5916 222.135 37.7194 222.662 37.7193H241.686C242.213 37.7194 242.733 37.5916 243.199 37.3474C243.664 37.1031 244.062 36.7499 244.356 36.3187C244.651 35.8875 244.833 35.3917 244.887 34.8749C244.941 34.358 244.865 33.8361 244.666 33.355H249C250.796 33.3552 252.519 34.0578 253.789 35.3083C255.059 36.5589 255.773 38.2549 255.773 40.0234Z" fill="#174EA6"/>
<path d="M237.287 89.0908H227.347V91.9907H237.287V89.0908Z" fill="#E8F0FE"/>
<path d="M215.831 67.2558V67.013H248.803V67.2558H215.831Z" fill="#E8F0FE" stroke="#E8F0FE"/>
<path d="M215.831 71.1914V70.9485H248.803V71.1914H215.831Z" fill="#E8F0FE" stroke="#E8F0FE"/>
<path d="M215.831 75.127V74.8842H248.803V75.127H215.831Z" fill="#E8F0FE" stroke="#E8F0FE"/>
<path d="M215.831 79.0625V78.8197H248.803V79.0625H215.831Z" fill="#E8F0FE" stroke="#E8F0FE"/>
<path d="M249.303 82.2553H215.331V83.4981H249.303V82.2553Z" fill="#E8F0FE"/>
<path d="M233.504 50.0085H227.613V55.8083H233.504V50.0085Z" fill="#F2F2F2"/>
<path d="M229.868 51.4588V58.5014H237.021V51.4588H229.868ZM236.711 58.1959H230.178V51.7643H236.711V58.1959Z" fill="#E8F0FE"/>
<path opacity="0.1" d="M255.773 115.527V124.554C255.774 126.323 255.06 128.019 253.79 129.27C252.52 130.521 250.797 131.224 249 131.225H215.634C213.838 131.224 212.115 130.521 210.844 129.27C209.574 128.019 208.861 126.323 208.861 124.554V79.0373L236.971 100.902L237.452 101.276L242.681 105.342L243.17 105.723L255.773 115.527Z" fill="black"/>
<path d="M229.431 128.485C235.258 128.485 239.982 123.834 239.982 118.097C239.982 112.36 235.258 107.709 229.431 107.709C223.603 107.709 218.879 112.36 218.879 118.097C218.879 123.834 223.603 128.485 229.431 128.485Z" fill="#F2F2F2"/>
<path d="M81.0095 155C76.8708 155 72.825 153.792 69.3838 151.528C65.9426 149.264 63.2604 146.047 61.6766 142.282C60.0928 138.517 59.6784 134.375 60.4858 130.379C61.2933 126.382 63.2862 122.711 66.2128 119.83C69.1393 116.949 72.8679 114.987 76.9271 114.192C80.9863 113.397 85.1938 113.805 89.0174 115.364C92.8411 116.923 96.1093 119.564 98.4086 122.952C100.708 126.34 101.935 130.323 101.935 134.398C101.929 139.86 99.7223 145.097 95.7993 148.959C91.8763 152.821 86.5574 154.994 81.0095 155ZM81.0095 114.269C76.9659 114.269 73.0132 115.45 69.651 117.662C66.2889 119.873 63.6685 123.017 62.1211 126.695C60.5737 130.373 60.1688 134.42 60.9576 138.325C61.7465 142.229 63.6937 145.816 66.5529 148.631C69.4122 151.446 73.0551 153.363 77.0209 154.14C80.9868 154.916 85.0976 154.518 88.8334 152.994C92.5691 151.471 95.7622 148.891 98.0087 145.581C100.255 142.271 101.454 138.379 101.454 134.398C101.448 129.061 99.2921 123.945 95.4593 120.172C91.6265 116.398 86.4299 114.275 81.0095 114.269Z" fill="#3F3D56"/>
<path d="M232.541 126.11C229.924 126.11 227.367 125.346 225.191 123.915C223.016 122.483 221.32 120.449 220.319 118.069C219.318 115.69 219.056 113.071 219.566 110.544C220.076 108.018 221.336 105.697 223.186 103.876C225.037 102.054 227.394 100.814 229.96 100.311C232.526 99.8086 235.186 100.067 237.603 101.052C240.02 102.038 242.087 103.707 243.54 105.849C244.994 107.991 245.77 110.509 245.77 113.085C245.766 116.538 244.371 119.849 241.891 122.291C239.411 124.732 236.048 126.106 232.541 126.11ZM232.541 100.535C230.019 100.535 227.555 101.271 225.458 102.65C223.362 104.029 221.728 105.989 220.763 108.282C219.798 110.576 219.546 113.099 220.038 115.534C220.53 117.968 221.744 120.205 223.527 121.96C225.309 123.715 227.581 124.911 230.054 125.395C232.527 125.879 235.09 125.631 237.419 124.681C239.748 123.731 241.739 122.122 243.14 120.058C244.541 117.994 245.289 115.568 245.289 113.085C245.285 109.758 243.94 106.568 241.551 104.215C239.161 101.862 235.92 100.538 232.541 100.535Z" fill="#E8F0FE"/>
</g>
</g>
<defs>
<filter id="filter0_d" x="0" y="0" width="282" height="163" filterUnits="userSpaceOnUse" color-interpolation-filters="sRGB">
<feFlood flood-opacity="0" result="BackgroundImageFix"/>
<feColorMatrix in="SourceAlpha" type="matrix" values="0 0 0 0 0 0 0 0 0 0 0 0 0 0 0 0 0 0 127 0"/>
<feOffset dy="4"/>
<feGaussianBlur stdDeviation="2"/>
<feColorMatrix type="matrix" values="0 0 0 0 0 0 0 0 0 0 0 0 0 0 0 0 0 0 0.25 0"/>
<feBlend mode="normal" in2="BackgroundImageFix" result="effect1_dropShadow"/>
<feBlend mode="normal" in="SourceGraphic" in2="effect1_dropShadow" result="shape"/>
</filter>
<filter id="filter1_d" x="12.124" y="11.782" width="115.748" height="91.8088" filterUnits="userSpaceOnUse" color-interpolation-filters="sRGB">
<feFlood flood-opacity="0" result="BackgroundImageFix"/>
<feColorMatrix in="SourceAlpha" type="matrix" values="0 0 0 0 0 0 0 0 0 0 0 0 0 0 0 0 0 0 127 0"/>
<feOffset dy="4"/>
<feGaussianBlur stdDeviation="2"/>
<feColorMatrix type="matrix" values="0 0 0 0 0 0 0 0 0 0 0 0 0 0 0 0 0 0 0.25 0"/>
<feBlend mode="normal" in2="BackgroundImageFix" result="effect1_dropShadow"/>
<feBlend mode="normal" in="SourceGraphic" in2="effect1_dropShadow" result="shape"/>
</filter>
<clipPath id="clip0">
<rect width="274" height="155" fill="white" transform="translate(4)"/>
</clipPath>
</defs>
</svg>
