<svg width="270" height="251" viewBox="0 0 270 251" fill="none" xmlns="http://www.w3.org/2000/svg">
<g opacity="0.1">
<path opacity="0.1" d="M84.8419 167.425C84.9264 167.705 85.0136 167.975 85.1144 168.239C86.9109 166.616 88.6511 164.941 90.3349 163.214C91.3416 162.697 92.1741 161.815 92.7054 160.702C93.1904 160.175 93.6727 159.635 94.1496 159.098C93.9433 158.831 93.7221 158.58 93.4874 158.347C91.8744 156.717 89.8799 156.033 88.0571 156.727C86.2342 157.421 84.989 159.339 84.534 161.751C84.1957 163.64 84.302 165.599 84.8419 167.425Z" fill="#3F3D56"/>
<path opacity="0.1" d="M81.8503 156.994C82.3602 158.826 83.2848 160.468 84.5287 161.751C86.1417 163.375 88.1335 164.062 89.959 163.365C90.0843 163.315 90.2042 163.262 90.3296 163.205C91.3363 162.688 92.1687 161.806 92.7001 160.693C93.0656 159.96 93.3294 159.165 93.4821 158.338C93.7972 156.449 93.6872 154.498 93.1625 152.672C92.6378 150.846 91.716 149.205 90.4849 147.906C88.8691 146.277 86.8774 145.592 85.0545 146.286C83.2317 146.98 81.9865 148.899 81.5315 151.31C81.1952 153.204 81.3052 155.166 81.8503 156.994Z" fill="#3F3D56"/>
<path opacity="0.1" d="M86.956 152.953C90.0807 151.763 91.5178 146.976 90.1658 142.262C88.8137 137.547 85.1845 134.691 82.0597 135.881C78.935 137.071 77.4979 141.858 78.85 146.572C80.202 151.286 83.8312 154.143 86.956 152.953Z" fill="#3F3D56"/>
<path opacity="0.1" d="M83.9648 142.523C87.0896 141.332 88.5266 136.546 87.1746 131.832C85.8225 127.117 82.1933 124.26 79.0686 125.451C75.9438 126.641 74.5067 131.428 75.8588 136.142C77.2108 140.856 80.84 143.713 83.9648 142.523Z" fill="#3F3D56"/>
<path opacity="0.1" d="M80.9728 132.093C84.0976 130.902 85.5347 126.116 84.1826 121.401C82.8306 116.687 79.2014 113.83 76.0766 115.021C72.9518 116.211 71.5148 120.997 72.8668 125.712C74.2189 130.426 77.8481 133.283 80.9728 132.093Z" fill="#3F3D56"/>
<path opacity="0.1" d="M79.2318 44.0906C79.6813 42.6619 80.0454 41.1993 80.3217 39.7133L64.6491 42.5645L80.7658 36.5763C81.1973 32.1215 80.8361 27.6121 79.7043 23.3236C78.5724 19.0351 76.6937 15.0577 74.1829 11.6343L56.3142 32.7485L71.371 8.31828C68.4428 5.31882 65.0101 3.04624 61.2867 1.64202C57.5633 0.237815 53.6289 -0.267949 49.7286 0.15623C45.8282 0.580408 42.0454 1.92544 38.6157 4.10758C35.1859 6.28972 32.1827 9.26224 29.7931 12.84C27.4034 16.4178 25.6785 20.5243 24.7257 24.9037C23.7728 29.2831 23.6125 33.8417 24.2547 38.2956C24.897 42.7495 26.3279 47.0034 28.4585 50.7923C30.5892 54.5812 33.3738 57.824 36.6391 60.3188C35.9399 62.5429 35.4512 64.8475 35.1814 67.1926L57.7965 71.3941L34.9389 71.2747C34.9059 76.7466 36.0574 82.1416 38.2891 86.9715C40.5209 91.8013 43.7625 95.9136 47.7205 98.9361C45.8985 104.74 45.5304 111.018 46.6582 117.052C47.7861 123.085 50.3644 128.632 54.0984 133.056C57.8324 137.481 62.5714 140.605 67.7736 142.072C72.9757 143.54 78.4311 143.29 83.516 141.352C88.6009 139.415 93.1101 135.867 96.5281 131.115C99.946 126.364 102.135 120.599 102.844 114.481C103.553 108.364 102.755 102.139 100.539 96.5199C98.3238 90.9006 94.781 86.1131 90.3159 82.7048C92.4962 75.7681 92.5893 68.1881 90.5805 61.183C88.5717 54.1779 84.5775 48.1546 79.24 44.0812L79.2318 44.0906Z" fill="#D93025"/>
<path opacity="0.1" d="M36.3667 81.8509C38.3674 88.859 42.3622 94.8835 47.7042 98.9489C45.8859 104.753 45.5211 111.029 46.6514 117.061C47.7817 123.093 50.3616 128.636 54.0961 133.058C57.8307 137.48 62.5694 140.602 67.7706 142.067C72.9718 143.532 78.4258 143.282 83.5092 141.344C88.5927 139.406 93.1006 135.859 96.5178 131.108C99.935 126.358 102.124 120.595 102.834 114.479C103.544 108.363 102.746 102.14 100.533 96.5211C98.3192 90.9024 94.7787 86.1146 90.316 82.705C92.4168 76.0071 35.3694 78.3308 36.3667 81.8509Z" fill="black"/>
</g>
<path d="M105.743 78.5659C105.065 76.9707 104.812 75.1714 104.566 73.4067C103.128 62.9877 101.782 51.7398 105.689 42.2974C106.305 40.8121 107.051 39.3677 108.141 38.3534C109.307 37.2701 110.754 36.7551 112.106 36.0517C116.029 34.0169 119.19 30.3649 122.639 27.3347C126.089 24.3045 130.252 21.7767 134.478 22.5492C136.658 22.9479 138.674 24.204 140.789 24.9922C146.761 27.2217 153.655 25.7678 159.02 29.6333C160.957 31.0306 162.537 33.0246 164.09 34.9966L171.019 43.789C172.897 46.1692 174.809 48.6091 175.946 51.5922C177.082 54.5753 177.322 58.2524 175.875 61.0346C175.147 62.4382 173.998 63.6534 173.872 65.302C173.736 67.0919 174.864 68.6306 175.275 70.3576C176.365 74.9202 172.368 78.836 168.722 80.6384C157.706 86.0708 145.587 85.4459 133.925 85.223C125.241 85.0503 110.751 90.3037 105.743 78.5659Z" fill="#3F3D56"/>
<path d="M125.334 101.147C124.568 103.254 122.923 104.742 121.296 106.052C119.669 107.361 117.934 108.608 115.975 108.714C119.427 113.83 124.149 117.592 128.765 121.275C130.914 122.986 133.094 124.694 135.546 125.662C137.797 126.547 140.192 126.767 142.546 127.138C145.543 127.612 148.527 128.343 151.538 128.199C156.903 127.941 162.033 124.823 165.592 120.188C169.15 115.554 171.188 109.512 171.739 103.348C169.831 103.313 168.071 102.092 166.532 100.76C164.649 99.137 162.883 97.2592 161.668 94.9386C160.352 92.4265 159.761 89.5125 159.161 86.6581C152.81 86.4383 146.459 86.2216 140.105 86.3629C137.792 86.4132 135.473 86.5168 133.217 87.1794C131.067 87.8074 126.577 89.4277 125.266 91.6603C124.511 92.9478 125.266 94.2729 125.538 95.6609C125.887 97.4853 125.974 99.3913 125.334 101.147Z" fill="#BE6F72"/>
<path opacity="0.1" d="M125.334 101.147C124.568 103.254 122.923 104.742 121.296 106.052C119.669 107.361 117.934 108.608 115.975 108.714C119.427 113.83 124.149 117.592 128.765 121.275C130.914 122.986 133.094 124.694 135.546 125.662C137.797 126.547 140.192 126.767 142.546 127.138C145.543 127.612 148.527 128.343 151.538 128.199C156.903 127.941 162.033 124.823 165.592 120.188C169.15 115.554 171.188 109.512 171.739 103.348C169.831 103.313 168.071 102.092 166.532 100.76C164.649 99.137 162.883 97.2592 161.668 94.9386C160.352 92.4265 159.761 89.5125 159.161 86.6581C152.81 86.4383 146.459 86.2216 140.105 86.3629C137.792 86.4132 135.473 86.5168 133.217 87.1794C131.067 87.8074 126.577 89.4277 125.266 91.6603C124.511 92.9478 125.266 94.2729 125.538 95.6609C125.887 97.4853 125.974 99.3913 125.334 101.147Z" fill="black"/>
<path d="M132.519 109.823C134.337 112.426 136.208 115.083 138.699 116.791C139.459 117.309 140.309 117.733 141.192 117.698C142.5 117.636 143.581 116.562 144.541 115.532C149.329 110.395 153.877 104.967 158.164 99.2722C159.507 97.4855 160.889 95.6234 162.728 94.584C164.39 111.867 164.824 129.277 164.025 146.641C164.034 146.969 163.968 147.294 163.834 147.583C163.548 148.082 162.949 148.155 162.428 148.177C147.047 148.842 131.051 149.376 116.964 142.21C117.942 138.866 117.781 135.249 117.877 131.719C118.032 125.932 118.904 120.201 120.108 114.59C120.699 111.836 121.372 109.107 122.086 106.394C122.68 104.121 123.132 100.114 124.459 98.3961C127.511 101.536 129.955 106.149 132.519 109.823Z" fill="#E3E8F4"/>
<path d="M139.503 118.238H141.41L146.314 127.659L141.137 142.417L134.871 127.973L139.503 118.238Z" fill="#3F3D56"/>
<path d="M139.331 133.123C137.557 130.14 136.335 126.769 135.74 123.219C135.549 122.082 135.421 120.923 135.072 119.837C134.554 118.226 133.579 116.876 132.699 115.485C129.435 110.325 127.334 104.314 126.582 97.9879C126.244 95.1179 126.018 91.8301 124.007 90.0936C122.743 89.004 121.059 88.8376 119.479 88.869C113.367 89.045 107.513 91.7451 102.983 96.4775C102.23 97.3384 101.434 98.1478 100.599 98.9017C99.7434 99.576 98.8305 100.148 97.8744 100.61C95.4603 101.866 92.9372 102.909 90.3078 103.226C89.6321 103.258 88.9622 103.386 88.3133 103.606C87.5286 103.92 86.8829 104.582 86.2208 105.176C84.1058 107.053 81.6759 108.405 79.0847 109.145C75.4279 118.931 72.5992 129.101 70.6381 139.513C70.145 142.104 69.7036 144.713 69.0306 147.25C68.1014 150.767 66.7336 154.121 65.8208 157.644C62.1915 171.665 66.0034 186.938 63.5593 201.292L194.634 201.499C192.574 197.816 193.316 193.137 193.139 188.76C192.972 184.728 192.084 180.787 191.468 176.811C190.438 170.164 190.174 163.387 190.068 156.636C190.024 153.785 190.021 150.839 190.978 148.211C192.773 143.278 197.433 140.675 201.844 139.001C203.953 138.204 206.171 137.475 207.838 135.77C209.547 134.008 210.435 131.421 210.98 128.862C208.007 122.11 204.144 115.673 199.264 110.608C197.43 108.724 195.471 106.956 193.923 104.752C192.98 103.405 192.198 101.904 191.158 100.67C188.553 97.5514 184.618 96.377 180.869 96.2043C179.711 96.1509 178.537 96.1761 177.414 95.8432C174.194 94.9012 172.142 91.2743 169.24 89.3965C167.221 88.098 164.864 87.6811 162.6 88.2221C160.965 88.6146 159.292 89.7325 158.924 91.5915C158.72 92.6371 158.971 93.7173 159.066 94.7819C159.36 98.057 158.18 101.266 156.753 104.117C151.622 114.295 143.233 122.236 139.331 133.123Z" fill="#FBBC04"/>
<path d="M167.97 70.3516C167.969 77.39 165.936 84.228 162.192 89.7886C158.448 95.3492 153.205 99.3165 147.29 101.066C141.374 102.815 135.122 102.246 129.517 99.4499C123.912 96.6535 119.274 91.7879 116.333 85.6195C113.392 79.4512 112.314 72.3305 113.271 65.3789C114.227 58.4273 117.163 52.0398 121.615 47.2225C126.068 42.4051 131.785 39.4316 137.865 38.7702C143.945 38.1089 150.044 39.7972 155.2 43.5694C159.113 46.4326 162.336 50.3889 164.569 55.0709C166.801 59.753 167.971 65.0091 167.97 70.3516Z" fill="#BE6F72"/>
<path d="M260.883 212.216V197.527H19.6533C20.1056 198.293 20.5643 199.051 21.0293 199.8C21.3807 200.76 21.8617 201.649 22.4543 202.435C22.77 202.851 23.1164 203.234 23.4897 203.581C28.7212 211.259 34.6774 217.778 41.2276 222.711C44.9491 225.523 48.9446 227.82 53.1319 229.556H253.3L260.883 212.216Z" fill="#3F3D56"/>
<path d="M145.603 180.727C141.906 180.388 138.061 179.326 134.579 180.796C133.392 181.342 132.266 182.051 131.225 182.906C127.464 185.816 124 189.206 120.898 193.011C120.002 194.107 119.125 195.263 118.574 196.632C117.798 198.563 117.729 200.764 117.212 202.808C116.915 203.98 116.462 205.167 116.642 206.369C116.822 207.572 118.026 208.649 118.928 208.008C118.883 208.344 118.903 208.686 118.986 209.012C119.069 209.337 119.214 209.638 119.409 209.892C119.605 210.145 119.846 210.346 120.117 210.48C120.387 210.614 120.68 210.677 120.975 210.665C122.354 210.61 123.685 210.07 124.789 209.117C124.824 209.498 124.986 209.848 125.239 210.096C125.493 210.343 125.82 210.468 126.152 210.445C128.514 210.266 130.765 208.875 132.786 207.355C135.159 205.584 137.516 203.568 140.296 202.959C138.586 203.858 137.08 205.2 135.895 206.881C135.44 207.525 135.015 208.278 135.516 209.274C135.816 209.833 136.277 210.252 136.819 210.458C139.93 211.714 143.312 209.635 145.388 206.752C146.225 205.587 146.963 204.24 148.113 203.534C149.963 202.388 152.243 203.191 154.325 202.859C156.636 202.494 158.578 200.758 160.701 199.637C163.526 198.148 166.676 197.753 169.692 196.867C170.055 196.806 170.388 196.607 170.641 196.302C170.829 195.94 170.91 195.516 170.872 195.096C170.859 190.795 170.578 186.501 170.03 182.247C169.985 181.561 169.803 180.897 169.499 180.306C168.905 179.333 167.777 179.05 166.761 178.855C165.126 178.541 163.292 177.838 161.646 177.844C160.066 177.844 158.543 178.874 157.036 179.38C153.327 180.621 149.454 181.077 145.603 180.727Z" fill="#BE6F72"/>
<path d="M162.84 175.065C158.755 175.56 154.913 177.539 151.87 180.718C155.268 179.729 158.924 178.752 162.199 180.184C163.795 180.882 165.174 182.11 166.163 183.712C167.152 185.315 167.706 187.219 167.754 189.185C167.803 191.151 167.344 193.088 166.435 194.753C165.527 196.418 164.21 197.734 162.652 198.535C163.314 199.392 164.287 199.813 165.254 200.136C172.243 202.485 179.725 201.078 186.872 199.477C188.18 199.185 189.596 198.799 190.395 197.558C191.106 196.437 191.084 194.927 191.021 193.536C190.839 189.52 190.536 185.371 188.956 181.795C186.814 176.94 183.095 175.131 178.616 175.694C173.346 176.34 168.115 174.45 162.84 175.065Z" fill="#E3E8F4"/>
<path d="M207.307 123.614C209.566 126.092 211.195 129.22 212.691 132.372C217.759 143.047 221.642 154.413 224.249 166.204C224.505 167.363 224.759 168.553 225.358 169.529C226.23 170.946 227.71 171.728 228.661 173.065C229.802 174.692 230.023 176.984 229.647 179.031C229.271 181.079 228.374 182.947 227.467 184.759C224.985 189.714 222.056 194.829 217.497 197.094C215.59 198.036 213.506 198.425 211.443 198.736C203.696 199.911 195.867 200.202 188.071 199.606C189.433 197.784 189.564 195.096 189.081 192.757C188.599 190.418 187.594 188.273 186.902 186.009C186.357 184.241 185.972 182.357 185.016 180.837C184.311 179.794 183.442 178.913 182.455 178.24C180.211 176.599 177.687 175.532 175.055 175.113C177.008 173.354 179.539 172.77 181.921 171.972C184.302 171.175 186.793 169.95 188.041 167.482C188.79 166.003 188.997 164.248 189.098 162.54C189.402 157.399 188.881 152.239 187.561 147.316C186.684 144.041 185.441 140.618 186.199 137.309C186.586 135.638 187.455 134.168 188.308 132.762C189.97 129.998 191.692 127.169 194.117 125.304C196.209 123.693 198.697 122.936 201.187 122.735C203.054 122.594 205.89 122.073 207.307 123.614Z" fill="#FBBC04"/>
<path d="M109.258 219.859C109.236 223.137 101.501 226.767 92.5503 226.767C83.5996 226.767 76.1284 223.147 76.0085 219.859C75.5916 208.457 83.5968 214.876 92.5503 214.876C101.504 214.876 109.34 206.733 109.258 219.859Z" fill="#3F3D56"/>
<path opacity="0.2" d="M109.258 219.859C109.236 223.137 101.501 226.767 92.5503 226.767C83.5996 226.767 76.1284 223.147 76.0085 219.859C75.5916 208.457 83.5968 214.876 92.5503 214.876C101.504 214.876 109.34 206.733 109.258 219.859Z" fill="black"/>
<path d="M108.76 214.876C108.76 218.158 101.501 221.784 92.5504 221.784C83.5997 221.784 76.3411 218.167 76.3411 214.876C76.3411 211.585 83.597 209.896 92.5504 209.896C101.504 209.896 108.76 211.598 108.76 214.876Z" fill="#3F3D56"/>
<path opacity="0.1" d="M108.76 214.876C108.76 218.158 101.501 221.784 92.5504 221.784C83.5997 221.784 76.3411 218.167 76.3411 214.876C76.3411 211.585 83.597 209.896 92.5504 209.896C101.504 209.896 108.76 211.598 108.76 214.876Z" fill="white"/>
<path d="M105.599 213.582C105.583 216.142 99.5502 218.961 92.5667 218.961C85.5833 218.961 79.7606 216.135 79.6625 213.582C79.3382 204.69 85.5833 209.695 92.5667 209.695C99.5502 209.695 105.664 203.346 105.599 213.582Z" fill="#3F3D56"/>
<path opacity="0.2" d="M105.599 213.582C105.583 216.142 99.5502 218.961 92.5667 218.961C85.5833 218.961 79.7606 216.135 79.6625 213.582C79.3382 204.69 85.5833 209.695 92.5667 209.695C99.5502 209.695 105.664 203.346 105.599 213.582Z" fill="black"/>
<path d="M105.209 209.064C105.209 211.924 99.5502 215.077 92.5668 215.077C85.5833 215.077 79.9214 211.937 79.9214 209.064C79.9214 206.191 85.5833 204.724 92.5668 204.724C99.5502 204.724 105.209 206.2 105.209 209.064Z" fill="#3F3D56"/>
<path opacity="0.1" d="M105.209 209.064C105.209 211.924 99.5502 215.077 92.5668 215.077C85.5833 215.077 79.9214 211.937 79.9214 209.064C79.9214 206.191 85.5833 204.724 92.5668 204.724C99.5502 204.724 105.209 206.2 105.209 209.064Z" fill="white"/>
<path d="M62.2653 228.03C62.2653 228.03 64.6576 224.99 65.069 221.574C65.4804 218.157 53.38 212.91 53.38 212.91C53.38 212.91 49.1839 215.736 49.0422 218.383C49.0422 218.383 57.0747 228.331 62.2653 228.03Z" fill="#3F3D56"/>
<path opacity="0.2" d="M62.2653 228.03C62.2653 228.03 64.6576 224.99 65.069 221.574C65.4804 218.157 53.38 212.91 53.38 212.91C53.38 212.91 49.1839 215.736 49.0422 218.383C49.0422 218.383 57.0747 228.331 62.2653 228.03Z" fill="black"/>
<path d="M62.1558 228.168C62.9038 226.732 60.4999 223.485 56.7864 220.917C53.073 218.349 49.4562 217.431 48.7082 218.867C47.9602 220.304 50.3641 223.55 54.0775 226.119C57.791 228.687 61.4077 229.605 62.1558 228.168Z" fill="#3F3D56"/>
<path opacity="0.1" d="M62.1558 228.168C62.9038 226.732 60.4999 223.485 56.7864 220.917C53.073 218.349 49.4562 217.431 48.7082 218.867C47.9602 220.304 50.3641 223.55 54.0775 226.119C57.791 228.687 61.4077 229.605 62.1558 228.168Z" fill="white"/>
<path d="M65.2379 220.528L72.1205 207.305L65.1208 200.453L59.6632 199.276L57.9602 202.815L53.1702 213.058L65.2379 220.528Z" fill="#3F3D56"/>
<path opacity="0.1" d="M65.2379 220.528L72.1205 207.305L65.1208 200.453L59.6632 199.276L57.9602 202.815L53.1702 213.058L65.2379 220.528Z" fill="white"/>
<path d="M72.213 208.608C72.213 208.608 76.8613 202.915 75.6679 199.838C74.4745 196.761 68.1722 190.593 64.1587 191.532C60.1452 192.471 59.5022 199.292 59.5022 199.292L72.213 208.608Z" fill="#3F3D56"/>
<path opacity="0.2" d="M72.213 208.608C72.213 208.608 76.8613 202.915 75.6679 199.838C74.4745 196.761 68.1722 190.593 64.1587 191.532C60.1452 192.471 59.5022 199.292 59.5022 199.292L72.213 208.608Z" fill="black"/>
<path d="M19.3401 183.591L54.9439 208.549C54.9439 208.549 58.328 208.043 57.9602 202.821L22.697 177.593C21.9792 177.079 21.1288 176.868 20.2911 176.997C19.3265 177.147 18.1849 177.552 17.8143 178.611C17.7196 178.88 17.6537 179.161 17.6181 179.449C17.5186 180.258 17.6289 181.083 17.9354 181.82C18.2418 182.557 18.7306 183.173 19.3401 183.591Z" fill="#3F3D56"/>
<path opacity="0.2" d="M19.3401 183.591L54.9439 208.549C54.9439 208.549 58.328 208.043 57.9602 202.821L22.697 177.593C21.9792 177.079 21.1288 176.868 20.2911 176.997C19.3265 177.147 18.1849 177.552 17.8143 178.611C17.7196 178.88 17.6537 179.161 17.6181 179.449C17.5186 180.258 17.6289 181.083 17.9354 181.82C18.2418 182.557 18.7306 183.173 19.3401 183.591Z" fill="black"/>
<path d="M65.2324 222.391C65.4183 222.378 65.596 222.298 65.7396 222.161C65.8832 222.025 65.9852 221.839 66.0307 221.631C66.2051 220.924 65.8863 220.246 65.5512 219.681C64.9527 218.672 64.2058 217.792 63.3442 217.081C61.8946 215.872 60.4887 214.509 58.8484 213.626C57.8988 213.139 56.9043 212.778 55.8839 212.549C55.1191 212.347 54.3363 212.248 53.5516 212.254C53.4123 212.259 53.2775 212.312 53.165 212.407C53.0526 212.501 52.9678 212.633 52.922 212.785C52.8762 212.937 52.8715 213.101 52.9085 213.255C52.9455 213.41 53.0225 213.548 53.1292 213.652C53.492 213.929 53.8969 214.125 54.3227 214.229C56.4452 214.948 58.4097 216.195 60.2489 217.611C61.2395 218.346 62.1673 219.187 63.0199 220.123C63.5867 220.77 64.3115 222.416 65.2324 222.391Z" fill="#3F3D56"/>
<path opacity="0.2" d="M65.2324 222.391C65.4183 222.378 65.596 222.298 65.7396 222.161C65.8832 222.025 65.9852 221.839 66.0307 221.631C66.2051 220.924 65.8863 220.246 65.5512 219.681C64.9527 218.672 64.2058 217.792 63.3442 217.081C61.8946 215.872 60.4887 214.509 58.8484 213.626C57.8988 213.139 56.9043 212.778 55.8839 212.549C55.1191 212.347 54.3363 212.248 53.5516 212.254C53.4123 212.259 53.2775 212.312 53.165 212.407C53.0526 212.501 52.9678 212.633 52.922 212.785C52.8762 212.937 52.8715 213.101 52.9085 213.255C52.9455 213.41 53.0225 213.548 53.1292 213.652C53.492 213.929 53.8969 214.125 54.3227 214.229C56.4452 214.948 58.4097 216.195 60.2489 217.611C61.2395 218.346 62.1673 219.187 63.0199 220.123C63.5867 220.77 64.3115 222.416 65.2324 222.391Z" fill="black"/>
<path d="M70.916 209.619C70.916 209.619 74.4091 209.717 71.5182 205.669C68.6273 201.622 63.4558 197.605 59.7747 198.513C59.7747 198.513 58.2489 199.97 59.5676 200.221C60.8183 200.46 66.6519 201.791 69.333 205.537C69.6264 205.944 69.9541 206.316 70.3112 206.649C70.9406 207.239 71.788 208.357 70.916 209.619Z" fill="#3F3D56"/>
<path opacity="0.2" d="M70.916 209.619C70.916 209.619 74.4091 209.717 71.5182 205.669C68.6273 201.622 63.4558 197.605 59.7747 198.513C59.7747 198.513 58.2489 199.97 59.5676 200.221C60.8183 200.46 66.6519 201.791 69.333 205.537C69.6264 205.944 69.9541 206.316 70.3112 206.649C70.9406 207.239 71.788 208.357 70.916 209.619Z" fill="black"/>
<path d="M76.6104 200.701C77.3584 199.264 74.9545 196.018 71.241 193.449C67.5276 190.881 63.9108 189.963 63.1628 191.4C62.4148 192.836 64.8187 196.083 68.5321 198.651C72.2456 201.219 75.8623 202.137 76.6104 200.701Z" fill="#3F3D56"/>
<path opacity="0.1" d="M76.6104 200.701C77.3584 199.264 74.9545 196.018 71.241 193.449C67.5276 190.881 63.9108 189.963 63.1628 191.4C62.4148 192.836 64.8187 196.083 68.5321 198.651C72.2456 201.219 75.8623 202.137 76.6104 200.701Z" fill="white"/>
<path d="M53.5514 199.662C53.5042 200.393 53.3022 201.101 52.963 201.721C52.6239 202.342 52.158 202.858 51.606 203.223C49.7777 204.347 47.211 203.345 46.35 201.172C45.9031 200.042 45.895 198.773 45.8051 197.527C45.7758 197.12 45.7285 196.716 45.6634 196.315C45.3909 194.697 44.2302 192.98 42.8269 193.3C41.6689 193.561 41.0586 195.058 40.9196 196.409C40.8838 196.78 40.8656 197.153 40.8651 197.527C40.8651 197.916 40.8788 198.305 40.8978 198.695C40.936 199.492 40.9959 200.293 40.9932 201.091C40.9932 202.661 40.6989 204.328 39.7153 205.405C38.5219 206.715 36.6909 206.774 35.0397 206.752C31.0099 206.705 26.525 206.438 23.4924 203.581C23.1191 203.234 22.7727 202.851 22.457 202.435C21.8644 201.649 21.3834 200.759 21.032 199.8C20.7618 199.067 20.5547 198.306 20.4135 197.527C19.9612 195.093 20.062 192.44 20.4325 189.971C20.6723 188.357 21.1355 186.59 22.16 185.56C22.404 185.314 22.6798 185.114 22.9774 184.966C23.4679 184.727 24.0237 184.652 24.4515 184.278C24.8793 183.905 25.1572 183.226 25.6095 182.818C26.5168 181.999 27.8955 182.35 28.9582 182.074H29.0045L29.0617 182.055C30.2088 181.741 31.2687 181.019 32.3504 180.485C32.8163 180.256 33.2823 180.036 33.7509 179.841C34.9178 179.304 36.1774 179.089 37.4293 179.213C41.5164 179.75 46.4208 182.608 49.2191 186.037C49.9085 186.826 50.4452 187.774 50.794 188.819C51.0227 189.695 51.1491 190.602 51.17 191.516C51.2436 192.807 51.3035 194.094 51.8594 195.197C52.1972 195.862 52.6931 196.406 53.0446 197.081C53.1256 197.232 53.1967 197.391 53.2571 197.555C53.5069 198.218 53.6081 198.942 53.5514 199.662Z" fill="#BE6F72"/>
<path d="M44.5626 184.162C46.2274 185.155 47.8649 186.276 49.1728 187.821C50.4807 189.366 51.4452 191.391 51.5215 193.551C52.6646 191.958 53.6455 190.218 54.4451 188.367C55.0772 186.907 55.5977 185.18 55.0364 183.679C54.7682 183.043 54.3909 182.477 53.9274 182.015C51.4752 179.339 48.1783 177.86 44.8432 177.254C41.2384 176.598 34.037 175.166 33.4839 181.214C37.5219 180.994 40.955 182.021 44.5626 184.162Z" fill="#E3E8F4"/>
<path d="M89.2261 106.833C86.5586 108.162 83.4361 107.223 80.616 108.027C78.5343 108.62 76.7442 110.124 75.0549 111.647C71.6871 114.681 68.3684 118.072 66.5674 122.54C65.9788 124.004 65.5592 125.558 64.8535 126.937C63.7119 129.185 61.8891 130.859 59.9899 132.275C55.1372 135.88 49.5025 138.134 45.1838 142.549C43.3365 144.433 41.7807 146.669 40.3338 148.971C38.6336 151.671 37.007 154.686 36.9743 158.021C36.9743 159.327 37.1977 160.652 36.9743 161.936C36.4947 164.81 33.9771 166.593 32.8409 169.212C31.751 171.709 32.0098 174.792 30.7973 177.204C30.0017 178.774 28.5603 180.344 29.0154 182.077C32.3559 179.185 36.3721 177.995 40.4592 178.937C42.5054 179.405 44.4155 180.457 46.2465 181.609C48.369 182.947 50.4616 184.467 51.9956 186.634C53.5296 188.8 54.4479 191.683 53.9029 194.399C56.1127 193.143 57.4205 190.461 58.3279 187.824C59.2352 185.186 59.9273 182.369 61.434 180.137C62.2106 178.984 63.1751 178.027 64.0933 177.025C69.1913 171.457 72.8669 164.423 76.4745 157.481C80.1946 150.325 83.9129 143.166 87.6294 136.002C88.6594 134.014 89.6948 132.014 90.4386 129.866C92.9372 122.644 91.3187 114.21 89.2261 106.833Z" fill="#FBBC04"/>
<path d="M126.827 56.5035C128.734 57.3513 130.595 58.5697 132.642 58.7298C135.238 58.9308 137.691 57.4047 140.271 56.9839C144.998 56.2146 149.486 59.182 153.927 61.1979C158.368 63.2139 164.09 64.0492 167.346 60.0267C170.112 56.6071 169.73 50.9203 167.507 47.0265C165.284 43.1328 161.652 40.6144 158.06 38.4446C154.099 36.0518 149.968 33.8757 145.557 33.031C136.195 31.2442 126.683 35.7064 118.915 41.9898C116.337 44.0748 113.789 46.5084 112.558 49.8401C111.86 51.7242 111.642 54.1358 112.25 56.0984C113.247 59.3264 113.901 58.9433 115.969 58.1018C119.92 56.5003 122.255 54.4875 126.827 56.5035Z" fill="#3F3D56"/>
</svg>
