<svg width="252" height="202" viewBox="0 0 252 202" fill="none" xmlns="http://www.w3.org/2000/svg">
<g clip-path="url(#clip0)">
<path d="M251.636 200.451H0.364162C0.26758 200.451 0.174954 200.408 0.10666 200.332C0.0383667 200.257 0 200.154 0 200.047C0 199.94 0.0383667 199.837 0.10666 199.761C0.174954 199.685 0.26758 199.643 0.364162 199.643H251.636C251.732 199.643 251.825 199.685 251.893 199.761C251.962 199.837 252 199.94 252 200.047C252 200.154 251.962 200.257 251.893 200.332C251.825 200.408 251.732 200.451 251.636 200.451Z" fill="#CCCCCC"/>
<path d="M226.765 129.975H78.9154C78.2876 129.975 77.6855 130.252 77.2416 130.744C76.7977 131.237 76.5483 131.905 76.5483 132.602C76.5483 133.298 76.7977 133.966 77.2416 134.459C77.6855 134.952 78.2876 135.228 78.9154 135.228H83.1033V198.066C83.1033 198.763 83.3526 199.431 83.7965 199.923C84.2405 200.416 84.8425 200.693 85.4703 200.693C86.0981 200.693 86.7002 200.416 87.1441 199.923C87.588 199.431 87.8374 198.763 87.8374 198.066L87.8733 135.228H217.479V198.066C217.479 198.763 217.728 199.431 218.172 199.923C218.616 200.416 219.218 200.693 219.846 200.693C220.474 200.693 221.076 200.416 221.52 199.923C221.964 199.431 222.213 198.763 222.213 198.066V136.613L222.902 135.228H226.765C227.393 135.228 227.995 134.952 228.439 134.459C228.883 133.966 229.132 133.298 229.132 132.602C229.132 131.905 228.883 131.237 228.439 130.744C227.995 130.252 227.393 129.975 226.765 129.975Z" fill="#E37400"/>
<path d="M160.885 131.35H116.099C115.232 131.349 114.401 130.966 113.788 130.286C113.175 129.605 112.83 128.683 112.829 127.72V100.359C112.83 99.3968 113.175 98.4742 113.788 97.7938C114.401 97.1133 115.232 96.7306 116.099 96.7295H160.885C161.752 96.7306 162.583 97.1133 163.196 97.7938C163.81 98.4742 164.155 99.3968 164.156 100.359V127.72C164.155 128.683 163.81 129.605 163.196 130.286C162.583 130.966 161.752 131.349 160.885 131.35Z" fill="#3F3D56"/>
<path d="M160.884 99.5229H116.099C115.9 99.5234 115.708 99.6117 115.567 99.7685C115.426 99.9252 115.346 100.138 115.346 100.359V127.721C115.346 127.943 115.426 128.155 115.567 128.312C115.708 128.469 115.9 128.557 116.099 128.558H160.884C161.084 128.557 161.276 128.469 161.417 128.312C161.558 128.155 161.638 127.943 161.638 127.721V100.359C161.638 100.138 161.558 99.9252 161.417 99.7685C161.276 99.6117 161.084 99.5234 160.884 99.5229Z" fill="white"/>
<path d="M142.312 118.895C142.312 118.895 136.95 117.524 134.002 120.037C131.053 122.55 137.755 128.262 137.755 128.262L142.312 118.895Z" fill="#2F2E41"/>
<path d="M138.754 116.305C141.547 116.305 143.812 113.792 143.812 110.693C143.812 107.594 141.547 105.081 138.754 105.081C135.961 105.081 133.697 107.594 133.697 110.693C133.697 113.792 135.961 116.305 138.754 116.305Z" fill="#A0616A"/>
<path d="M134.844 102.815C135.181 102.18 135.67 101.661 136.257 101.314C136.843 100.968 137.504 100.808 138.167 100.853C138.861 100.95 139.538 101.16 140.176 101.477L143.482 102.908C144.337 103.278 145.274 103.732 145.646 104.664C145.99 105.529 145.733 106.528 145.473 107.428L144.236 111.709C144.099 110.74 143.864 109.792 143.535 108.881C143.201 107.965 142.597 107.201 141.822 106.714C140.963 106.225 139.951 106.235 138.987 106.287C137.622 106.359 136.137 106.552 135.167 107.621C134.652 108.228 134.303 108.984 134.16 109.803C134.02 110.617 133.949 111.444 133.949 112.272C133.389 111.204 132.918 110.082 132.54 108.92C132.23 108.055 132.053 107.137 132.017 106.207C131.984 105.268 132.265 104.349 132.805 103.626C133.079 103.272 133.437 103.011 133.838 102.871C134.239 102.731 134.667 102.718 135.074 102.833L134.844 102.815Z" fill="#2F2E41"/>
<path d="M150.829 123.761C150.782 123.571 150.685 123.402 150.551 123.273C150.417 123.144 150.252 123.062 150.076 123.038C150.064 123.029 150.052 123.02 150.039 123.013L142.49 118.318C142.274 118.184 142.02 118.148 141.781 118.216C141.542 118.284 141.335 118.452 141.205 118.685L139.14 122.395L136.03 118.944L135.981 118.889C135.821 118.712 135.61 118.603 135.385 118.581C135.161 118.559 134.936 118.626 134.751 118.77L128.546 123.591C128.536 123.591 128.525 123.595 128.514 123.595C128.217 123.65 127.946 123.816 127.745 124.065C127.544 124.314 127.426 124.631 127.41 124.965L127.25 128.558H152.028L150.829 123.761Z" fill="#EA4335"/>
<path d="M164.659 128H159.878C159.878 127.851 159.825 127.709 159.731 127.605C159.636 127.5 159.508 127.441 159.375 127.441H157.865C157.732 127.441 157.604 127.5 157.509 127.605C157.415 127.709 157.362 127.851 157.362 128H155.852C155.852 127.851 155.799 127.709 155.705 127.605C155.611 127.5 155.483 127.441 155.349 127.441H153.84C153.706 127.441 153.578 127.5 153.484 127.605C153.389 127.709 153.336 127.851 153.336 128H151.827C151.827 127.851 151.774 127.709 151.679 127.605C151.585 127.5 151.457 127.441 151.324 127.441H149.814C149.68 127.441 149.553 127.5 149.458 127.605C149.364 127.709 149.311 127.851 149.311 128H147.801C147.801 127.851 147.748 127.709 147.654 127.605C147.559 127.5 147.431 127.441 147.298 127.441H145.788C145.655 127.441 145.527 127.5 145.432 127.605C145.338 127.709 145.285 127.851 145.285 128H143.775C143.775 127.851 143.722 127.709 143.628 127.605C143.534 127.5 143.406 127.441 143.272 127.441H141.763C141.629 127.441 141.501 127.5 141.407 127.605C141.312 127.709 141.259 127.851 141.259 128H139.75C139.75 127.851 139.697 127.709 139.602 127.605C139.508 127.5 139.38 127.441 139.247 127.441H137.737C137.604 127.441 137.476 127.5 137.381 127.605C137.287 127.709 137.234 127.851 137.234 128H135.724C135.724 127.851 135.671 127.709 135.577 127.605C135.482 127.5 135.354 127.441 135.221 127.441H133.711C133.578 127.441 133.45 127.5 133.356 127.605C133.261 127.709 133.208 127.851 133.208 128H131.699C131.699 127.851 131.646 127.709 131.551 127.605C131.457 127.5 131.329 127.441 131.195 127.441H129.686C129.552 127.441 129.424 127.5 129.33 127.605C129.236 127.709 129.183 127.851 129.183 128H127.673C127.673 127.851 127.62 127.709 127.526 127.605C127.431 127.5 127.303 127.441 127.17 127.441H125.66C125.527 127.441 125.399 127.5 125.304 127.605C125.21 127.709 125.157 127.851 125.157 128H123.647C123.647 127.851 123.594 127.709 123.5 127.605C123.406 127.5 123.278 127.441 123.144 127.441H121.634C121.501 127.441 121.373 127.5 121.279 127.605C121.184 127.709 121.131 127.851 121.131 128H119.622C119.622 127.851 119.569 127.709 119.474 127.605C119.38 127.5 119.252 127.441 119.118 127.441H117.609C117.475 127.441 117.347 127.5 117.253 127.605C117.159 127.709 117.106 127.851 117.106 128H112.325C111.925 128 111.542 128.177 111.259 128.491C110.977 128.805 110.818 129.231 110.818 129.675C110.818 130.119 110.977 130.544 111.259 130.858C111.542 131.172 111.925 131.349 112.325 131.35H164.659C165.059 131.35 165.443 131.173 165.726 130.859C166.009 130.545 166.168 130.119 166.168 129.675C166.168 129.23 166.009 128.804 165.726 128.49C165.443 128.176 165.059 128 164.659 128Z" fill="#3F3D56"/>
<path d="M104.543 118.271V129.394H79.4301C78.7572 129.42 78.0866 129.296 77.458 129.028C76.8295 128.76 76.256 128.355 75.7718 127.836C75.2875 127.317 74.9024 126.695 74.6393 126.007C74.3763 125.319 74.2407 124.58 74.2407 123.833C74.2407 123.086 74.3763 122.346 74.6393 121.659C74.9024 120.971 75.2875 120.349 75.7718 119.83C76.256 119.311 76.8295 118.905 77.458 118.638C78.0866 118.37 78.7572 118.245 79.4301 118.271H104.543Z" fill="#F2F2F2"/>
<path d="M105.16 129.309C105.16 129.422 105.119 129.531 105.047 129.611C104.975 129.692 104.877 129.737 104.775 129.737H78.9825C77.5816 129.737 76.2382 129.119 75.2477 128.02C74.2572 126.921 73.7007 125.43 73.7007 123.876C73.7007 122.321 74.2572 120.83 75.2477 119.731C76.2382 118.632 77.5816 118.015 78.9825 118.015H104.775C104.877 118.015 104.975 118.06 105.047 118.14C105.119 118.22 105.16 118.329 105.16 118.442C105.16 118.556 105.119 118.665 105.047 118.745C104.975 118.825 104.877 118.87 104.775 118.87H78.9825C77.7868 118.871 76.6406 119.399 75.7955 120.338C74.9505 121.276 74.4758 122.549 74.4758 123.876C74.4758 125.202 74.9505 126.475 75.7955 127.413C76.6406 128.352 77.7868 128.88 78.9825 128.881H104.775C104.877 128.881 104.975 128.926 105.047 129.006C105.119 129.087 105.16 129.195 105.16 129.309Z" fill="#6C63FF"/>
<path d="M104.543 120.838H77.5562C77.546 120.838 77.5359 120.836 77.5265 120.832C77.5171 120.828 77.5085 120.821 77.5013 120.813C77.4941 120.805 77.4883 120.796 77.4844 120.785C77.4805 120.775 77.4785 120.764 77.4785 120.753C77.4785 120.741 77.4805 120.73 77.4844 120.72C77.4883 120.709 77.4941 120.7 77.5013 120.692C77.5085 120.684 77.5171 120.678 77.5265 120.673C77.5359 120.669 77.546 120.667 77.5562 120.667H104.543C104.564 120.667 104.583 120.676 104.598 120.692C104.612 120.708 104.62 120.73 104.62 120.753C104.62 120.775 104.612 120.797 104.598 120.813C104.583 120.829 104.564 120.838 104.543 120.838Z" fill="#CCCCCC"/>
<path d="M104.543 122.892H77.5562C77.546 122.892 77.5359 122.889 77.5265 122.885C77.5171 122.881 77.5085 122.875 77.5013 122.867C77.4941 122.859 77.4883 122.849 77.4844 122.839C77.4805 122.828 77.4785 122.817 77.4785 122.806C77.4785 122.795 77.4805 122.784 77.4844 122.773C77.4883 122.763 77.4941 122.753 77.5013 122.745C77.5085 122.737 77.5171 122.731 77.5265 122.727C77.5359 122.723 77.546 122.72 77.5562 122.72H104.543C104.564 122.721 104.583 122.73 104.598 122.746C104.612 122.762 104.62 122.783 104.62 122.806C104.62 122.829 104.612 122.85 104.598 122.866C104.583 122.882 104.564 122.891 104.543 122.892Z" fill="#CCCCCC"/>
<path d="M104.543 124.945H77.5562C77.546 124.945 77.5359 124.943 77.5265 124.939C77.5171 124.934 77.5085 124.928 77.5013 124.92C77.4941 124.912 77.4883 124.903 77.4844 124.892C77.4805 124.882 77.4785 124.871 77.4785 124.859C77.4785 124.848 77.4805 124.837 77.4844 124.827C77.4883 124.816 77.4941 124.807 77.5013 124.799C77.5085 124.791 77.5171 124.785 77.5265 124.78C77.5359 124.776 77.546 124.774 77.5562 124.774H104.543C104.564 124.774 104.583 124.783 104.598 124.799C104.612 124.815 104.62 124.837 104.62 124.859C104.62 124.882 104.612 124.904 104.598 124.92C104.583 124.936 104.564 124.945 104.543 124.945Z" fill="#CCCCCC"/>
<path d="M104.543 126.999H77.5562C77.546 126.999 77.5359 126.996 77.5265 126.992C77.5171 126.988 77.5085 126.982 77.5013 126.974C77.4941 126.966 77.4883 126.956 77.4844 126.946C77.4805 126.935 77.4785 126.924 77.4785 126.913C77.4785 126.902 77.4805 126.89 77.4844 126.88C77.4883 126.87 77.4941 126.86 77.5013 126.852C77.5085 126.844 77.5171 126.838 77.5265 126.834C77.5359 126.829 77.546 126.827 77.5562 126.827H104.543C104.564 126.828 104.583 126.837 104.598 126.853C104.612 126.869 104.62 126.89 104.62 126.913C104.62 126.936 104.612 126.957 104.598 126.973C104.583 126.989 104.564 126.998 104.543 126.999Z" fill="#CCCCCC"/>
<path d="M99.8091 106.552V117.676H74.6957C74.0229 117.702 73.3522 117.577 72.7237 117.309C72.0952 117.041 71.5217 116.636 71.0374 116.117C70.5531 115.598 70.168 114.976 69.9049 114.288C69.6419 113.601 69.5063 112.861 69.5063 112.114C69.5063 111.367 69.6419 110.627 69.9049 109.94C70.168 109.252 70.5531 108.63 71.0374 108.111C71.5217 107.592 72.0952 107.187 72.7237 106.919C73.3522 106.651 74.0229 106.526 74.6957 106.552H99.8091Z" fill="#F2F2F2"/>
<path d="M100.426 117.59C100.426 117.703 100.386 117.812 100.313 117.892C100.241 117.973 100.143 118.018 100.041 118.018H74.2486C73.555 118.018 72.8681 117.866 72.2273 117.572C71.5865 117.277 71.0043 116.845 70.5138 116.301C70.0233 115.757 69.6343 115.111 69.3688 114.4C69.1034 113.689 68.9668 112.926 68.9668 112.157C68.9668 111.387 69.1034 110.625 69.3688 109.914C69.6343 109.203 70.0233 108.557 70.5138 108.012C71.0043 107.468 71.5865 107.036 72.2273 106.742C72.8681 106.447 73.555 106.296 74.2486 106.296H100.041C100.143 106.296 100.241 106.341 100.313 106.421C100.386 106.501 100.426 106.61 100.426 106.723C100.426 106.837 100.386 106.946 100.313 107.026C100.241 107.106 100.143 107.151 100.041 107.151H74.2486C73.053 107.152 71.9067 107.68 71.0616 108.619C70.2166 109.557 69.7419 110.83 69.7419 112.157C69.7419 113.483 70.2166 114.756 71.0616 115.694C71.9067 116.633 73.053 117.161 74.2486 117.162H100.041C100.143 117.162 100.241 117.207 100.313 117.287C100.385 117.368 100.426 117.476 100.426 117.59Z" fill="#EA4335"/>
<path d="M99.809 109.119H72.8218C72.8116 109.119 72.8015 109.117 72.7921 109.113C72.7827 109.109 72.7741 109.102 72.7669 109.094C72.7597 109.086 72.754 109.077 72.7501 109.066C72.7462 109.056 72.7441 109.045 72.7441 109.034C72.7441 109.022 72.7462 109.011 72.7501 109.001C72.754 108.99 72.7597 108.981 72.7669 108.973C72.7741 108.965 72.7827 108.959 72.7921 108.954C72.8015 108.95 72.8116 108.948 72.8218 108.948H99.809C99.8293 108.948 99.8488 108.957 99.8632 108.973C99.8775 108.989 99.8856 109.011 99.8856 109.034C99.8856 109.056 99.8775 109.078 99.8632 109.094C99.8488 109.11 99.8293 109.119 99.809 109.119Z" fill="#CCCCCC"/>
<path d="M99.809 111.173H72.8218C72.8116 111.173 72.8015 111.171 72.7921 111.166C72.7827 111.162 72.7741 111.156 72.7669 111.148C72.7597 111.14 72.754 111.131 72.7501 111.12C72.7462 111.11 72.7441 111.099 72.7441 111.087C72.7441 111.076 72.7462 111.065 72.7501 111.054C72.754 111.044 72.7597 111.035 72.7669 111.027C72.7741 111.019 72.7827 111.012 72.7921 111.008C72.8015 111.004 72.8116 111.002 72.8218 111.002H99.809C99.8293 111.002 99.8488 111.011 99.8632 111.027C99.8775 111.043 99.8856 111.065 99.8856 111.087C99.8856 111.11 99.8775 111.132 99.8632 111.148C99.8488 111.164 99.8293 111.173 99.809 111.173Z" fill="#CCCCCC"/>
<path d="M99.809 113.226H72.8218C72.8116 113.226 72.8015 113.224 72.7921 113.22C72.7827 113.216 72.7741 113.209 72.7669 113.201C72.7597 113.193 72.754 113.184 72.7501 113.174C72.7462 113.163 72.7441 113.152 72.7441 113.141C72.7441 113.129 72.7462 113.118 72.7501 113.108C72.754 113.097 72.7597 113.088 72.7669 113.08C72.7741 113.072 72.7827 113.066 72.7921 113.062C72.8015 113.057 72.8116 113.055 72.8218 113.055H99.809C99.8293 113.055 99.8488 113.064 99.8632 113.08C99.8775 113.096 99.8856 113.118 99.8856 113.141C99.8856 113.163 99.8775 113.185 99.8632 113.201C99.8488 113.217 99.8293 113.226 99.809 113.226Z" fill="#CCCCCC"/>
<path d="M99.809 115.28H72.8218C72.8116 115.28 72.8015 115.278 72.7921 115.273C72.7827 115.269 72.7741 115.263 72.7669 115.255C72.7597 115.247 72.754 115.238 72.7501 115.227C72.7462 115.217 72.7441 115.205 72.7441 115.194C72.7441 115.183 72.7462 115.172 72.7501 115.161C72.754 115.151 72.7597 115.141 72.7669 115.133C72.7741 115.126 72.7827 115.119 72.7921 115.115C72.8015 115.111 72.8116 115.109 72.8218 115.109H99.809C99.8293 115.109 99.8488 115.118 99.8632 115.134C99.8775 115.15 99.8856 115.172 99.8856 115.194C99.8856 115.217 99.8775 115.238 99.8632 115.254C99.8488 115.271 99.8293 115.28 99.809 115.28Z" fill="#CCCCCC"/>
<path d="M129.024 168.931V159.233C129.024 158.804 128.87 158.393 128.597 158.09C128.324 157.787 127.953 157.616 127.567 157.616H94.4283C94.042 157.616 93.6715 157.787 93.3983 158.09C93.1251 158.393 92.9717 158.804 92.9717 159.233V168.931H129.024Z" fill="#E37400"/>
<path d="M129.024 172.568H92.9717V185.095H129.024V172.568Z" fill="#E37400"/>
<path d="M92.9717 188.732V198.43C92.9717 198.859 93.1251 199.27 93.3983 199.573C93.6715 199.876 94.042 200.047 94.4283 200.047H127.567C127.953 200.047 128.324 199.876 128.597 199.573C128.87 199.27 129.024 198.859 129.024 198.43V188.732H92.9717Z" fill="#E37400"/>
<path d="M110.816 164.89C111.419 164.89 111.908 164.347 111.908 163.678C111.908 163.008 111.419 162.466 110.816 162.466C110.212 162.466 109.723 163.008 109.723 163.678C109.723 164.347 110.212 164.89 110.816 164.89Z" fill="white"/>
<path d="M110.816 181.054C111.419 181.054 111.908 180.511 111.908 179.842C111.908 179.172 111.419 178.629 110.816 178.629C110.212 178.629 109.723 179.172 109.723 179.842C109.723 180.511 110.212 181.054 110.816 181.054Z" fill="white"/>
<path d="M110.874 196.876C111.478 196.876 111.967 196.333 111.967 195.663C111.967 194.994 111.478 194.451 110.874 194.451C110.271 194.451 109.782 194.994 109.782 195.663C109.782 196.333 110.271 196.876 110.874 196.876Z" fill="white"/>
<path d="M124.936 146.558V157.681H99.8227C99.1498 157.707 98.4791 157.583 97.8506 157.315C97.2221 157.047 96.6486 156.641 96.1643 156.122C95.6801 155.603 95.295 154.982 95.0319 154.294C94.7689 153.606 94.6333 152.867 94.6333 152.12C94.6333 151.373 94.7689 150.633 95.0319 149.945C95.295 149.258 95.6801 148.636 96.1643 148.117C96.6486 147.598 97.2221 147.192 97.8506 146.924C98.4791 146.657 99.1498 146.532 99.8227 146.558H124.936Z" fill="#F2F2F2"/>
<path d="M125.553 157.596C125.553 157.709 125.512 157.818 125.44 157.898C125.368 157.978 125.27 158.024 125.168 158.024H99.3755C98.6815 158.024 97.9942 157.873 97.3529 157.579C96.7116 157.285 96.1288 156.853 95.6379 156.309C95.147 155.764 94.7575 155.118 94.4918 154.407C94.2261 153.695 94.0894 152.933 94.0894 152.163C94.0894 151.392 94.2261 150.63 94.4918 149.919C94.7575 149.207 95.147 148.561 95.6379 148.016C96.1288 147.472 96.7116 147.041 97.3529 146.746C97.9942 146.452 98.6815 146.301 99.3755 146.302H125.168C125.27 146.302 125.368 146.347 125.44 146.427C125.512 146.507 125.553 146.616 125.553 146.729C125.553 146.843 125.512 146.952 125.44 147.032C125.368 147.112 125.27 147.157 125.168 147.157H99.3755C98.1799 147.158 97.0336 147.686 96.1886 148.625C95.3435 149.563 94.8688 150.836 94.8688 152.163C94.8688 153.489 95.3435 154.762 96.1886 155.7C97.0336 156.639 98.1799 157.167 99.3755 157.168H125.168C125.27 157.168 125.368 157.213 125.44 157.293C125.512 157.374 125.553 157.482 125.553 157.596Z" fill="#34A853"/>
<path d="M124.936 149.125H97.9492C97.939 149.125 97.929 149.123 97.9195 149.119C97.9101 149.114 97.9016 149.108 97.8943 149.1C97.8871 149.092 97.8814 149.083 97.8775 149.072C97.8736 149.062 97.8716 149.051 97.8716 149.039C97.8716 149.028 97.8736 149.017 97.8775 149.007C97.8814 148.996 97.8871 148.987 97.8943 148.979C97.9016 148.971 97.9101 148.964 97.9195 148.96C97.929 148.956 97.939 148.954 97.9492 148.954H124.936C124.957 148.954 124.976 148.963 124.991 148.979C125.005 148.995 125.013 149.017 125.013 149.039C125.013 149.062 125.005 149.084 124.991 149.1C124.976 149.116 124.957 149.125 124.936 149.125Z" fill="#CCCCCC"/>
<path d="M124.936 151.179H97.9492C97.939 151.179 97.929 151.177 97.9195 151.172C97.9101 151.168 97.9016 151.162 97.8943 151.154C97.8871 151.146 97.8814 151.136 97.8775 151.126C97.8736 151.116 97.8716 151.104 97.8716 151.093C97.8716 151.082 97.8736 151.071 97.8775 151.06C97.8814 151.05 97.8871 151.04 97.8943 151.032C97.9016 151.024 97.9101 151.018 97.9195 151.014C97.929 151.01 97.939 151.007 97.9492 151.008H124.936C124.957 151.008 124.976 151.017 124.991 151.033C125.005 151.049 125.013 151.071 125.013 151.093C125.013 151.116 125.005 151.137 124.991 151.153C124.976 151.169 124.957 151.179 124.936 151.179Z" fill="#CCCCCC"/>
<path d="M124.936 153.232H97.9492C97.939 153.232 97.929 153.23 97.9195 153.226C97.9101 153.222 97.9016 153.215 97.8943 153.207C97.8871 153.199 97.8814 153.19 97.8775 153.179C97.8736 153.169 97.8716 153.158 97.8716 153.147C97.8716 153.135 97.8736 153.124 97.8775 153.114C97.8814 153.103 97.8871 153.094 97.8943 153.086C97.9016 153.078 97.9101 153.072 97.9195 153.067C97.929 153.063 97.939 153.061 97.9492 153.061H124.936C124.957 153.061 124.976 153.07 124.991 153.086C125.005 153.102 125.013 153.124 125.013 153.147C125.013 153.169 125.005 153.191 124.991 153.207C124.976 153.223 124.957 153.232 124.936 153.232Z" fill="#CCCCCC"/>
<path d="M124.936 155.286H97.9492C97.939 155.286 97.929 155.284 97.9195 155.279C97.9101 155.275 97.9016 155.269 97.8943 155.261C97.8871 155.253 97.8814 155.243 97.8775 155.233C97.8736 155.223 97.8716 155.211 97.8716 155.2C97.8716 155.189 97.8736 155.178 97.8775 155.167C97.8814 155.157 97.8871 155.147 97.8943 155.139C97.9016 155.131 97.9101 155.125 97.9195 155.121C97.929 155.117 97.939 155.114 97.9492 155.115H124.936C124.957 155.115 124.976 155.124 124.991 155.14C125.005 155.156 125.013 155.177 125.013 155.2C125.013 155.223 125.005 155.244 124.991 155.26C124.976 155.276 124.957 155.285 124.936 155.286Z" fill="#CCCCCC"/>
<path d="M91.0806 73.9589V3.03941C91.0814 2.23359 91.3702 1.46104 91.8837 0.891238C92.3972 0.321437 93.0934 0.000916594 93.8196 0H144.339C145.065 0.000921931 145.762 0.321444 146.275 0.891244C146.789 1.46104 147.077 2.23359 147.078 3.03941V73.9589C147.077 74.7647 146.789 75.5373 146.275 76.1071C145.762 76.6769 145.065 76.9974 144.339 76.9983H93.8196C93.0934 76.9974 92.3972 76.6769 91.8837 76.1071C91.3702 75.5373 91.0814 74.7647 91.0806 73.9589ZM93.8196 0.675425C93.2548 0.676127 92.7133 0.925416 92.3139 1.3686C91.9145 1.81178 91.6899 2.41266 91.6892 3.03941V73.9589C91.6899 74.5856 91.9145 75.1865 92.3139 75.6297C92.7133 76.0729 93.2548 76.3222 93.8196 76.3229H144.339C144.904 76.3222 145.446 76.0729 145.845 75.6297C146.244 75.1865 146.469 74.5856 146.47 73.9589V3.03941C146.469 2.41266 146.244 1.81178 145.845 1.3686C145.446 0.925416 144.904 0.676128 144.339 0.675425H93.8196Z" fill="#0D652D"/>
<path d="M121.913 32.5695V18.0075C121.913 17.6046 122.057 17.2183 122.314 16.9334C122.571 16.6485 122.919 16.4882 123.282 16.4878H134.403C134.766 16.4882 135.114 16.6485 135.37 16.9334C135.627 17.2183 135.772 17.6046 135.772 18.0075V32.5695C135.772 32.9724 135.627 33.3587 135.37 33.6436C135.114 33.9285 134.766 34.0888 134.403 34.0892H123.282C122.919 34.0888 122.571 33.9285 122.314 33.6436C122.057 33.3587 121.913 32.9724 121.913 32.5695Z" fill="#6C63FF"/>
<path d="M100.305 39.3239V24.7619C100.305 24.359 100.45 23.9727 100.706 23.6878C100.963 23.4029 101.311 23.2426 101.674 23.2422H112.795C113.158 23.2426 113.506 23.4029 113.763 23.6878C114.019 23.9727 114.164 24.359 114.164 24.7619V39.3239C114.164 39.7268 114.019 40.1131 113.763 40.398C113.506 40.6829 113.158 40.8431 112.795 40.8436H101.674C101.311 40.8431 100.963 40.6829 100.706 40.398C100.45 40.1131 100.305 39.7268 100.305 39.3239Z" fill="#F29900"/>
<path d="M117.652 59.9242V45.3622C117.652 44.9593 117.797 44.573 118.053 44.2881C118.31 44.0032 118.658 43.843 119.021 43.8425H130.142C130.505 43.843 130.853 44.0032 131.11 44.2881C131.366 44.573 131.511 44.9593 131.511 45.3622V59.9242C131.511 60.3271 131.366 60.7134 131.11 60.9983C130.853 61.2832 130.505 61.4435 130.142 61.4439H119.021C118.658 61.4435 118.31 61.2832 118.053 60.9983C117.797 60.7134 117.652 60.3271 117.652 59.9242Z" fill="#FF6584"/>
<path d="M184.107 126.501H172.665C172.556 126.501 172.449 126.528 172.352 126.581L169.464 128.186C169.369 128.231 169.288 128.305 169.231 128.401C169.174 128.497 169.144 128.609 169.144 128.723C169.144 128.838 169.174 128.95 169.231 129.045C169.288 129.141 169.369 129.216 169.464 129.261L172.352 130.865C172.449 130.918 172.556 130.946 172.665 130.946H184.107C184.265 130.956 184.419 130.897 184.538 130.781C184.657 130.665 184.729 130.502 184.741 130.327V127.119C184.729 126.944 184.657 126.781 184.538 126.665C184.419 126.55 184.265 126.491 184.107 126.501Z" fill="#3F3D56"/>
<path d="M184.74 127.119V130.327C184.729 130.502 184.657 130.665 184.538 130.781C184.419 130.897 184.264 130.956 184.107 130.946H181.827V126.501H184.107C184.264 126.491 184.419 126.55 184.538 126.665C184.657 126.781 184.729 126.944 184.74 127.119Z" fill="#6C63FF"/>
<path d="M184.021 102.497C184.539 102.249 185.099 102.125 185.663 102.133C186.228 102.142 186.784 102.283 187.296 102.547C187.808 102.81 188.264 103.191 188.634 103.664C189.004 104.137 189.28 104.692 189.443 105.291C189.494 105.481 189.533 105.675 189.56 105.871L205.561 114.676L209.263 111.953L213.871 117.838L208.217 122.934C207.537 123.542 206.698 123.891 205.826 123.928C204.953 123.965 204.093 123.689 203.373 123.141L187.139 110.684C187.018 110.741 186.895 110.79 186.769 110.833C186.229 111.015 185.66 111.067 185.1 110.988C184.54 110.908 184.002 110.698 183.52 110.371C183.038 110.045 182.624 109.609 182.305 109.092C181.986 108.576 181.768 107.99 181.667 107.374C181.637 107.195 181.618 107.014 181.608 106.833C181.563 105.923 181.77 105.02 182.202 104.245C182.633 103.47 183.268 102.86 184.021 102.497Z" fill="#FFB8B8"/>
<path d="M217.347 156.707H199.863C199.863 157.264 181.845 157.717 181.845 157.717C181.562 157.953 181.304 158.224 181.076 158.525C180.392 159.431 180.018 160.576 180.02 161.758V162.566C180.02 163.906 180.5 165.19 181.354 166.137C182.207 167.084 183.365 167.617 184.572 167.617H217.347C218.554 167.616 219.711 167.084 220.564 166.136C221.418 165.189 221.898 163.905 221.899 162.566V161.758C221.897 160.419 221.417 159.135 220.564 158.188C219.71 157.241 218.553 156.708 217.347 156.707Z" fill="#0D652D"/>
<path d="M198.329 201.361H203.063V167.416H198.329V201.361Z" fill="#3F3D56"/>
<path d="M184.855 201.176C184.855 201.744 192.029 201.396 200.878 201.396C209.727 201.396 216.901 201.744 216.901 201.176C216.901 200.609 209.727 196.108 200.878 196.108C192.029 196.108 184.855 200.609 184.855 201.176Z" fill="#0D652D"/>
<path d="M189.128 197.198L184.664 197.197L182.54 184.348L189.129 184.349L189.128 197.198Z" fill="#FFB8B8"/>
<path d="M190.267 202L175.872 201.999V201.797C175.872 200.981 176.017 200.172 176.298 199.418C176.58 198.664 176.992 197.978 177.513 197.401C178.033 196.824 178.651 196.366 179.331 196.053C180.01 195.741 180.739 195.58 181.475 195.58H181.475L190.267 195.58L190.267 202Z" fill="#2F2E41"/>
<path d="M182.451 189.23L173.55 167.082C172.807 165.215 172.725 163.107 173.32 161.176C173.915 159.245 175.144 157.633 176.762 156.663L196.067 145.175L204.877 144.344L213.003 143.524L213.062 143.634C213.137 143.775 214.884 147.123 213.703 150.795C212.807 153.581 210.477 155.756 206.777 157.262C198.141 160.776 188.165 163.779 184.277 164.907C184.105 164.955 183.944 165.044 183.805 165.166C183.667 165.289 183.553 165.443 183.471 165.618C183.39 165.79 183.341 165.98 183.329 166.175C183.317 166.369 183.341 166.565 183.4 166.749L191.669 187.364C191.755 187.625 191.786 187.905 191.76 188.182C191.733 188.459 191.65 188.725 191.515 188.961C191.381 189.196 191.2 189.394 190.987 189.54C190.773 189.685 190.531 189.774 190.281 189.8L184.103 190.299C184.05 190.305 183.998 190.308 183.946 190.308C183.63 190.307 183.32 190.206 183.055 190.014C182.789 189.823 182.58 189.551 182.451 189.23Z" fill="#2F2E41"/>
<path d="M191.314 197.198L186.849 197.197L184.725 184.348L191.314 184.349L191.314 197.198Z" fill="#FFB8B8"/>
<path d="M192.452 202L178.057 201.999V201.797C178.057 200.981 178.202 200.172 178.483 199.418C178.765 198.664 179.177 197.978 179.698 197.401C180.218 196.824 180.836 196.366 181.516 196.053C182.195 195.741 182.924 195.58 183.66 195.58H183.66L192.452 195.58L192.452 202Z" fill="#2F2E41"/>
<path d="M185 190.442L176.1 168.294C175.357 166.428 175.275 164.319 175.87 162.388C176.465 160.457 177.694 158.846 179.311 157.875L198.617 146.387L207.426 145.556L215.552 144.736L215.611 144.846C215.686 144.987 217.433 148.335 216.252 152.008C215.356 154.793 213.026 156.968 209.326 158.474C200.69 161.988 190.714 164.991 186.826 166.119C186.654 166.167 186.493 166.256 186.355 166.379C186.216 166.501 186.102 166.655 186.021 166.83C185.939 167.003 185.891 167.192 185.878 167.387C185.866 167.582 185.89 167.777 185.949 167.961L194.218 188.576C194.304 188.837 194.335 189.117 194.309 189.394C194.282 189.671 194.199 189.937 194.065 190.173C193.931 190.408 193.75 190.606 193.536 190.752C193.322 190.897 193.081 190.986 192.831 191.012L186.652 191.511C186.6 191.517 186.548 191.52 186.496 191.52C186.179 191.52 185.87 191.418 185.604 191.226C185.339 191.035 185.129 190.763 185 190.442Z" fill="#2F2E41"/>
<path d="M180.564 122.783C176.824 117.263 173.867 111.14 171.797 104.626C171.677 104.237 171.685 103.813 171.821 103.429C171.956 103.046 172.21 102.729 172.536 102.533L185.335 94.9236C185.542 94.7995 185.772 94.7295 186.007 94.7189C186.242 94.7084 186.476 94.7574 186.692 94.8625C186.911 94.9683 187.106 95.1282 187.261 95.3302C187.417 95.5321 187.528 95.7708 187.588 96.0279C189.078 102.304 191.878 108.103 195.762 112.956C195.922 113.153 196.039 113.389 196.104 113.644C196.17 113.9 196.182 114.168 196.14 114.429C196.099 114.687 196.007 114.93 195.868 115.142C195.73 115.353 195.55 115.527 195.343 115.649L182.544 123.259C182.217 123.453 181.838 123.511 181.475 123.424C181.113 123.337 180.79 123.11 180.564 122.783Z" fill="#CCCCCC"/>
<path d="M181.438 122.055C181.506 122.151 181.603 122.216 181.711 122.241C181.819 122.266 181.931 122.248 182.028 122.191L194.827 114.581C194.889 114.545 194.943 114.493 194.984 114.43C195.025 114.367 195.053 114.295 195.065 114.218C195.078 114.137 195.074 114.054 195.054 113.975C195.033 113.896 194.996 113.823 194.946 113.762C190.948 108.767 188.065 102.797 186.531 96.3355C186.514 96.2557 186.48 96.1815 186.432 96.1187C186.384 96.056 186.323 96.0064 186.255 95.9738C186.191 95.942 186.121 95.9271 186.051 95.9304C185.981 95.9336 185.913 95.9548 185.851 95.9924L173.053 103.602C172.956 103.66 172.88 103.754 172.839 103.868C172.798 103.981 172.794 104.107 172.827 104.223C174.861 110.62 177.764 116.634 181.438 122.055Z" fill="white"/>
<path d="M223.083 120.753L213.059 124.98L210.612 117.437C210.287 116.435 210.292 115.338 210.625 114.34C210.958 113.342 211.599 112.506 212.434 111.982C213.278 111.451 214.265 111.272 215.218 111.479C216.17 111.685 217.025 112.262 217.627 113.107L223.083 120.753Z" fill="#6C63FF"/>
<path d="M197.588 150.641C197.377 150.475 197.2 150.262 197.069 150.014C196.938 149.767 196.856 149.492 196.829 149.207C195.545 135.908 196.439 125.5 199.562 117.39C200.112 115.991 200.941 114.749 201.986 113.756C203.031 112.764 204.265 112.047 205.595 111.66L213.698 111.206L213.74 111.229C215.568 112.222 217.059 113.843 217.992 115.852C218.925 117.86 219.249 120.148 218.918 122.377C216.312 130 214.13 137.936 215.794 144.338C215.864 144.606 215.884 144.886 215.854 145.163C215.823 145.44 215.743 145.707 215.618 145.948C215.496 146.181 215.332 146.384 215.137 146.545C214.942 146.705 214.72 146.82 214.483 146.881L199.05 150.955C198.8 151.021 198.541 151.027 198.289 150.973C198.036 150.919 197.797 150.805 197.588 150.641Z" fill="#6C63FF"/>
<path d="M210.994 107.848C215.934 107.848 219.938 103.404 219.938 97.9227C219.938 92.4412 215.934 87.9976 210.994 87.9976C206.054 87.9976 202.05 92.4412 202.05 97.9227C202.05 103.404 206.054 107.848 210.994 107.848Z" fill="#FFB8B8"/>
<path d="M186.175 105.784L179.205 109.198C178.94 109.328 178.639 109.335 178.369 109.219C178.099 109.103 177.881 108.872 177.764 108.579L177.592 108.145C177.475 107.851 177.468 107.517 177.573 107.218C177.678 106.918 177.885 106.677 178.15 106.547L185.121 103.132C185.386 103.003 185.686 102.995 185.956 103.111C186.226 103.227 186.444 103.458 186.561 103.752L186.734 104.185C186.85 104.479 186.857 104.813 186.752 105.112C186.648 105.412 186.44 105.653 186.175 105.784Z" fill="#CCCCCC"/>
<path d="M188.725 111.037L181.754 114.452C181.489 114.581 181.188 114.588 180.918 114.472C180.648 114.356 180.431 114.126 180.313 113.832L180.141 113.399C180.024 113.104 180.018 112.771 180.122 112.471C180.227 112.172 180.434 111.93 180.699 111.8L187.67 108.386C187.935 108.256 188.236 108.249 188.506 108.365C188.776 108.481 188.993 108.711 189.111 109.005L189.283 109.438C189.4 109.733 189.406 110.066 189.302 110.366C189.197 110.666 188.99 110.907 188.725 111.037Z" fill="#CCCCCC"/>
<path d="M194.1 131.556L178.56 117.952C178.436 118 178.31 118.041 178.182 118.075C177.634 118.218 177.065 118.23 176.511 118.112C175.958 117.995 175.433 117.749 174.971 117.392C174.506 117.034 174.115 116.57 173.825 116.031C173.534 115.492 173.351 114.891 173.286 114.267C173.182 113.269 173.385 112.262 173.861 111.408C174.338 110.554 175.06 109.904 175.912 109.564C176.443 109.352 177.009 109.268 177.571 109.316C178.134 109.363 178.682 109.543 179.178 109.842C179.674 110.141 180.107 110.553 180.45 111.051C180.792 111.548 181.036 112.121 181.165 112.731C181.205 112.924 181.233 113.12 181.249 113.318L196.719 123.221L200.569 120.761L204.833 126.957L198.856 131.685C198.156 132.234 197.315 132.518 196.459 132.494C195.602 132.471 194.775 132.142 194.1 131.556Z" fill="#FFB8B8"/>
<path d="M206.73 128.886L197.863 122.196L202.03 115.646C202.583 114.777 203.396 114.152 204.324 113.883C205.252 113.614 206.236 113.717 207.102 114.175C207.978 114.639 208.676 115.434 209.07 116.419C209.463 117.403 209.527 118.511 209.249 119.543L206.73 128.886Z" fill="#6C63FF"/>
<path d="M207.715 96.4446C205.416 98.1905 202.398 99.9852 200.05 98.1259C198.508 96.9051 198.022 94.6444 198.647 92.6605C199.772 89.0929 202.861 87.5223 205.814 86.3183C209.654 84.7532 213.835 83.5081 217.799 84.629C221.763 85.7498 225.267 90.0087 224.551 94.4781C223.976 98.0722 220.92 101.063 221.354 104.681C221.791 108.323 225.481 110.24 228.74 110.891C231.998 111.542 235.644 111.751 237.986 114.348C240.973 117.661 240.227 123.583 237.417 127.081C234.606 130.579 230.364 132.165 226.254 133.243C220.808 134.671 214.918 135.422 209.745 133.051C204.573 130.681 200.548 124.301 202.047 118.318C202.679 115.791 204.17 113.655 205.611 111.576C207.052 109.496 208.511 107.322 209.061 104.771C209.519 102.645 209.18 100.177 207.909 98.5824C207.678 98.3033 207.533 97.9501 207.494 97.5735C207.455 97.197 207.525 96.8165 207.693 96.4866L207.715 96.4446Z" fill="#2F2E41"/>
<path d="M39.7199 144.667C37.4151 145.566 34.9406 145.791 32.5346 145.321C30.1287 144.851 27.8725 143.701 25.9833 141.982C21.172 137.501 19.6635 130.118 18.4361 123.282C17.2259 116.542 16.0158 109.803 14.8057 103.063L22.4063 108.87C27.8723 113.047 33.4613 117.357 37.2459 123.406C41.0305 129.455 42.6825 137.713 39.6417 144.259" fill="#1E8E3E"/>
<path d="M39.0704 169.147C39.8396 162.929 40.6307 156.631 40.0911 150.346C39.6118 144.764 38.0773 139.313 34.9532 134.843C33.2949 132.475 31.2771 130.446 28.9904 128.847C28.3942 128.43 27.8454 129.478 28.439 129.894C32.3956 132.669 35.4558 136.766 37.1785 141.595C39.0812 146.966 39.3868 152.82 39.0589 158.524C38.8606 161.974 38.4404 165.402 38.0169 168.824C37.9835 168.979 38.0043 169.142 38.0751 169.281C38.146 169.419 38.2615 169.523 38.3984 169.57C38.5381 169.612 38.687 169.591 38.8127 169.512C38.9385 169.432 39.0311 169.301 39.0703 169.147H39.0704Z" fill="#F2F2F2"/>
<path d="M31.6604 158.144C30.672 159.811 29.3133 161.167 27.7152 162.083C26.1172 162.998 24.3336 163.441 22.5364 163.369C17.9177 163.126 14.0672 159.549 10.601 156.153L0.348633 146.108L7.13399 145.748C12.0136 145.489 17.0191 145.247 21.6668 146.917C26.3145 148.586 30.6008 152.605 31.4507 157.943" fill="#1E8E3E"/>
<path d="M41.2442 172.721C37.5415 165.451 33.2467 157.371 25.5726 154.789C23.4388 154.073 21.2014 153.817 18.9809 154.033C18.281 154.1 18.4558 155.297 19.1544 155.231C22.8765 154.888 26.5914 155.978 29.6737 158.319C32.6398 160.559 34.9492 163.674 36.9038 166.977C38.1011 169 39.1736 171.109 40.2462 173.215C40.589 173.888 41.591 173.402 41.2442 172.721Z" fill="#F2F2F2"/>
<path d="M47.1773 180.374C47.0525 178.77 46.5335 177.234 45.6767 175.935C44.82 174.635 43.6583 173.622 42.3183 173.004V168.801H35.9656V173.137C34.6915 173.785 33.5951 174.796 32.788 176.067C31.9809 177.338 31.492 178.824 31.3712 180.374L29.8774 199.643H48.6711L47.1773 180.374Z" fill="#4285F4"/>
</g>
<defs>
<clipPath id="clip0">
<rect width="252" height="202" fill="white"/>
</clipPath>
</defs>
</svg>
