<svg width="234" height="185" viewBox="0 0 234 185" fill="none" xmlns="http://www.w3.org/2000/svg">
<g clip-path="url(#clip0)">
<path opacity="0.1" d="M50.2106 128.306L47.4643 128.964L47.3186 126.958L50.0274 126.173L50.2106 128.306Z" fill="black"/>
<path d="M26.6561 82.6177C25.5352 85.5446 22.475 88.1822 18.7498 88.3083C18.4787 88.3345 18.2044 88.2937 17.9613 88.1914C17.4944 87.9513 17.4832 87.3881 17.6737 86.9603C17.8643 86.5325 18.1967 86.1477 18.2491 85.6984C18.2602 85.6067 18.2527 85.5142 18.2266 85.4245C18.1296 85.0583 17.7671 84.732 17.3411 84.809C17.6312 84.6178 17.8244 84.3446 17.8832 84.0423C17.9418 83.7403 17.8618 83.4309 17.6588 83.1748C17.4896 83.0175 17.3372 82.8486 17.2029 82.67C16.8928 82.1468 17.3747 81.5589 17.5765 80.9988C17.9912 79.7677 16.9377 78.5366 16.8517 77.2532C16.777 76.1052 17.4832 75.025 17.6588 73.8862C17.939 72.0396 16.8255 70.2699 16.6947 68.4264C16.6051 67.1399 16.9899 65.8658 17.4196 64.6255C17.7933 63.5174 18.2155 62.3972 18.2417 61.24C18.2417 60.3997 18.0661 59.5688 18.0174 58.7316C17.9399 57.9664 18.1087 57.1978 18.507 56.5033C18.7656 56.0951 19.2062 55.7852 19.7362 55.6385C20.9618 55.3001 21.7651 55.8263 21.9444 56.7834C22.2433 58.4116 22.0715 60.0735 22.4638 61.7078C22.8266 63.2361 23.3761 64.7302 24.1041 66.1673C24.7654 67.4662 25.5688 68.7219 26.077 70.0668C26.4595 71.1754 26.7332 72.3075 26.8953 73.4523C27.396 76.5269 27.7883 79.6908 26.6561 82.6177Z" fill="#FBBC04"/>
<path opacity="0.1" d="M26.656 82.6176C25.5351 85.5445 22.4749 88.1821 18.7497 88.3083C18.4786 88.3345 18.2042 88.2937 17.9612 88.1914C17.4942 87.9513 17.4829 87.3881 17.6735 86.9603C17.8641 86.5325 18.1966 86.1477 18.249 85.6984C18.2601 85.6067 18.2525 85.5141 18.2265 85.4245C20.2031 83.1285 22.12 80.8079 22.8785 78.0904C23.032 77.6223 23.0789 77.1351 23.0167 76.6531C22.9158 76.0991 22.5758 75.5974 22.389 75.0618C22.0602 74.1139 22.2133 73.1107 22.3068 72.1289C22.6958 67.8057 21.8194 63.4688 19.751 59.4825C19.2466 58.5223 18.6711 57.5497 18.4955 56.5248C18.7543 56.1165 19.1948 55.8067 19.7248 55.66C20.9504 55.3216 21.7538 55.8478 21.9331 56.8049C22.232 58.433 22.0602 60.0951 22.4524 61.7293C22.8152 63.2575 23.3648 64.7518 24.0927 66.1888C24.7542 67.4877 25.5575 68.7434 26.0656 70.0883C26.4483 71.1969 26.7219 72.329 26.884 73.4738C27.3959 76.5268 27.7882 79.6907 26.656 82.6176Z" fill="black"/>
<path opacity="0.1" d="M47.1656 63.1021C47.7559 63.6714 48.5144 64.2962 49.4075 64.1854C49.3397 64.2739 49.2324 64.337 49.1088 64.3611C48.9852 64.3853 48.855 64.3686 48.7461 64.3147C48.5317 64.1976 48.36 64.0348 48.2492 63.8438L46.9713 62.0679C46.8031 61.8371 45.6448 60.4921 45.3609 61.2677C45.2487 61.597 46.8778 62.825 47.1656 63.1021Z" fill="black"/>
<path opacity="0.1" d="M46.4777 67.5307C46.441 66.9504 46.144 66.402 45.6445 65.9918C45.1954 65.6562 44.6712 65.3959 44.1014 65.2254C42.7001 64.7515 41.0412 64.3699 39.5205 64.4313C40.0734 65.0962 41.8482 65.4932 42.7375 65.8686C43.9979 66.4042 45.2447 66.9582 46.4777 67.5307Z" fill="black"/>
<path d="M117.171 2.52039C117.723 2.52039 118.17 2.1525 118.17 1.69866C118.17 1.24485 117.723 0.876953 117.171 0.876953C116.621 0.876953 116.174 1.24485 116.174 1.69866C116.174 2.1525 116.621 2.52039 117.171 2.52039Z" fill="white"/>
<path d="M162.17 67.229H56.2676V87.4278H162.17V67.229Z" fill="#565661"/>
<path opacity="0.1" d="M162.17 67.229H56.2676V87.4278H162.17V67.229Z" fill="black"/>
<path d="M68.9378 88.0928L69.6814 142.017L59.4957 163.197L58.7074 88.0928H68.9378Z" fill="#BCBEC9"/>
<path d="M57.3846 71.1069L160.493 71.6178V86.6615H57.3846V71.1069Z" fill="#565661"/>
<path d="M151.67 88.0928L160.493 89.1176V162.38L151.67 139.97V88.0928Z" fill="#BCBEC9"/>
<path d="M213.536 68.0386H163.844V155.015H213.536V68.0386Z" fill="#EFEFF0"/>
<path d="M209.56 70.4546H167.82V137.311H209.56V70.4546Z" fill="#565661"/>
<path opacity="0.1" d="M209.56 70.4546H167.82V137.311H209.56V70.4546Z" fill="black"/>
<path d="M209.56 71.8242H167.82V86.6616H209.56V71.8242Z" fill="#565661"/>
<path d="M209.56 88.0928H167.82V119.608H209.56V88.0928Z" fill="#565661"/>
<path d="M209.56 121.553H167.82V153.069H209.56V121.553Z" fill="#565661"/>
<path opacity="0.1" d="M209.56 121.553H167.82V153.069H209.56V121.553Z" fill="black"/>
<path d="M169.561 160.677C171.047 160.677 172.251 159.409 172.251 157.845C172.251 156.282 171.047 155.015 169.561 155.015C168.076 155.015 166.871 156.282 166.871 157.845C166.871 159.409 168.076 160.677 169.561 160.677Z" fill="#565661"/>
<path d="M206.87 160.813C208.355 160.813 209.56 159.545 209.56 157.981C209.56 156.417 208.355 155.15 206.87 155.15C205.384 155.15 204.179 156.417 204.179 157.981C204.179 159.545 205.384 160.813 206.87 160.813Z" fill="#565661"/>
<path d="M55.8939 163.198H59.4959L58.5057 68.7925H53.0355L55.8939 163.198Z" fill="#EFEFF0"/>
<path d="M160.493 68.0386V162.38H163.844V68.7925L160.493 68.0386Z" fill="#EFEFF0"/>
<path d="M58.6814 85.7388V89.1178H160.493V86.662L58.6814 85.7388Z" fill="#EFEFF0"/>
<path d="M65.5827 61.6953H194.656L213.413 66.8105V69.7774L52.4153 68.7556V65.7363L65.5827 61.6953Z" fill="white"/>
<path d="M52.4153 65.7363L213.413 66.8104V69.7772L52.4153 68.7554V65.7363Z" fill="#BCBEC9"/>
<path d="M66.9986 100.921L66.2514 100.828C66.2514 100.801 66.2514 100.776 66.2514 100.751C66.229 100.607 66.2028 100.465 66.1766 100.32C66.483 100.52 66.7745 100.72 67.0435 100.921H66.9986Z" fill="url(#paint0_linear)"/>
<path d="M50.7599 148.444C51.2456 148.351 51.7388 148.274 52.232 148.219C55.6194 147.822 59.074 148.241 62.1786 149.425C61.8646 151.328 61.5545 153.294 62.2197 155.131C62.6829 156.424 63.6134 157.593 63.8113 158.941C64.3104 159.012 64.7756 159.196 65.1551 159.472C65.5345 159.748 65.8132 160.105 65.9599 160.505C66.1032 160.858 66.1751 161.228 66.1728 161.601C66.1686 162.062 66.0984 162.519 65.9636 162.967C65.9181 163.324 65.7053 163.653 65.3703 163.883C65.0354 164.112 64.6047 164.226 64.1701 164.199C61.278 164.469 58.4421 163.53 55.7518 162.61L50.5207 160.818C49.9079 160.61 49.2914 160.397 48.7048 160.139C47.5921 159.644 46.6042 158.979 45.7941 158.178C45.6228 158.035 45.5026 157.857 45.4466 157.662C45.3494 157.12 46.1192 156.796 46.6086 156.43C46.752 156.319 46.8776 156.192 46.9823 156.055C47.5614 155.334 47.6175 154.341 47.965 153.491C48.787 151.475 51.3278 150.176 52.2246 148.21C52.2732 148.101 52.318 147.994 52.3553 147.884" fill="#A26565"/>
<path opacity="0.1" d="M66.1728 161.601C66.1686 162.061 66.0984 162.519 65.9636 162.967C65.9182 163.324 65.7054 163.653 65.3703 163.883C65.0354 164.113 64.6047 164.226 64.17 164.199C61.278 164.469 58.4421 163.53 55.7518 162.61L50.5207 160.819C49.9079 160.61 49.2914 160.398 48.7048 160.139C47.5921 159.643 46.6042 158.978 45.7941 158.178C45.6228 158.035 45.5026 157.857 45.4466 157.661C45.3494 157.119 46.1192 156.796 46.6086 156.43C46.752 156.319 46.8776 156.192 46.9823 156.055C48.4246 156.31 50.2143 157.059 51.3165 157.347C52.4206 157.595 53.4808 157.96 54.4702 158.434C55.8451 159.16 56.8354 160.28 58.0012 161.204C59.1669 162.127 60.6727 162.967 62.2981 162.853C63.1574 162.747 63.9857 162.51 64.7418 162.157L66.1728 161.601Z" fill="black"/>
<path d="M60.0487 117.863C60.1459 118.143 60.1371 118.44 60.0236 118.715C59.9101 118.99 59.6971 119.23 59.4134 119.402C58.924 119.651 58.2926 119.617 57.8068 119.888C57.2053 120.236 57.1193 120.926 57.0147 121.523C56.641 123.575 55.4043 125.437 54.3469 127.324C53.2895 129.211 52.3965 131.27 52.785 133.319C53.0503 134.711 53.8798 136.194 53.1026 137.446C52.9121 137.754 52.6281 138.028 52.4114 138.327C51.3465 139.791 51.9517 141.648 51.9107 143.353C51.9263 143.542 51.8756 143.731 51.765 143.898C51.6017 144.054 51.4007 144.182 51.1746 144.273C50.7953 144.503 50.4837 144.799 50.2631 145.142C50.0424 145.485 49.9186 145.864 49.9005 146.252C49.869 147.027 49.9824 147.801 50.2367 148.547C50.2779 148.849 50.4395 149.131 50.6964 149.348C50.9938 149.51 51.3451 149.591 51.7014 149.582C54.0489 149.739 56.3515 150.199 58.5242 150.948C59.9403 151.435 61.3153 152.044 62.8212 152.278C62.9668 152.314 63.12 152.327 63.2717 152.314C63.4233 152.302 63.5701 152.263 63.7029 152.201C63.8924 152.06 64.023 151.873 64.0767 151.669C64.6557 150.098 65.2424 148.48 65.0444 146.849C64.9584 146.147 64.7305 145.46 64.6707 144.759C64.4091 141.989 66.6846 139.49 67.4058 136.758C67.7309 135.526 67.7309 134.252 67.9626 133.009C68.5903 129.601 70.8695 126.545 71.7476 123.175C71.8698 122.547 72.0599 121.929 72.3155 121.329C72.9694 120.024 74.4826 118.965 74.5163 117.552C74.537 117.242 74.4377 116.933 74.2323 116.672C73.8801 116.354 73.4121 116.138 72.8983 116.057C70.8684 115.597 68.8022 115.253 66.7146 115.029C65.7577 114.874 64.7812 114.818 63.8076 114.862C62.5433 114.985 61.328 115.338 60.2505 115.897C58.8082 116.629 59.7348 116.804 60.0487 117.863Z" fill="#454B69"/>
<path opacity="0.05" d="M60.0487 117.863C60.1459 118.143 60.1371 118.44 60.0236 118.715C59.9101 118.99 59.6971 119.23 59.4134 119.402C58.924 119.651 58.2926 119.617 57.8068 119.888C57.2053 120.236 57.1193 120.926 57.0147 121.523C56.641 123.575 55.4043 125.437 54.3469 127.324C53.2895 129.211 52.3965 131.27 52.785 133.319C53.0503 134.711 53.8798 136.194 53.1026 137.446C52.9121 137.754 52.6281 138.028 52.4114 138.327C51.3465 139.791 51.9517 141.648 51.9107 143.353C51.9263 143.542 51.8756 143.731 51.765 143.898C51.6017 144.054 51.4007 144.182 51.1746 144.273C50.7953 144.503 50.4837 144.799 50.2631 145.142C50.0424 145.485 49.9186 145.864 49.9005 146.252C49.869 147.027 49.9824 147.801 50.2367 148.547C50.2779 148.849 50.4395 149.131 50.6964 149.348C50.9938 149.51 51.3451 149.591 51.7014 149.582C54.0489 149.739 56.3515 150.199 58.5242 150.948C59.9403 151.435 61.3153 152.044 62.8212 152.278C62.9668 152.314 63.12 152.327 63.2717 152.314C63.4233 152.302 63.5701 152.263 63.7029 152.201C63.8924 152.06 64.023 151.873 64.0767 151.669C64.6557 150.098 65.2424 148.48 65.0444 146.849C64.9584 146.147 64.7305 145.46 64.6707 144.759C64.4091 141.989 66.6846 139.49 67.4058 136.758C67.7309 135.526 67.7309 134.252 67.9626 133.009C68.5903 129.601 70.8695 126.545 71.7476 123.175C71.8698 122.547 72.0599 121.929 72.3155 121.329C72.9694 120.024 74.4826 118.965 74.5163 117.552C74.537 117.242 74.4377 116.933 74.2323 116.672C73.8801 116.354 73.4121 116.138 72.8983 116.057C70.8684 115.597 68.8022 115.253 66.7146 115.029C65.7577 114.874 64.7812 114.818 63.8076 114.862C62.5433 114.985 61.328 115.338 60.2505 115.897C58.8082 116.629 59.7348 116.804 60.0487 117.863Z" fill="black"/>
<path d="M52.7365 164.248H49.5493L47.4643 128.964L47.3186 126.958L50.0276 126.173L50.2106 128.306L52.7365 164.248Z" fill="#565661"/>
<path d="M92.728 171.71L87.4708 172.234L63.2509 126.957L56.7197 126.564L45.2487 129.321L43.018 183.227H37.7608L39.8308 127.351L27.2426 127.616L4.77894 173.677H0L23.6257 119.845L24.5374 117.771L59.7462 116.776L68.5231 120.83L68.6353 121.064L92.728 171.71Z" fill="#303032"/>
<path opacity="0.1" d="M68.6352 121.064C61.0689 122.941 53.2147 124.991 53.2147 124.991C53.2147 124.991 46.052 127.05 43.0179 124.991C42.6354 124.745 42.2078 124.551 41.7512 124.415C42.145 124.647 42.57 124.84 43.0179 124.991L23.6256 119.842L24.5336 117.771L59.7461 116.776L68.5231 120.83L68.6352 121.064Z" fill="black"/>
<path d="M32.8211 112.13L47.1579 109.504C47.1579 109.504 81.4138 114.755 83.9621 116.854C83.9621 116.854 56.559 121.446 53.5324 123.009C50.5058 124.573 32.4998 126.303 32.8211 112.13Z" fill="white"/>
<path d="M111.758 157.11C111.285 157.659 110.677 158.119 109.973 158.461C109.269 158.802 108.486 159.017 107.674 159.092C106.052 159.258 104.367 158.923 102.794 159.289C102.551 159.323 102.321 159.404 102.125 159.528C101.93 159.652 101.774 159.814 101.673 160C101.634 160.25 101.611 160.502 101.602 160.753C101.419 161.576 100.108 161.76 99.0876 161.755L94.8804 161.733C94.006 161.733 93.0382 161.693 92.4105 161.194C92.1121 160.922 91.9438 160.57 91.9369 160.202C91.93 159.836 92.0851 159.479 92.3732 159.2C92.5036 159.073 92.6637 158.968 92.844 158.892C92.5812 158.821 92.3478 158.69 92.1698 158.515C91.9916 158.342 91.8758 158.13 91.8351 157.905C91.7587 157.452 91.7852 156.991 91.9135 156.546C91.9135 155.26 92.2872 153.106 93.3858 152.1C94.7346 150.847 97.0737 149.228 99.1101 148.893C99.7977 148.784 100.507 148.81 101.18 148.968C101.854 149.124 102.473 149.41 102.988 149.801C103.952 150.54 104.655 151.696 105.978 151.825C106.699 151.899 107.394 151.62 108.108 151.518C108.919 151.432 109.742 151.555 110.465 151.869C111.188 152.184 111.776 152.675 112.147 153.276C112.328 153.58 112.454 153.904 112.52 154.238C112.718 155.241 112.445 156.267 111.758 157.11Z" fill="#A26565"/>
<path opacity="0.1" d="M111.758 157.11C111.285 157.659 110.677 158.119 109.973 158.461C109.269 158.803 108.486 159.017 107.674 159.092C106.052 159.258 104.367 158.923 102.794 159.289C102.55 159.323 102.32 159.404 102.125 159.528C101.929 159.652 101.774 159.814 101.673 160C101.634 160.25 101.61 160.502 101.602 160.755C101.419 161.576 100.107 161.76 99.0873 161.755L94.88 161.733C94.0057 161.733 93.0379 161.693 92.4102 161.195C92.1118 160.922 91.9435 160.57 91.9366 160.202C91.9297 159.836 92.0848 159.479 92.3729 159.2C94.8016 159.117 97.1892 159.2 99.6104 158.787C100.593 158.624 101.561 158.409 102.555 158.295C104.707 158.043 106.997 158.258 108.974 157.508C110.622 156.892 111.803 155.639 112.501 154.242C112.703 155.241 112.437 156.266 111.758 157.11Z" fill="black"/>
<path d="M100.657 152.244C99.1622 153.198 97.4097 153.943 95.5265 154.023C93.6433 154.104 91.6444 153.408 90.7215 152.059C89.3726 150.08 90.5682 147.33 88.9167 145.513C88.401 144.944 87.6574 144.54 87.112 143.989C86.5665 143.44 86.2526 142.612 86.7384 142.027C86.1517 142.21 85.5314 141.743 85.3596 141.244C85.1877 140.746 85.296 140.21 85.1914 139.706C84.9186 138.367 83.3232 137.508 82.5572 136.32C81.7912 135.133 81.8958 133.591 81.8099 132.184C81.619 128.757 80.0703 125.476 77.4008 122.843C76.8928 122.344 76.2425 121.837 75.4504 121.861C75.5887 120.735 74.677 119.658 73.4963 119.091C72.3155 118.525 70.9106 118.334 69.5431 118.223C55.7442 117.103 41.3663 121.329 28.1915 117.774C24.5261 116.786 20.9914 115.133 18.7495 112.542C17.8762 111.556 17.2514 110.436 16.9119 109.247C16.5725 108.059 16.5252 106.827 16.7729 105.623V105.58C17.2922 103.395 18.6934 102.857 21.0137 101.859C23.6925 100.693 26.4922 99.7257 29.3797 98.9694C34.9845 97.526 41.0188 97.0058 46.8029 98.0646C49.5044 98.5632 52.1087 99.388 54.8139 99.8712C55.8788 100.062 56.9512 100.197 58.0309 100.311C59.7087 100.484 61.3938 100.598 63.0827 100.758C68.4829 101.27 73.8014 102.255 78.9478 103.697C80.8646 104.232 82.7814 104.845 84.4292 105.814C85.7325 106.594 86.8346 107.579 87.6711 108.713C88.5076 109.847 89.0618 111.107 89.3016 112.419C89.4584 113.324 89.4623 114.266 89.7014 115.143C89.928 115.88 90.2279 116.6 90.5981 117.297C93.7908 123.799 96.3996 130.486 98.4036 137.302C98.5173 137.808 98.7279 138.297 99.0275 138.749C99.5059 139.385 100.328 139.813 100.81 140.451C101.931 141.952 100.851 144.049 101.845 145.612C102.189 146.154 102.76 146.581 103.104 147.123C104.225 148.899 102.57 151.022 100.657 152.244Z" fill="#454B69"/>
<path opacity="0.1" d="M81.5635 116.881C82.0946 116.535 82.5529 116.119 82.9198 115.65C83.288 115.179 83.4342 114.613 83.3308 114.059C83.4765 114.76 83.4209 115.479 83.1685 116.159C82.9162 116.838 82.4739 117.46 81.8773 117.974C80.9394 118.765 79.1796 119.541 77.8082 119.27C78.0026 118.365 80.6928 117.491 81.5635 116.881Z" fill="black"/>
<path opacity="0.1" d="M58.2177 101.542C58.1049 101.872 57.8942 102.174 57.6046 102.42C57.315 102.666 56.9556 102.849 56.5588 102.952C55.762 103.152 54.9278 103.233 54.0964 103.189H53.3491C43.5446 103.01 33.6355 101.219 24.0589 102.927C22.9048 103.123 21.7724 103.398 20.6737 103.749C19.2738 104.203 17.9631 104.826 16.7841 105.596V105.553C17.3034 103.367 18.7046 102.829 21.0249 101.832C23.7012 100.675 26.4972 99.7173 29.3796 98.9694C34.9844 97.526 41.0188 97.0058 46.8028 98.0646C49.5043 98.5632 52.1086 99.388 54.8138 99.8712C55.8788 100.062 56.9511 100.197 58.0309 100.311C58.2403 100.697 58.3054 101.126 58.2177 101.542Z" fill="black"/>
<path d="M58.218 101.103C58.1061 101.433 57.8957 101.735 57.606 101.982C57.3163 102.229 56.9564 102.412 56.559 102.515C55.7624 102.716 54.9278 102.796 54.0967 102.749H53.3494C43.5449 102.571 33.6358 100.779 24.0592 102.487C22.9055 102.684 21.7734 102.958 20.6739 103.306C19.208 103.788 17.8407 104.452 16.6199 105.276C16.3335 104.628 16.0481 103.978 15.7642 103.328C15.4205 102.552 16.5115 102.38 16.7207 101.684C16.859 101.213 16.6236 100.678 16.5041 100.176C16.4734 100.053 16.4534 99.9289 16.4443 99.8038C16.377 98.6928 16.859 98.0525 17.965 97.4524C21.2456 95.6673 25.2474 94.4424 28.9914 93.5221C30.9818 93.0038 33.0378 92.6755 35.1192 92.5434C38.0635 92.4019 41.004 92.8512 43.8699 93.4205C47.3934 94.1376 50.8795 95.0857 54.0032 96.6029C55.5352 97.3385 57.0298 98.2618 57.8555 99.5729C58.1851 100.034 58.313 100.574 58.218 101.103Z" fill="#A26565"/>
<path opacity="0.1" d="M58.2178 101.102C58.1059 101.433 57.8955 101.735 57.6058 101.982C57.3161 102.228 56.9563 102.412 56.5588 102.515C55.7623 102.716 54.9278 102.795 54.0965 102.749H53.3492C50.1576 101.003 46.3206 100.24 42.5135 100.594C41.2954 100.714 40.0772 100.948 38.8591 100.856C36.3968 100.671 34.4015 99.2123 32.2082 98.2798C29.7124 97.2648 26.9053 96.887 24.1471 97.1953C21.3888 97.5035 18.8053 98.4835 16.7281 100.01L16.515 100.163C16.4844 100.041 16.4644 99.9161 16.4552 99.791C16.3881 98.68 16.8701 98.0398 17.976 97.4397C21.2566 95.6545 25.2584 94.4296 29.0024 93.5094C30.9928 92.991 33.0489 92.6627 35.1302 92.5307C38.0745 92.3891 41.0151 92.8385 43.881 93.4079C47.4044 94.125 50.8906 95.0729 54.0144 96.5901C55.535 97.338 57.0296 98.2613 57.8554 99.5725C58.185 100.033 58.3129 100.573 58.2178 101.102Z" fill="black"/>
<path d="M66.5991 67.3893L66.5468 67.5002C65.7099 69.2882 64.1703 70.7994 63.1839 72.5414C61.9397 74.748 61.6333 77.2225 61.3568 79.6478C61.1177 81.7253 60.8823 83.815 61.0728 85.8986C61.5512 91.0322 64.5964 95.9011 65.4109 100.936C65.6116 102.099 65.663 103.276 65.5641 104.448C65.4968 105.19 65.3325 105.987 64.7346 106.535C64.1367 107.082 62.9747 107.298 62.332 106.772C62.6198 106.319 62.9111 105.87 63.2026 105.417C61.4951 104.325 58.9243 105.11 56.9291 104.426C56.051 104.119 55.3485 103.565 54.6125 103.069C52.9325 101.944 50.9965 101.107 48.9182 100.607C46.8398 100.107 44.6611 99.9541 42.51 100.157C41.292 100.281 40.0739 100.515 38.8558 100.422C36.3935 100.234 34.3982 98.7788 32.2049 97.8461C29.7092 96.8315 26.9025 96.4539 24.1445 96.7614C21.3865 97.069 18.8029 98.048 16.7246 99.5727C16.2016 99.9729 15.4991 100.441 14.8564 100.188C14.6081 100.063 14.4073 99.8828 14.2772 99.6682C11.8298 96.2242 13.6308 91.7832 16.2464 88.4285C18.8619 85.0738 22.3257 81.9806 23.4017 78.0936C23.5571 77.6259 23.604 77.1383 23.54 76.6563C23.4391 76.1023 23.099 75.6006 22.9123 75.0651C22.5834 74.1172 22.7367 73.1138 22.83 72.132C23.222 67.8083 22.3481 63.4704 20.2818 59.4827C19.6839 58.3348 18.974 57.1714 18.974 55.9249C18.974 53.9614 20.6815 52.3333 22.094 50.7545C23.7194 48.9386 25.0832 46.9288 27.1419 45.4362C29.0923 44.0174 31.9171 43.1494 34.3309 43.8696C38.4324 43.0494 42.654 42.7106 46.8705 42.8632C48.3277 42.9186 49.8335 43.0447 51.1114 43.6265C52.479 44.2421 53.4617 45.3377 54.8067 45.9932C55.7894 46.4764 56.9217 46.7041 57.9903 47.0427C60.941 47.992 63.3769 49.7864 64.8504 52.0963C66.345 54.4815 66.7186 57.2238 67.0475 59.8951C67.3613 62.4096 67.6603 65.0226 66.5991 67.3893Z" fill="#FBBC04"/>
<path opacity="0.1" d="M61.0725 85.8983C61.5508 91.0319 64.5961 95.9009 65.4106 100.936C63.7815 99.8002 61.5134 98.6584 61.2108 97.3382C60.8746 95.91 59.7984 94.0388 59.6191 92.5954C59.4397 91.1519 60.6691 89.3885 59.38 88.3974C58.7522 87.9142 60.4224 88.0496 59.8096 87.5541C58.4309 86.4492 58.0909 84.7473 58.0049 83.1685C57.8592 80.3738 58.2889 77.5485 57.6649 74.8001C57.2912 73.1043 56.5103 71.4886 55.8863 69.842C55.1615 67.9246 54.6383 65.961 54.1152 63.9944C53.6004 62.2459 53.2259 60.4713 52.9943 58.6822C52.8336 57.1435 52.9084 55.5123 53.7416 54.1088C54.5749 52.7054 56.26 51.5667 58.1507 51.5882C64.4727 51.6559 63.3817 58.7161 64.7717 61.9785C65.3284 63.2772 66.0794 64.533 66.3821 65.8871C66.4925 66.4181 66.5524 66.9552 66.5615 67.4937C65.7245 69.2818 64.1851 70.793 63.1986 72.535C61.9543 74.7416 61.6479 77.2161 61.3715 79.6414C61.1174 81.7249 60.882 83.8147 61.0725 85.8983Z" fill="black"/>
<path d="M65.1827 61.8982C65.7394 63.197 66.4904 64.4527 66.7931 65.8068C67.2975 68.0751 66.5166 70.485 67.3648 72.6825C67.5856 73.1516 67.7703 73.6316 67.9177 74.1198C68.0635 74.8184 67.8954 75.5324 67.8954 76.2434C67.8954 77.3882 68.3326 78.4963 68.7211 79.595C70.0352 83.3288 70.9049 87.1591 71.3179 91.0318C71.3797 92.0723 71.5789 93.1043 71.9121 94.1094C72.0689 94.45 72.2036 94.7972 72.3155 95.1497C72.416 95.62 72.4398 96.0992 72.3866 96.5747C72.2857 98.0827 72.0802 99.5969 72.2857 101.099C72.4912 102.601 73.1563 104.124 74.5275 105.131C73.3021 105.349 72.0054 105.568 70.8098 105.245C69.1284 104.792 68.1195 103.398 67.2639 102.13C66.1803 100.511 62.0627 99.0522 61.6368 97.2333C61.3042 95.8083 60.2282 93.9371 60.0487 92.4906C59.8694 91.0441 61.095 89.2867 59.8059 88.2956C59.1819 87.8124 60.8521 87.9447 60.2356 87.4523C58.8605 86.3474 58.5205 84.6455 58.4346 83.0636C58.2889 80.272 58.7148 77.4467 58.0946 74.6983C57.721 73.0026 56.94 71.3867 56.3161 69.7371C55.5911 67.8228 55.0681 65.8592 54.545 63.8894C54.0287 62.1412 53.6541 60.3665 53.424 58.5773C53.2633 57.0385 53.3343 55.4043 54.1713 54.0009C55.0083 52.5974 56.6934 51.4617 58.5803 51.4802C64.8763 51.5726 63.7927 58.6358 65.1827 61.8982Z" fill="#FBBC04"/>
<path opacity="0.1" d="M50.4574 80.1373C50.1996 81.7131 48.634 82.9072 47.0497 83.8305C45.4655 84.7538 43.6869 85.5479 42.6519 86.8835C41.9345 87.8068 41.6131 88.8779 41.004 89.8412C40.3316 90.903 39.3264 91.7954 38.5231 92.7926C37.7197 93.7898 37.0921 94.9809 37.3386 96.1627C37.3422 96.2171 37.3592 96.2702 37.3889 96.319C37.4184 96.3677 37.4599 96.4109 37.5105 96.4458C37.5875 96.4726 37.6715 96.4827 37.7546 96.4752C37.8376 96.4677 37.917 96.4427 37.985 96.4027C39.6142 95.701 40.2568 94.0976 40.9406 92.7096C41.6584 91.3085 42.4667 89.9401 43.3618 88.6101C43.7654 87.9945 44.21 87.3236 44.9611 86.9821C45.4753 86.8056 46.0018 86.6545 46.5378 86.5297C47.2982 86.2425 47.9652 85.811 48.4845 85.2709C50.5243 83.2666 51.5893 80.7104 51.4737 78.0968C51.4512 77.5459 51.4139 74.893 50.4088 75.7117C49.4037 76.5304 50.6292 79.0663 50.4574 80.1373Z" fill="black"/>
<path d="M52.9195 19.7C56.1329 20.8541 58.8979 23.3933 58.797 26.2708C58.711 29.2932 55.6396 32.14 56.6971 35.0361C57.3098 36.7166 59.1558 37.843 60.6166 39.1202C66.1803 43.9707 66.169 52.4375 60.5867 57.2787C58.4495 59.1253 55.7032 60.4394 53.4427 62.203C45.4728 68.3891 45.1326 79.0903 49.3998 87.397C46.1304 87.9795 42.798 88.2888 39.4533 88.3204C37.8877 88.3204 35.9708 88.1019 35.4029 86.8985C34.8798 85.7874 35.7766 84.2854 34.7452 83.4637C34.2595 83.079 33.531 83.0266 32.8771 82.9374C28.6698 82.3773 25.2173 79.6105 23.6405 76.3511C22.0637 73.0919 22.146 69.4232 23.0501 65.9947C23.6928 63.5172 24.6979 60.7903 23.2071 58.5743C21.3389 55.786 15.9658 54.6103 16.0479 51.4218C16.1152 48.8089 19.8554 47.5377 21.9777 45.5957C25.8935 42.0194 24.0291 36.4703 24.0217 31.6507C24.0217 27.4096 25.8225 23.0331 29.6562 20.2078C35.358 15.9698 46.3396 17.3456 52.9195 19.7Z" fill="#361C1C"/>
<path opacity="0.1" d="M23.8197 55.4137C22.1794 52.9761 17.8712 51.7697 16.8699 49.3721C16.3689 49.9316 16.0874 50.6038 16.0628 51.2988C15.9806 54.4873 21.3461 55.663 23.2218 58.4544C23.8378 59.4427 24.0971 60.5555 23.9691 61.6614C24.5595 59.5193 25.0789 57.2849 23.8197 55.4137Z" fill="black"/>
<path opacity="0.1" d="M57.1268 31.0908C57.7994 29.4751 58.7746 27.844 58.8231 26.1667C58.83 25.9851 58.8237 25.8032 58.8045 25.6221C58.0535 27.4748 56.9027 29.272 57.1268 31.0908Z" fill="black"/>
<path opacity="0.1" d="M24.4626 39.6992C25.748 36.3537 24.6382 32.205 24.6345 28.4932C24.6345 28.0439 24.6569 27.5915 24.698 27.1421C24.2553 28.5766 24.0318 30.0509 24.0328 31.531C24.0404 34.1809 24.6045 37.0554 24.4626 39.6992Z" fill="black"/>
<path opacity="0.1" d="M61.211 54.1303C59.0737 55.977 56.3275 57.2911 54.0669 59.0547C50.0315 62.1847 47.9578 66.4719 47.4384 71.0177C48.4024 67.6322 50.3491 64.5145 53.4691 62.0923C55.711 60.338 58.4759 59.0301 60.6132 57.1681C63.1554 54.886 64.6318 51.9346 64.7794 48.8398C64.1341 50.8174 62.9087 52.6343 61.211 54.1303Z" fill="black"/>
<path opacity="0.1" d="M40.0773 85.163C38.5117 85.163 36.5949 84.9414 36.0269 83.738C35.5039 82.63 36.4006 81.128 35.3693 80.3032C34.8835 79.9186 34.1512 79.8662 33.5011 79.7769C29.2975 79.2198 25.845 76.45 24.2683 73.1937C23.1061 70.7869 22.8558 68.1617 23.1473 65.5703C23.1174 65.6719 23.0912 65.7734 23.0651 65.8781C22.1758 69.3067 22.0823 72.9783 23.6555 76.2376C25.2285 79.4969 28.6847 82.2638 32.8883 82.8207C33.5533 82.91 34.2857 82.9655 34.7566 83.3471C35.799 84.1719 34.8911 85.6739 35.4141 86.7818C35.9821 87.9852 37.8989 88.2222 39.4645 88.2068C42.8092 88.175 46.1415 87.8657 49.411 87.2835C48.9498 86.3855 48.5469 85.4682 48.2041 84.535C45.5207 84.9279 42.8026 85.1379 40.0773 85.163Z" fill="black"/>
<path opacity="0.1" d="M52.3142 71.7407C53.2371 72.3132 54.2385 70.1311 53.6668 69.5864C53.5137 69.728 52.1722 71.6608 52.3142 71.7407Z" fill="black"/>
<path opacity="0.1" d="M56.2488 111.24C57.3362 110.932 58.4907 110.624 59.2007 109.886C59.7873 109.292 60.2693 106.934 59.0287 108.064C57.9751 109.033 57.4781 110.311 56.2488 111.24Z" fill="black"/>
<path opacity="0.1" d="M67.3202 108.769C67.1894 109.495 66.9466 110.249 66.3226 110.772C66.2067 110.871 65.949 110.932 65.9153 110.8C66.6123 110.494 67.26 110.118 67.8433 109.68C69.1062 108.649 69.278 106.11 67.3538 105.436C67.3351 106.55 67.5257 107.636 67.3202 108.769Z" fill="black"/>
<path d="M80.6106 104.193C80.6106 104.193 70.0066 100.761 66.1729 101.115C62.3394 101.469 70.5147 106.445 70.5147 106.445L75.402 109.16C75.402 109.16 78.3912 108.236 78.5892 108.166C78.7873 108.095 80.6106 104.193 80.6106 104.193Z" fill="#454B69"/>
<path d="M7.64832 67.3762C7.64832 67.3762 15.6145 63.5722 26.129 68.2996C36.6433 73.0269 38.3958 100.846 38.3958 100.846C38.3958 100.846 34.095 129.189 50.6775 122.883C50.6775 122.883 80.943 115.142 83.9732 116.847C83.9732 116.847 86.8428 116.847 81.1074 117.897C75.3719 118.946 53.2146 124.729 53.2146 124.729C53.2146 124.729 46.0518 126.791 43.0177 124.729C39.9837 122.667 31.3862 124.994 30.2689 110.818C29.5296 101.885 28.2 92.9915 26.2858 84.1775L23.3303 76.9603L7.64832 67.3762Z" fill="#565661"/>
<path d="M181.264 164.864H184.451L186.54 129.58L186.681 127.574L183.973 126.789L183.793 128.922L181.264 164.864Z" fill="#565661"/>
<path opacity="0.1" d="M183.793 128.922L186.54 129.58L186.681 127.574L183.973 126.789L183.793 128.922Z" fill="black"/>
<path d="M154.652 151.238C154.575 151.72 154.424 152.194 154.204 152.647C153.978 153.238 153.491 153.739 152.84 154.05C152.402 154.199 151.934 154.276 151.462 154.276C149.701 154.361 147.841 154.34 146.328 153.602C145.683 153.259 145.092 152.852 144.568 152.392C141.167 149.609 138.076 146.581 135.331 143.344C134.871 142.799 134.397 142.155 134.602 141.496C138.159 140.684 141.534 139.412 144.605 137.726C145.029 137.459 145.503 137.25 146.01 137.111C146.877 136.958 147.77 136.931 148.648 137.03C149.496 137.146 149.533 137.166 149.859 137.954C150.396 139.287 150.307 140.724 150.912 142.057C151.296 142.794 151.764 143.498 152.31 144.163C153.871 146.313 155.07 148.852 154.652 151.238Z" fill="#A26565"/>
<path opacity="0.1" d="M154.652 151.238C154.575 151.721 154.424 152.194 154.204 152.647C153.978 153.238 153.491 153.739 152.84 154.051C152.402 154.199 151.934 154.276 151.462 154.276C149.701 154.361 147.841 154.34 146.328 153.602C145.683 153.259 145.092 152.853 144.568 152.392C141.167 149.609 138.076 146.581 135.331 143.344C134.871 142.799 134.397 142.155 134.602 141.497C135.762 141.233 136.905 140.918 138.025 140.555L138.081 140.588C139.228 141.262 140.062 142.229 140.873 143.177L143.487 146.208C143.954 146.805 144.504 147.352 145.128 147.84C145.901 148.351 146.754 148.774 147.666 149.096C148.895 149.585 150.124 150.074 151.402 150.468C152.228 150.743 153.625 150.85 154.652 151.238Z" fill="black"/>
<path d="M157.066 118.371C156.809 118.883 156.496 119.374 156.133 119.839C152.66 124.643 149.98 129.807 148.166 135.194C147.651 135.098 147.359 135.678 147.362 136.118C147.367 136.557 147.362 137.111 146.87 137.272C146.724 137.318 146.559 137.318 146.417 137.37C146.103 137.486 146.014 137.816 145.969 138.099L145.528 140.765C145.374 141.688 145.24 142.688 145.789 143.503C146.169 143.988 146.66 144.406 147.236 144.735L154.529 149.475C154.828 149.668 155.198 149.875 155.557 149.767C156.375 149.52 155.651 148.315 156.304 147.824C156.737 147.489 157.425 147.741 158.027 147.701C158.811 147.652 159.405 147.058 159.603 146.434C159.742 145.797 159.756 145.148 159.645 144.507C159.595 144.215 159.637 143.917 159.764 143.642C159.987 143.351 160.294 143.109 160.657 142.938C161.922 142.176 162.942 141.171 163.626 140.01C164.311 138.849 164.64 137.568 164.584 136.278C164.524 135.885 164.543 135.486 164.637 135.098C164.788 134.744 165.018 134.414 165.313 134.127C167.962 131.174 170.17 127.971 172.363 124.773C173.626 122.926 174.912 121.052 175.353 118.972C175.391 118.894 175.406 118.81 175.399 118.727C175.391 118.644 175.36 118.563 175.308 118.491C175.256 118.42 175.184 118.359 175.098 118.314C175.013 118.269 174.915 118.241 174.814 118.233C173.721 117.951 172.604 117.731 171.475 117.574C168.04 117.002 164.726 116.118 161.386 115.269C158.045 114.42 158.072 116.149 157.066 118.371Z" fill="#454B69"/>
<path d="M141.272 172.327L146.533 172.85L170.749 127.574L177.28 127.18L188.756 129.937L190.982 183.844H196.239L194.169 127.968L206.758 128.232L229.222 174.293H234L210.374 120.461L209.466 118.387L174.253 117.393L165.477 121.446L165.365 121.68L141.272 172.327Z" fill="#303032"/>
<path opacity="0.1" d="M165.365 121.68C172.932 123.557 180.786 125.607 180.786 125.607C180.786 125.607 187.949 127.666 190.982 125.607C191.365 125.361 191.792 125.167 192.249 125.032C191.856 125.263 191.431 125.456 190.982 125.607L210.374 120.458L209.478 118.387L174.265 117.393L165.488 121.446L165.365 121.68Z" fill="black"/>
<path d="M201.179 112.745L186.842 110.12C186.842 110.12 152.587 115.37 150.038 117.469C150.038 117.469 177.442 122.061 180.467 123.625C183.494 125.188 201.501 126.918 201.179 112.745Z" fill="white"/>
<path d="M147.98 154.934C147.117 156.289 144.99 156.67 143.121 156.691C140.528 156.718 137.951 156.339 135.529 155.575C134.147 155.137 132.821 154.575 131.393 154.254C129.267 153.774 126.909 153.814 125.041 152.85C124.05 152.307 123.231 151.576 122.653 150.718C122.545 150.567 122.44 150.41 122.343 150.25C121.451 148.819 121.036 147.154 121.533 145.609C122.03 144.063 123.834 142.362 125.927 142.386C128.412 142.418 131.375 143.387 133.773 143.888C136.763 144.504 139.751 145.215 142.394 146.516C144.605 147.612 146.559 149.185 147.602 151.105C147.802 151.476 147.967 151.859 148.096 152.25C148.42 153.137 148.495 154.124 147.98 154.934Z" fill="#A26565"/>
<path opacity="0.1" d="M147.98 154.934C147.117 156.289 144.99 156.671 143.122 156.691C140.528 156.719 137.951 156.339 135.529 155.575C134.147 155.138 132.821 154.575 131.393 154.254C129.267 153.774 126.909 153.814 125.041 152.85C124.05 152.307 123.231 151.576 122.653 150.718C122.545 150.567 122.44 150.41 122.344 150.25C122.717 150.275 123.061 150.306 123.247 150.321C125.542 150.502 127.732 151.192 129.921 151.712C132.961 152.435 136.099 152.839 139.263 152.912C141.504 152.964 143.843 152.83 145.801 151.928C146.386 151.624 146.992 151.35 147.617 151.106C147.817 151.476 147.982 151.859 148.111 152.251C148.42 153.138 148.495 154.125 147.98 154.934Z" fill="black"/>
<path d="M164.035 96.4151C159.177 95.7596 154.23 95.5996 149.306 95.4395L143.282 95.2425C142.854 95.2016 142.42 95.2448 142.016 95.3688C141.667 95.5531 141.336 95.7589 141.026 95.9842C140.42 96.3227 139.647 96.3597 138.918 96.3936C133.75 96.6282 128.609 97.1775 123.539 98.037C120.924 98.4772 118.207 99.0527 116.241 100.539C114.164 102.112 113.252 104.509 113.181 106.83C113.11 109.151 113.85 111.431 114.631 113.659C115.625 116.342 116.174 119.123 116.264 121.926C116.229 122.704 116.266 123.483 116.372 124.256C116.546 124.994 116.81 125.716 117.161 126.41L119.911 132.458C120.153 132.988 120.393 133.513 120.658 134.031C120.924 134.548 121.177 134.955 121.406 135.441C121.741 136.105 122.007 136.794 122.272 137.481L124.103 142.217L124.342 142.833C125.004 144.538 125.68 146.274 126.928 147.739C128.175 149.203 130.108 150.386 132.278 150.475C132.979 150.453 133.68 150.469 134.379 150.522C134.973 150.641 135.551 150.813 136.101 151.035C137.731 151.593 139.481 151.875 141.246 151.863C142.871 151.863 144.676 151.491 145.557 150.364C146.044 149.748 146.17 148.991 146.306 148.265C146.541 146.806 146.769 145.283 146.167 143.898C145.794 143.07 145.166 142.36 144.733 141.543C144.127 140.432 143.929 139.204 143.536 138.032C142.688 135.508 140.96 133.244 138.567 131.52C137.717 128.748 137.093 125.933 136.699 123.093C136.645 122.464 136.492 121.843 136.247 121.246C135.809 120.323 134.924 119.575 134.554 118.633C134.206 117.759 134.311 116.749 133.68 115.995C138.937 117.186 144.142 116.919 149.6 116.848C151.349 116.853 153.095 116.77 154.832 116.602C155.641 116.48 156.46 116.408 157.283 116.386C158.972 116.386 160.557 117.002 162.107 117.544C166.49 119.082 171.107 120.292 175.868 120.458C180.781 120.627 185.639 119.676 190.44 118.735C192.552 118.319 194.745 117.87 196.419 116.728C198.093 115.586 199.035 113.527 198.004 111.961C197.218 110.782 195.593 110.203 194.076 109.711C189.876 108.344 185.654 107.012 181.607 105.359C175.427 102.878 170.805 97.3384 164.035 96.4151Z" fill="#454B69"/>
<path d="M155.374 82.4915C154.787 83.5379 153.801 84.3935 153.072 85.3784C151.853 86.9996 151.451 88.9487 151.951 90.8106C152.214 91.7309 152.729 92.5894 153.458 93.3198C154.186 94.0503 155.11 94.6333 156.155 95.0239C157.087 95.3301 158.069 95.525 159.069 95.6026C160.384 95.7349 161.786 95.7626 162.948 95.2394C163.818 94.8095 164.531 94.1952 165.014 93.4605C166.019 92.0755 166.591 90.5151 167.113 88.9608C168.082 86.0924 168.908 83.1501 168.787 80.174C168.747 79.1491 168.5 77.9948 167.469 77.404C166.936 77.1507 166.346 76.9914 165.735 76.9362L160.807 76.2098C159.853 76.0683 158.191 75.4927 157.365 76.0589C156.539 76.6253 156.476 78.2996 156.334 79.0844C156.109 80.2447 155.972 81.4234 155.374 82.4915Z" fill="#A1616A"/>
<path d="M215.28 70.5868L213.991 79.4874C213.724 81.0749 213.57 82.6739 213.532 84.2763C213.532 85.1688 213.566 86.1598 212.848 86.8276C212.497 87.1316 212.053 87.3517 211.563 87.4648C209.997 87.8649 208.289 87.5078 206.795 86.957C205.92 86.6492 205.027 86.2029 204.631 85.4858C204.401 84.9886 204.305 84.4561 204.352 83.9254C204.352 78.6165 204.96 73.0797 208.326 68.5556C208.613 68.1116 209.019 67.7266 209.511 67.4291C210.445 66.9366 211.667 67.0752 212.725 67.3428C213.375 67.506 215.131 67.6876 215.545 68.1646C215.96 68.6417 215.371 69.9744 215.28 70.5868Z" fill="#A1616A"/>
<path d="M181.08 38.4002C188.509 38.4002 194.532 33.4396 194.532 27.3205C194.532 21.2013 188.509 16.2407 181.08 16.2407C173.651 16.2407 167.63 21.2013 167.63 27.3205C167.63 33.4396 173.651 38.4002 181.08 38.4002Z" fill="#A1616A"/>
<path d="M177.482 43.8323C177.434 44.6944 177.149 45.5361 176.649 46.2945C183.516 45.4327 190.367 44.4725 197.2 43.4138C194.933 42.4538 193.219 40.7943 192.432 38.7972C192.061 37.7264 191.857 36.6206 191.827 35.5071C191.718 33.7414 191.76 31.9716 191.95 30.2104C189.559 30.4167 187.294 31.1552 185.015 31.7893C182.724 32.4272 180.392 32.9645 178.031 33.3989C176.893 33.6082 175.745 33.7868 174.594 33.9529C173.249 34.1499 172.603 34.1468 173.537 35.1194C176.043 37.7169 177.833 40.3576 177.482 43.8323Z" fill="#A1616A"/>
<path d="M181.615 42.3522C179.839 42.5707 177.979 42.817 176.563 43.7218C176.024 44.1031 175.512 44.509 175.027 44.9375C172.214 47.1873 168.243 48.0921 164.826 49.6802C164.27 49.907 163.776 50.2267 163.377 50.6189C163.003 51.0466 162.813 51.5914 162.42 52.0161C161.965 52.5085 161.243 52.8163 160.889 53.3611C160.533 53.9059 160.612 54.4844 160.575 55.0631C160.489 56.3341 159.905 57.5407 159.454 58.7564C157.38 64.5762 158.517 71.0671 155.377 76.5638C155.522 76.8805 155.742 77.1697 156.026 77.4141C156.31 77.6586 156.651 77.853 157.029 77.9857C157.819 78.22 158.643 78.3661 159.48 78.4197L166.433 79.1307C167.427 79.2322 168.481 79.3276 169.389 78.9859C168.559 80.872 167.972 82.8247 167.637 84.812C167.468 86.0268 167.206 87.2316 166.852 88.4191C165.896 91.1275 163.49 93.3834 160.639 94.9253C160.28 95.0803 159.976 95.3107 159.761 95.5932C159.386 96.2088 159.939 96.8982 160.332 97.5014C161.472 99.2495 161.314 101.349 161.3 103.33C161.285 105.313 161.527 107.488 163.209 108.91C164.203 109.751 165.563 110.206 166.886 110.64L177.762 114.219C179.558 114.849 181.409 115.363 183.3 115.758C186.166 116.297 189.144 116.275 192.084 116.171C194.028 116.103 195.968 116 197.906 115.863C198.676 115.861 199.434 115.697 200.107 115.386C200.685 115.01 201.131 114.512 201.395 113.945C202.909 111.234 203.417 108.07 205.764 105.799C207.374 104.238 209.874 102.992 210.057 100.951C210.142 99.9358 209.593 98.9479 209.586 97.9291C209.586 96.6766 210.382 95.4854 210.334 94.236C210.233 92.2016 207.904 90.6505 207.535 88.6376C206.593 83.5348 209.739 78.4382 211.67 73.5292C212.018 72.6521 212.467 71.6827 213.49 71.3071C214.514 70.9317 215.957 71.1286 216.323 70.2976C217.246 68.211 217.466 65.7642 217.347 63.5451C217.279 62.2618 216.727 61.0061 216.789 59.7196C216.835 58.8148 217.186 57.9346 217.279 57.0328C217.422 55.6694 216.984 54.3152 216.532 52.9979C216.401 52.5277 216.206 52.0713 215.95 51.6376C215.673 51.2442 215.347 50.876 214.978 50.5389L213.158 48.7569C212.306 47.9229 211.405 47.058 210.169 46.6364C209.769 45.8207 208.492 45.2576 207.575 44.8083C206.653 44.3769 205.7 43.9915 204.721 43.654L194.431 39.9116C194.046 39.7521 193.634 39.6421 193.209 39.5853C192.583 39.5681 191.96 39.6735 191.394 39.8931C188.254 40.918 184.978 41.9399 181.615 42.3522Z" fill="#1E8E3E"/>
<path d="M170.716 29.2469C170.32 28.099 169.307 27.1079 169.154 25.9198C169.015 24.8642 169.579 23.8424 169.901 22.8144C170.222 21.7864 170.211 20.5308 169.221 19.8476C169.057 19.7306 168.847 19.626 168.787 19.4536C168.668 19.1459 169.045 18.8658 169.161 18.5549C169.374 17.9394 168.451 17.2593 168.787 16.6683C168.978 16.3451 169.457 16.2313 169.875 16.1297C171.475 15.7389 173.095 14.8709 173.443 13.526C174.695 13.9568 176.028 13.1473 176.989 12.3626C177.949 11.5778 179.131 10.6821 180.452 10.9191L180.158 11.4147C182.197 10.8047 184.428 10.7841 186.483 11.3562H185.856C187.659 11.3813 189.408 11.8686 190.86 12.7504C190.698 12.7504 190.683 12.9473 190.747 13.0582C191.27 14.0646 192.616 14.5969 193.912 14.8462C194.693 15.0002 195.541 15.1109 196.113 15.5726C196.684 16.0342 196.696 16.9977 195.94 17.2191C197.48 17.7128 198.937 18.3642 200.279 19.1582C200.653 19.3829 201.074 19.6875 201.026 20.0815C200.972 20.2793 200.895 20.472 200.794 20.657C200.72 20.9855 200.747 21.3242 200.873 21.6418L201.288 23.0514C201.743 24.618 202.102 26.5046 200.715 27.6403C201.234 28.4389 201.428 29.354 201.266 30.2499C201.103 31.1458 200.595 31.9748 199.815 32.6139C199.925 32.8889 199.964 33.1799 199.926 33.4678C199.891 33.7558 199.78 34.0341 199.603 34.2844C199.427 34.5348 199.189 34.7515 198.902 34.9203C198.617 35.0891 198.292 35.2062 197.947 35.2638C198.407 35.8547 197.985 36.698 197.26 37.0673C196.535 37.4367 195.623 37.4398 194.778 37.3751C193.934 37.3105 193.078 37.1535 192.233 37.2581C191.004 37.4151 189.802 38.1045 188.617 37.7967C188.175 37.6412 187.751 37.4538 187.351 37.2367C186.521 36.8704 185.557 36.7872 184.638 36.6211C183.07 36.3438 181.583 35.8214 180.255 35.0823C179.375 34.6463 178.673 34.0032 178.241 33.2356C177.418 31.5244 178.802 29.2808 177.348 27.8865C176.496 27.074 174.807 27.0617 173.854 27.7573C173.38 28.105 173.316 28.8375 172.823 29.0991C172.135 29.2426 171.424 29.2924 170.716 29.2469Z" fill="#1F1E22"/>
<path opacity="0.1" d="M152.437 117.497C151.905 117.151 151.448 116.735 151.081 116.266C150.712 115.795 150.566 115.229 150.669 114.675C150.523 115.375 150.579 116.095 150.832 116.774C151.084 117.454 151.527 118.076 152.123 118.59C153.06 119.381 154.821 120.156 156.191 119.885C155.998 118.981 153.307 118.106 152.437 117.497Z" fill="black"/>
<path d="M226.352 67.9925C226.352 67.9925 218.386 64.1884 207.871 68.9158C197.357 73.6431 195.605 101.462 195.605 101.462C195.605 101.462 199.906 129.805 183.323 123.499C183.323 123.499 153.057 115.758 150.027 117.463C150.027 117.463 147.157 117.463 152.893 118.513C158.628 119.562 180.786 125.345 180.786 125.345C180.786 125.345 187.949 127.407 190.982 125.345C194.016 123.283 202.614 125.61 203.731 111.434C204.471 102.501 205.801 93.6076 207.715 84.7936L210.67 77.5764L226.352 67.9925Z" fill="#565661"/>
<path d="M227.308 111.825C227.308 111.825 223.804 83.0856 229.55 72.7169C234.549 63.6808 215.216 67.9064 210.173 69.1375C209.392 69.3297 208.711 69.7304 208.237 70.2762C205.248 73.7387 194.525 87.616 197.685 106.184C197.685 106.184 198.959 122.72 190.994 125.342L215.539 118.83C217.53 118.301 219.551 117.861 221.591 117.479C224.192 116.993 228.429 115.611 227.308 111.825Z" fill="white"/>
<path d="M129.869 62.9296V63.6314H104.606V63.062C105.299 62.848 105.955 62.5604 106.557 62.2065C107.629 61.5737 108.504 60.7394 109.107 59.7727C109.71 58.8061 110.024 57.7349 110.024 56.6482C110.025 56.0802 109.938 55.5146 109.766 54.9647C109.461 53.9747 108.89 53.0539 108.096 52.2694C107.302 51.4849 106.305 50.8568 105.178 50.4312H129.696C128.569 50.8568 127.573 51.4849 126.778 52.2694C125.985 53.0539 125.414 53.9747 125.108 54.9647C124.938 55.5148 124.853 56.0804 124.854 56.6482C124.853 57.7348 125.167 58.8058 125.769 59.7725C126.372 60.7391 127.245 61.5736 128.318 62.2065C128.803 62.4913 129.322 62.7338 129.869 62.9296Z" fill="#DFE6F5"/>
<path opacity="0.1" d="M129.696 50.4312C128.569 50.8568 127.572 51.4849 126.778 52.2694C125.985 53.0539 125.414 53.9747 125.108 54.9646H109.766C109.461 53.9747 108.89 53.0539 108.096 52.2694C107.302 51.4849 106.305 50.8568 105.178 50.4312H129.696Z" fill="black"/>
<path d="M75.6823 46.8452V50.797C75.6823 52.9761 77.6177 54.7457 80.0091 54.7457H154.331C156.722 54.7457 158.661 52.9761 158.661 50.797V46.8452H75.6823Z" fill="#DFE6F5"/>
<path opacity="0.1" d="M129.869 62.9294V63.6312H104.606V63.0617C105.299 62.8477 105.955 62.5601 106.557 62.2061H128.318C128.803 62.4911 129.322 62.7335 129.869 62.9294Z" fill="black"/>
<path d="M136.949 62.4248H97.5256C96.8261 62.4248 96.2589 62.8912 96.2589 63.4666C96.2589 64.0421 96.8261 64.5084 97.5256 64.5084H136.949C137.649 64.5084 138.215 64.0421 138.215 63.4666C138.215 62.8912 137.649 62.4248 136.949 62.4248Z" fill="#DFE6F5"/>
<path d="M158.661 3.56397C158.661 3.09568 158.55 2.63199 158.332 2.19939C158.115 1.76679 157.795 1.37376 157.393 1.04278C156.991 0.711791 156.514 0.449333 155.988 0.270408C155.463 0.0914826 154.9 -0.000403061 154.331 1.33129e-06H80.0091C79.4407 -0.00040346 78.8779 0.091506 78.3528 0.270469C77.8275 0.449432 77.3504 0.711938 76.9485 1.04296C76.5465 1.37399 76.2279 1.76703 76.0107 2.19962C75.7933 2.6322 75.6818 3.09583 75.6823 3.56397V47.615H158.661V3.56397Z" fill="#474157"/>
<path d="M156.397 5.15516V43.0107C156.398 43.2413 156.343 43.4698 156.236 43.683C156.129 43.8962 155.973 44.0899 155.775 44.2531C155.576 44.4164 155.342 44.5459 155.083 44.6343C154.825 44.7226 154.548 44.768 154.267 44.768H80.0759C79.7959 44.768 79.5187 44.7226 79.2601 44.6343C79.0014 44.5459 78.7665 44.4164 78.5686 44.2531C78.3709 44.0899 78.214 43.8962 78.1072 43.683C78.0004 43.4698 77.9457 43.2413 77.9462 43.0107V5.15516C77.9443 4.84717 78.0423 4.54436 78.2301 4.27801C78.4172 4.01117 78.6863 3.7896 79.0103 3.63562C79.3343 3.48165 79.7019 3.40067 80.0759 3.40088H154.267C154.833 3.40088 155.374 3.5857 155.773 3.91469C156.173 4.24369 156.397 4.68989 156.397 5.15516Z" fill="#174EA6"/>
<path d="M117.172 52.9889C118.532 52.9889 119.635 52.0808 119.635 50.9608C119.635 49.8407 118.532 48.9326 117.172 48.9326C115.812 48.9326 114.71 49.8407 114.71 50.9608C114.71 52.0808 115.812 52.9889 117.172 52.9889Z" fill="white"/>
<path d="M156.398 5.15508H77.9539C77.9539 4.68984 78.1782 4.24365 78.5777 3.91467C78.977 3.5857 79.5188 3.40088 80.0836 3.40088H154.267C154.833 3.40088 155.374 3.5857 155.773 3.91467C156.173 4.24365 156.398 4.68984 156.398 5.15508Z" fill="#C8CAD7"/>
<path d="M80.0763 4.71802C80.3713 4.71802 80.6105 4.52101 80.6105 4.27796C80.6105 4.03492 80.3713 3.83789 80.0763 3.83789C79.7811 3.83789 79.5419 4.03492 79.5419 4.27796C79.5419 4.52101 79.7811 4.71802 80.0763 4.71802Z" fill="#EDEDF4"/>
<path d="M81.6755 4.71802C81.9705 4.71802 82.2097 4.52101 82.2097 4.27796C82.2097 4.03492 81.9705 3.83789 81.6755 3.83789C81.3803 3.83789 81.1411 4.03492 81.1411 4.27796C81.1411 4.52101 81.3803 4.71802 81.6755 4.71802Z" fill="#EDEDF4"/>
<path d="M83.2749 4.71802C83.5699 4.71802 83.8091 4.52101 83.8091 4.27796C83.8091 4.03492 83.5699 3.83789 83.2749 3.83789C82.9797 3.83789 82.7405 4.03492 82.7405 4.27796C82.7405 4.52101 82.9797 4.71802 83.2749 4.71802Z" fill="#EDEDF4"/>
<path d="M6.69203 111.21C6.69203 111.21 10.1968 82.4704 4.45016 72.1017C-0.549246 63.0655 18.7832 67.2912 23.8275 68.5223C24.6082 68.7145 25.289 69.1152 25.763 69.6611C28.7522 73.1235 39.4758 87.0007 36.3148 105.568C36.3148 105.568 35.0407 122.105 43.0068 124.727L18.4619 118.215C16.4704 117.685 14.449 117.245 12.4088 116.863C9.80825 116.377 5.5711 114.995 6.69203 111.21Z" fill="white"/>
<path d="M85.747 23.7H88.609C89.293 23.7 89.896 23.832 90.418 24.096C90.946 24.354 91.354 24.72 91.642 25.194C91.936 25.668 92.083 26.22 92.083 26.85C92.083 27.48 91.936 28.032 91.642 28.506C91.354 28.98 90.946 29.349 90.418 29.613C89.896 29.871 89.293 30 88.609 30H85.747V23.7ZM88.537 28.803C89.167 28.803 89.668 28.629 90.04 28.281C90.418 27.927 90.607 27.45 90.607 26.85C90.607 26.25 90.418 25.776 90.04 25.428C89.668 25.074 89.167 24.897 88.537 24.897H87.205V28.803H88.537ZM95.2525 30.108C94.7545 30.108 94.2715 30.042 93.8035 29.91C93.3415 29.772 92.9695 29.595 92.6875 29.379L93.1825 28.281C93.4525 28.479 93.7735 28.638 94.1455 28.758C94.5175 28.878 94.8895 28.938 95.2615 28.938C95.6755 28.938 95.9815 28.878 96.1795 28.758C96.3775 28.632 96.4765 28.467 96.4765 28.263C96.4765 28.113 96.4165 27.99 96.2965 27.894C96.1825 27.792 96.0325 27.711 95.8465 27.651C95.6665 27.591 95.4205 27.525 95.1085 27.453C94.6285 27.339 94.2355 27.225 93.9295 27.111C93.6235 26.997 93.3595 26.814 93.1375 26.562C92.9215 26.31 92.8135 25.974 92.8135 25.554C92.8135 25.188 92.9125 24.858 93.1105 24.564C93.3085 24.264 93.6055 24.027 94.0015 23.853C94.4035 23.679 94.8925 23.592 95.4685 23.592C95.8705 23.592 96.2635 23.64 96.6475 23.736C97.0315 23.832 97.3675 23.97 97.6555 24.15L97.2055 25.257C96.6235 24.927 96.0415 24.762 95.4595 24.762C95.0515 24.762 94.7485 24.828 94.5505 24.96C94.3585 25.092 94.2625 25.266 94.2625 25.482C94.2625 25.698 94.3735 25.86 94.5955 25.968C94.8235 26.07 95.1685 26.172 95.6305 26.274C96.1105 26.388 96.5035 26.502 96.8095 26.616C97.1155 26.73 97.3765 26.91 97.5925 27.156C97.8145 27.402 97.9255 27.735 97.9255 28.155C97.9255 28.515 97.8235 28.845 97.6195 29.145C97.4215 29.439 97.1215 29.673 96.7195 29.847C96.3175 30.021 95.8285 30.108 95.2525 30.108ZM101.937 30.108C101.295 30.108 100.713 29.97 100.191 29.694C99.6748 29.412 99.2668 29.025 98.9668 28.533C98.6728 28.035 98.5258 27.474 98.5258 26.85C98.5258 26.226 98.6728 25.668 98.9668 25.176C99.2668 24.678 99.6748 24.291 100.191 24.015C100.713 23.733 101.298 23.592 101.946 23.592C102.492 23.592 102.984 23.688 103.422 23.88C103.866 24.072 104.238 24.348 104.538 24.708L103.602 25.572C103.176 25.08 102.648 24.834 102.018 24.834C101.628 24.834 101.28 24.921 100.974 25.095C100.668 25.263 100.428 25.5 100.254 25.806C100.086 26.112 100.002 26.46 100.002 26.85C100.002 27.24 100.086 27.588 100.254 27.894C100.428 28.2 100.668 28.44 100.974 28.614C101.28 28.782 101.628 28.866 102.018 28.866C102.648 28.866 103.176 28.617 103.602 28.119L104.538 28.983C104.238 29.349 103.866 29.628 103.422 29.82C102.978 30.012 102.483 30.108 101.937 30.108ZM110.366 27.525L109.52 28.407V30H108.071V23.7H109.52V26.643L112.31 23.7H113.93L111.32 26.508L114.083 30H112.382L110.366 27.525ZM114.546 25.158H115.95V30H114.546V25.158ZM115.248 24.483C114.99 24.483 114.78 24.408 114.618 24.258C114.456 24.108 114.375 23.922 114.375 23.7C114.375 23.478 114.456 23.292 114.618 23.142C114.78 22.992 114.99 22.917 115.248 22.917C115.506 22.917 115.716 22.989 115.878 23.133C116.04 23.277 116.121 23.457 116.121 23.673C116.121 23.907 116.04 24.102 115.878 24.258C115.716 24.408 115.506 24.483 115.248 24.483ZM120.376 29.766C120.238 29.868 120.067 29.946 119.863 30C119.665 30.048 119.455 30.072 119.233 30.072C118.657 30.072 118.21 29.925 117.892 29.631C117.58 29.337 117.424 28.905 117.424 28.335V26.346H116.677V25.266H117.424V24.087H118.828V25.266H120.034V26.346H118.828V28.317C118.828 28.521 118.879 28.68 118.981 28.794C119.089 28.902 119.239 28.956 119.431 28.956C119.653 28.956 119.842 28.896 119.998 28.776L120.376 29.766ZM123.118 25.086C123.868 25.086 124.444 25.266 124.846 25.626C125.248 25.98 125.449 26.517 125.449 27.237V30H124.135V29.397C123.871 29.847 123.379 30.072 122.659 30.072C122.287 30.072 121.963 30.009 121.687 29.883C121.417 29.757 121.21 29.583 121.066 29.361C120.922 29.139 120.85 28.887 120.85 28.605C120.85 28.155 121.018 27.801 121.354 27.543C121.696 27.285 122.221 27.156 122.929 27.156H124.045C124.045 26.85 123.952 26.616 123.766 26.454C123.58 26.286 123.301 26.202 122.929 26.202C122.671 26.202 122.416 26.244 122.164 26.328C121.918 26.406 121.708 26.514 121.534 26.652L121.03 25.671C121.294 25.485 121.609 25.341 121.975 25.239C122.347 25.137 122.728 25.086 123.118 25.086ZM123.01 29.127C123.25 29.127 123.463 29.073 123.649 28.965C123.835 28.851 123.967 28.686 124.045 28.47V27.975H123.082C122.506 27.975 122.218 28.164 122.218 28.542C122.218 28.722 122.287 28.866 122.425 28.974C122.569 29.076 122.764 29.127 123.01 29.127ZM132.596 23.7V30H131.138V27.417H128.276V30H126.818V23.7H128.276V26.184H131.138V23.7H132.596ZM135.941 25.086C136.691 25.086 137.267 25.266 137.669 25.626C138.071 25.98 138.272 26.517 138.272 27.237V30H136.958V29.397C136.694 29.847 136.202 30.072 135.482 30.072C135.11 30.072 134.786 30.009 134.51 29.883C134.24 29.757 134.033 29.583 133.889 29.361C133.745 29.139 133.673 28.887 133.673 28.605C133.673 28.155 133.841 27.801 134.177 27.543C134.519 27.285 135.044 27.156 135.752 27.156H136.868C136.868 26.85 136.775 26.616 136.589 26.454C136.403 26.286 136.124 26.202 135.752 26.202C135.494 26.202 135.239 26.244 134.987 26.328C134.741 26.406 134.531 26.514 134.357 26.652L133.853 25.671C134.117 25.485 134.432 25.341 134.798 25.239C135.17 25.137 135.551 25.086 135.941 25.086ZM135.833 29.127C136.073 29.127 136.286 29.073 136.472 28.965C136.658 28.851 136.79 28.686 136.868 28.47V27.975H135.905C135.329 27.975 135.041 28.164 135.041 28.542C135.041 28.722 135.11 28.866 135.248 28.974C135.392 29.076 135.587 29.127 135.833 29.127ZM141.935 30.072C141.419 30.072 140.954 29.967 140.54 29.757C140.132 29.541 139.811 29.244 139.577 28.866C139.349 28.488 139.235 28.059 139.235 27.579C139.235 27.099 139.349 26.67 139.577 26.292C139.811 25.914 140.132 25.62 140.54 25.41C140.954 25.194 141.419 25.086 141.935 25.086C142.445 25.086 142.889 25.194 143.267 25.41C143.651 25.62 143.93 25.923 144.104 26.319L143.015 26.904C142.763 26.46 142.4 26.238 141.926 26.238C141.56 26.238 141.257 26.358 141.017 26.598C140.777 26.838 140.657 27.165 140.657 27.579C140.657 27.993 140.777 28.32 141.017 28.56C141.257 28.8 141.56 28.92 141.926 28.92C142.406 28.92 142.769 28.698 143.015 28.254L144.104 28.848C143.93 29.232 143.651 29.532 143.267 29.748C142.889 29.964 142.445 30.072 141.935 30.072ZM146.956 28.101L146.281 28.767V30H144.877V23.322H146.281V27.102L148.333 25.158H150.007L147.991 27.21L150.187 30H148.486L146.956 28.101Z" fill="white"/>
</g>
<defs>
<linearGradient id="paint0_linear" x1="66.1505" y1="100.622" x2="67.0173" y2="100.622" gradientUnits="userSpaceOnUse">
<stop stop-color="#808080" stop-opacity="0.25"/>
<stop offset="0.54" stop-color="#808080" stop-opacity="0.12"/>
<stop offset="1" stop-color="#808080" stop-opacity="0.1"/>
</linearGradient>
<clipPath id="clip0">
<rect width="234" height="185" fill="white"/>
</clipPath>
</defs>
</svg>
