<svg width="230" height="166" viewBox="0 0 230 166" fill="none" xmlns="http://www.w3.org/2000/svg">
<g clip-path="url(#clip0)">
<path opacity="0.1" d="M23.0835 16.6218C21.6552 17.1979 20.1892 17.9373 19.4043 19.2334C18.573 20.6026 18.6725 22.3028 18.8272 23.887C20.176 37.6263 23.7291 52.2383 17.5935 64.6836C14.6152 70.7214 9.63368 75.5598 5.67147 81.0431C1.70927 86.5263 -1.28228 93.3723 0.557314 99.8228C2.80374 107.705 11.188 112.075 16.8395 118.14C20.5386 122.106 23.1321 126.925 26.5836 131.097C30.035 135.269 34.7645 138.945 40.2744 139.19C48.1988 139.545 54.6462 132.892 62.4159 131.351C70.3757 129.773 78.3907 133.788 84.8448 138.595C91.2988 143.401 97.1692 149.224 104.689 152.224C112.994 155.541 122.355 155.034 131.098 157.026C139.058 158.842 146.385 162.705 154.287 164.764C162.19 166.823 171.452 166.699 177.574 161.439C185.554 154.561 184.926 142.309 190.022 133.21C194.756 124.756 204.023 119.71 210.26 112.236C221.483 98.7846 221.116 78.2251 211.587 63.596C202.057 48.9668 184.795 40.1089 167.145 37.8025C159.185 36.7644 150.988 36.9062 143.336 34.544C122.853 28.2246 110.663 5.58226 89.7511 0.870664C76.4583 -2.11922 63.5302 3.0588 52.2075 9.43193C42.3793 14.9646 33.3118 12.497 23.0835 16.6218Z" fill="#4285F4"/>
<path d="M43.0448 61.0079C43.0448 61.0079 35.4985 67.9313 27.3995 68.1377C23.9984 68.2035 20.7112 69.3401 18.0312 71.3769C16.7645 72.3504 15.5922 73.4347 14.5289 74.6161" stroke="#535461" stroke-width="2" stroke-miterlimit="10"/>
<path d="M9.42118 74.7859C10.509 74.2486 14.6614 74.6054 14.6614 74.6054C14.6614 74.6054 12.5078 78.0767 11.42 78.6141C11.1594 78.7642 10.87 78.8607 10.5695 78.8976C10.269 78.9345 9.96392 78.911 9.67318 78.8285C9.38243 78.7461 9.11221 78.6064 8.87928 78.4182C8.64635 78.23 8.45568 77.9973 8.31908 77.7346C8.18248 77.4718 8.10287 77.1845 8.08519 76.8906C8.06751 76.5967 8.11214 76.3023 8.2163 76.0259C8.32047 75.7494 8.48195 75.4967 8.69073 75.2834C8.89951 75.0701 9.15115 74.9008 9.43002 74.7859H9.42118Z" fill="#4285F4"/>
<path d="M13.7924 68.6492C15.0063 68.7739 18.2919 71.2672 18.2919 71.2672C18.2919 71.2672 14.5331 73.0427 13.3303 72.9202C12.7676 72.8375 12.2593 72.5471 11.9112 72.1093C11.5632 71.6716 11.4022 71.1202 11.4617 70.57C11.5213 70.0198 11.7968 69.513 12.2309 69.1553C12.665 68.7975 13.2243 68.6162 13.7924 68.6492Z" fill="#4285F4"/>
<path d="M24.1579 63.7033C25.1396 64.4062 26.6829 68.172 26.6829 68.172C26.6829 68.172 22.5239 67.8646 21.5422 67.1639C21.0997 66.8164 20.8121 66.3164 20.739 65.768C20.666 65.2196 20.8132 64.6649 21.15 64.2192C21.4868 63.7736 21.9874 63.4713 22.5476 63.3752C23.1078 63.2791 23.6845 63.3967 24.1579 63.7033Z" fill="#4285F4"/>
<path d="M32.8673 61.6806C33.9573 62.2116 36.133 65.67 36.133 65.67C36.133 65.67 31.9806 66.0505 30.8906 65.5196C30.6155 65.4028 30.3678 65.2329 30.1626 65.02C29.9573 64.8072 29.7987 64.556 29.6965 64.2817C29.5943 64.0074 29.5506 63.7157 29.5681 63.4245C29.5856 63.1332 29.6639 62.8485 29.7982 62.5876C29.9325 62.3267 30.1201 62.0951 30.3495 61.907C30.5788 61.7188 30.8452 61.578 31.1323 61.4932C31.4194 61.4083 31.7213 61.3812 32.0196 61.4134C32.3179 61.4456 32.6063 61.5366 32.8673 61.6806Z" fill="#4285F4"/>
<path d="M20.6024 75.1814C20.9651 74.0487 19.9038 70.1281 19.9038 70.1281C19.9038 70.1281 16.7464 72.7762 16.3838 73.9089C16.2816 74.1823 16.2376 74.4731 16.2543 74.7635C16.2711 75.0539 16.3484 75.338 16.4814 75.5986C16.6144 75.8591 16.8005 76.0907 17.0283 76.2793C17.2561 76.468 17.5209 76.6097 17.8067 76.6959C18.0925 76.7821 18.3933 76.811 18.6909 76.7808C18.9885 76.7507 19.2767 76.6622 19.5381 76.5206C19.7995 76.379 20.0286 76.1873 20.2116 75.9571C20.3945 75.7269 20.5275 75.463 20.6024 75.1814Z" fill="#4285F4"/>
<path d="M30.7579 72.6816C30.7579 71.4951 28.5358 68.0646 28.5358 68.0646C28.5358 68.0646 26.338 71.5037 26.3402 72.6945C26.342 73.2646 26.5766 73.8106 26.9925 74.2125C27.4084 74.6144 27.9715 74.8392 28.5579 74.8375C29.1443 74.8358 29.706 74.6077 30.1194 74.2034C30.5328 73.7991 30.7641 73.2517 30.7623 72.6816H30.7579Z" fill="#4285F4"/>
<path d="M40.2853 68.9501C40.4887 67.7808 38.8968 64.0343 38.8968 64.0343C38.8968 64.0343 36.1308 67.0693 35.9296 68.2386C35.8616 68.7872 36.0136 69.3402 36.3539 69.7827C36.6943 70.2252 37.1968 70.5233 37.7573 70.6152C38.3178 70.707 38.8931 70.5855 39.3638 70.2758C39.8346 69.9662 40.1646 69.4922 40.2853 68.9522V68.9501Z" fill="#4285F4"/>
<path d="M52.8509 42.673C52.8509 42.673 43.7613 37.8196 41.0594 30.3846C39.9493 27.2582 37.8258 24.5663 35.0077 22.7132C33.6629 21.8433 32.239 21.095 30.7537 20.4778" stroke="#535461" stroke-width="2" stroke-miterlimit="10"/>
<path d="M29.0287 15.8028C29.8888 16.6433 30.8152 20.5961 30.8152 20.5961C30.8152 20.5961 26.7557 19.6718 25.8956 18.8292C25.5158 18.4192 25.3127 17.8829 25.3285 17.3313C25.3442 16.7797 25.5776 16.2551 25.9802 15.8662C26.3829 15.4772 26.9239 15.2537 27.4914 15.2419C28.0589 15.2302 28.6093 15.431 29.0287 15.8028Z" fill="#4285F4"/>
<path d="M36.3806 17.9586C36.6326 19.1193 35.2021 22.926 35.2021 22.926C35.2021 22.926 32.3122 20.0049 32.0602 18.8421C31.9854 18.5608 31.97 18.2678 32.0149 17.9806C32.0598 17.6934 32.1642 17.4181 32.3216 17.1712C32.4791 16.9243 32.6864 16.7111 32.931 16.5442C33.1756 16.3774 33.4525 16.2605 33.7449 16.2006C34.0372 16.1407 34.3391 16.139 34.6321 16.1957C34.9252 16.2524 35.2034 16.3662 35.4499 16.5303C35.6965 16.6944 35.9063 16.9054 36.0666 17.1505C36.2269 17.3957 36.3345 17.6698 36.3828 17.9565L36.3806 17.9586Z" fill="#4285F4"/>
<path d="M44.4067 26.0384C44.022 27.1626 40.8093 29.7484 40.8093 29.7484C40.8093 29.7484 39.8321 25.8084 40.2168 24.6821C40.4018 24.1405 40.8005 23.6926 41.3253 23.4368C41.85 23.1811 42.4578 23.1384 43.0149 23.3183C43.572 23.4981 44.0327 23.8858 44.2958 24.3959C44.5589 24.906 44.6028 25.4968 44.4178 26.0384H44.4067Z" fill="#4285F4"/>
<path d="M49.0677 33.4648C48.8842 34.6363 46.1668 37.7122 46.1668 37.7122C46.1668 37.7122 44.5174 33.9893 44.7009 32.8179C44.7315 32.5283 44.8222 32.2479 44.9676 31.9935C45.113 31.7391 45.31 31.516 45.5467 31.3379C45.7834 31.1597 46.0549 31.0301 46.3447 30.9569C46.6344 30.8838 46.9365 30.8686 47.2324 30.9123C47.5284 30.956 47.8122 31.0577 48.0665 31.2112C48.3209 31.3647 48.5405 31.5668 48.7121 31.8053C48.8837 32.0437 49.0037 32.3136 49.0649 32.5985C49.126 32.8834 49.127 33.1774 49.0677 33.4627V33.4648Z" fill="#4285F4"/>
<path d="M32.0778 26.2684C33.2983 26.2555 36.8095 24.0674 36.8095 24.0674C36.8095 24.0674 33.2475 21.9609 32.027 21.9738C31.4405 21.9804 30.8808 22.2131 30.471 22.6209C30.0611 23.0286 29.8346 23.5779 29.8413 24.148C29.8481 24.7181 30.0875 25.2622 30.5069 25.6606C30.9263 26.0591 31.4914 26.2793 32.0778 26.2727V26.2684Z" fill="#4285F4"/>
<path d="M37.641 34.8964C38.7996 34.5288 41.4772 31.4207 41.4772 31.4207C41.4772 31.4207 37.4288 30.447 36.2702 30.8146C35.9843 30.8939 35.7177 31.0285 35.4866 31.2102C35.2554 31.392 35.0643 31.6172 34.9247 31.8724C34.7851 32.1276 34.6999 32.4076 34.6742 32.6955C34.6485 32.9835 34.6827 33.2735 34.775 33.5483C34.8672 33.8231 35.0155 34.077 35.211 34.2948C35.4065 34.5125 35.6451 34.6898 35.9127 34.8158C36.1803 34.9419 36.4712 35.0142 36.7682 35.0284C37.0651 35.0426 37.362 34.9984 37.641 34.8986V34.8964Z" fill="#4285F4"/>
<path d="M44.2298 42.5613C45.437 42.3894 48.6165 39.767 48.6165 39.767C48.6165 39.767 44.7958 38.1421 43.5908 38.314C43.294 38.3438 43.0065 38.4316 42.7456 38.5722C42.4846 38.7128 42.2556 38.9033 42.0724 39.1322C41.8892 39.3611 41.7556 39.6237 41.6795 39.9042C41.6034 40.1846 41.5866 40.4771 41.6299 40.7641C41.6732 41.0511 41.7757 41.3265 41.9315 41.5739C42.0872 41.8214 42.2928 42.0356 42.5359 42.2037C42.779 42.3718 43.0546 42.4903 43.3461 42.5522C43.6376 42.614 43.9389 42.6179 44.232 42.5635L44.2298 42.5613Z" fill="#4285F4"/>
<path d="M115.404 160.437C159.608 160.437 195.444 125.6 195.444 82.627C195.444 39.6537 159.608 4.81689 115.404 4.81689C71.1987 4.81689 35.3635 39.6537 35.3635 82.627C35.3635 125.6 71.1987 160.437 115.404 160.437Z" fill="url(#paint0_linear)"/>
<path d="M115.403 159.148C158.876 159.148 194.117 124.888 194.117 82.627C194.117 40.3659 158.876 6.10657 115.403 6.10657C71.9312 6.10657 36.6901 40.3659 36.6901 82.627C36.6901 124.888 71.9312 159.148 115.403 159.148Z" fill="#4285F4"/>
<path d="M115.404 143.457C149.961 143.457 177.976 116.222 177.976 82.6271C177.976 49.0319 149.961 21.7976 115.404 21.7976C80.8456 21.7976 52.8308 49.0319 52.8308 82.6271C52.8308 116.222 80.8456 143.457 115.404 143.457Z" fill="#DDE1EC"/>
<path opacity="0.3" d="M117.172 32.5448H113.635V86.2811H117.172V32.5448Z" fill="#535461"/>
<g opacity="0.1">
<path opacity="0.1" d="M169.132 81.3374H119.162V85.6363H169.132V81.3374Z" fill="black"/>
<path opacity="0.1" d="M83.8866 65.2558L81.8317 69.0623L113.287 85.0407L115.342 81.2343L83.8866 65.2558Z" fill="black"/>
<path opacity="0.1" d="M115.403 89.9353C119.067 89.9353 122.037 87.0483 122.037 83.4869C122.037 79.9256 119.067 77.0386 115.403 77.0386C111.74 77.0386 108.77 79.9256 108.77 83.4869C108.77 87.0483 111.74 89.9353 115.403 89.9353Z" fill="black"/>
</g>
<path d="M169.132 80.4777H119.162V84.7766H169.132V80.4777Z" fill="#535461"/>
<path d="M115.339 80.4055L83.8978 64.399L81.8464 68.2074L113.288 84.2138L115.339 80.4055Z" fill="#535461"/>
<path d="M115.404 89.0754C119.067 89.0754 122.037 86.1884 122.037 82.6271C122.037 79.0657 119.067 76.1787 115.404 76.1787C111.74 76.1787 108.771 79.0657 108.771 82.6271C108.771 86.1884 111.74 89.0754 115.404 89.0754Z" fill="#535461"/>
<g opacity="0.1">
<path opacity="0.1" d="M57.6907 89.9352C57.6907 56.3393 85.7047 29.1057 120.263 29.1057C129.963 29.0974 139.532 31.2848 148.211 35.4946C156.89 39.7045 164.442 45.8211 170.269 53.3601C159.62 34.5482 139.057 21.7976 115.399 21.7976C80.8404 21.7976 52.8264 49.0312 52.8264 82.6271C52.806 95.8251 57.2214 108.668 65.4006 119.202C60.3283 110.236 57.6757 100.167 57.6907 89.9352Z" fill="black"/>
</g>
<path d="M173.218 37.8797C172.475 37.1855 166.222 41.7487 166.222 41.7487C166.222 41.7487 163.996 42.1442 164.527 43.6295C165.057 45.1148 162.194 53.4332 162.194 53.4332L161.029 51.849C161.141 49.9897 160.615 48.6721 160.102 47.851C160.06 47.7844 160.018 47.7199 159.976 47.6597L160.18 47.591C160.102 46.5764 158.433 45.031 157.546 44.2743C157.546 44.1647 157.546 44.0594 157.546 43.9476C157.601 42.7353 158.101 41.4564 157.546 40.358C156.918 39.1049 155.081 38.4751 154.926 37.0995C154.833 36.2784 155.404 35.5368 155.656 34.7458C156.257 32.8543 155.008 30.9241 153.814 29.2948C153.41 28.684 152.917 28.1324 152.352 27.6569C151.814 27.2745 151.223 26.9676 150.597 26.7456C148.848 26.0577 147.059 25.7117 145.255 25.241C143.524 24.7939 141.927 24.5811 140.17 25.1421C139.752 25.2514 139.372 25.464 139.064 25.759C138.646 26.2147 138.591 26.8638 138.317 27.4076C137.874 28.2824 136.922 28.8047 136.079 29.3658C135.237 29.9268 134.392 30.6963 134.388 31.6635C134.388 33.037 136.002 33.9011 136.541 35.18C137.045 36.3708 136.541 37.697 136.26 38.9523C136.143 39.358 136.132 39.7858 136.227 40.1968C136.339 40.5032 136.506 40.7873 136.723 41.0351C137.056 41.465 137.415 41.8648 137.771 42.2732L137.607 42.3355C134.64 42.0389 132.732 45.7016 132.732 45.7016C132.869 45.7295 132.999 45.7618 133.127 45.7983L133.001 45.9574C132.105 47.0894 131.372 48.3354 130.823 49.6609L128.391 52.8292C128.391 52.8292 127.861 44.9063 129.134 43.1244C130.408 41.3425 127.969 40.2527 127.969 40.2527C127.969 40.2527 122.662 34.5094 121.926 35.0038C121.19 35.4981 123.728 41.738 125.955 42.7289C125.955 42.7289 126.176 44.7085 125.734 45.9961C125.466 46.8107 124.038 55.4042 124.038 55.4042C124.038 55.4042 122.766 62.6328 128.597 59.0583C132.384 56.7412 134.832 52.7518 136.079 50.2455C136.166 50.0693 136.248 49.9009 136.325 49.7404C136.382 50.0062 136.421 50.2755 136.442 50.5464L136.663 58.8283C136.719 60.8767 136.259 62.9075 135.323 64.7436L132.725 69.8657L133.015 69.9517L132.84 70.1967C131.129 72.645 128.219 78.1497 134.209 80.9547L142.168 81.9456L141.744 83.9253C141.744 83.9253 138.458 89.9652 137.503 94.1244C136.91 96.6714 135.983 99.1339 134.746 101.452L134.991 101.579C134.94 101.635 134.887 101.693 134.837 101.753C134.354 102.281 134.035 102.93 133.917 103.627L132.838 105.115C132.838 105.115 132.413 111.253 133.262 112.741C133.727 113.553 135.268 114.069 136.579 114.37C138.525 114.819 140.094 112.865 139.062 111.256L139.049 111.234H139.029C138.808 110.235 138.131 107.133 138.352 105.955C138.414 105.62 138.471 105.287 138.5 104.947C138.553 104.501 138.693 104.068 138.911 103.672C138.947 103.606 138.984 103.541 139.022 103.477L139.137 103.524C139.493 103.672 139.845 103.812 140.178 103.935C139.661 104.392 139.294 105.34 139.736 107.29C139.736 107.29 139.778 112.167 140.161 112.934C140.543 113.702 144.824 114.716 145.567 113.925C146.31 113.134 145.089 110.409 145.089 110.409L145.052 110.434C144.806 108.855 144.503 106.026 145.248 104.913C145.549 104.463 145.841 103.999 146.102 103.565L146.263 103.296C147.647 103.967 149.111 104.472 149.911 104.122C149.911 104.122 153.409 96.1986 153.197 95.2099C152.985 94.2211 158.603 83.029 158.603 83.029C158.603 83.029 163.372 77.8703 157.544 74.3151C155.693 73.1823 154.345 72.4214 153.365 71.9077L152.545 67.7378C152.123 65.5516 152.199 63.3023 152.766 61.1475L153.65 57.8675L153.723 57.5881C153.723 57.5881 155.95 53.1322 155.844 51.0516C155.835 50.8899 155.854 50.7281 155.899 50.5722C155.923 50.6711 155.95 50.7743 155.979 50.8818C156.564 53.0443 157.334 55.1553 158.282 57.1926C159.974 60.9025 162.483 60.608 163.859 60.0814C164.153 59.9707 164.415 59.7905 164.62 59.5571C164.824 59.3237 164.966 59.0445 165.033 58.7445C165.528 56.4359 166.888 49.9682 166.974 48.182C167.051 46.7853 167.229 45.3956 167.505 44.0229C170.994 42.0389 173.961 38.574 173.218 37.8797Z" fill="url(#paint1_linear)"/>
<path d="M147.262 101.336C147.262 101.336 146.796 102.245 146.157 103.337C145.907 103.767 145.629 104.229 145.343 104.674C144.333 106.245 145.343 111.251 145.343 111.251L143.132 111.546L140.921 110.471L140.517 106.839V104.182L143.037 101.441L144.143 100.255L147.262 101.336Z" fill="#F8BDC5"/>
<g opacity="0.1">
<path opacity="0.1" d="M147.263 101.336C147.263 101.336 146.796 102.245 146.157 103.337C145.181 102.83 144.237 102.266 143.331 101.648L143.137 101.514L143.033 101.441L144.138 100.255L147.263 101.336Z" fill="black"/>
</g>
<path d="M158.072 82.9753C158.072 82.9753 152.719 94.0686 152.923 95.0509C153.126 96.0332 149.792 103.887 149.792 103.887C149.031 104.235 147.634 103.735 146.316 103.07C145.322 102.556 144.362 101.981 143.442 101.351L143.247 101.218L143.13 101.136L151.917 77.4748L144.143 71.9314L143.568 71.5208L140.092 69.0275L150.705 70.8932C150.705 70.8932 151.074 70.8481 153.027 71.9099C153.964 72.4193 155.266 73.1824 157.066 74.3302C162.614 77.8703 158.072 82.9753 158.072 82.9753Z" fill="#5E52AD"/>
<g opacity="0.03">
<path opacity="0.03" d="M158.072 82.9753C158.072 82.9753 152.719 94.0686 152.923 95.0509C153.126 96.0332 149.792 103.887 149.792 103.887C149.031 104.235 147.634 103.735 146.316 103.07C145.322 102.556 144.362 101.981 143.442 101.351L143.247 101.218L143.13 101.136L151.917 77.4748L144.143 71.9314L143.568 71.5208L140.092 69.0275L150.705 70.8932C150.705 70.8932 151.074 70.8481 153.027 71.9099C153.964 72.4193 155.266 73.1824 157.066 74.3302C162.614 77.8703 158.072 82.9753 158.072 82.9753Z" fill="black"/>
</g>
<path d="M141.81 103.298C141.81 103.298 139.183 102.905 140.094 107.03C140.094 107.03 140.134 111.866 140.499 112.618C140.864 113.371 144.943 114.385 145.649 113.601C146.354 112.816 145.193 110.116 145.193 110.116C145.193 110.116 142.215 112.227 141.406 109.968C140.596 107.709 141.81 103.298 141.81 103.298Z" fill="#5D3E53"/>
<path d="M139.99 102.514C139.704 102.779 139.471 103.094 139.303 103.442C139.094 103.837 138.961 104.265 138.911 104.706C138.885 105.042 138.83 105.375 138.772 105.706C138.52 107.105 139.486 111.251 139.486 111.251L135.648 111.84L134.235 110.368L133.932 107.129C134.309 106.018 134.513 104.859 134.538 103.69C134.538 102.845 134.98 102.09 135.422 101.54C135.722 101.173 136.066 100.842 136.446 100.553C136.446 100.553 140.8 101.826 139.99 102.514Z" fill="#F8BDC5"/>
<g opacity="0.1">
<path opacity="0.1" d="M139.99 102.514C139.704 102.779 139.471 103.094 139.303 103.442C137.731 102.752 136.079 101.882 135.478 101.559L135.431 101.536C135.731 101.169 136.075 100.837 136.455 100.549C136.455 100.549 140.8 101.826 139.99 102.514Z" fill="black"/>
</g>
<path d="M152.414 80.0305C152.414 80.0305 149.892 84.6454 148.273 88.4736C147.212 90.9884 145.018 96.9768 143.63 100.79L143.426 101.353C142.816 103.04 142.409 104.182 142.409 104.182C142.14 104.183 141.873 104.145 141.616 104.068C141.377 104.006 141.109 103.922 140.824 103.818L140.503 103.7C140.185 103.58 139.84 103.44 139.511 103.294C137.905 102.598 136.194 101.691 135.573 101.36L135.338 101.233C136.523 98.9246 137.408 96.4819 137.972 93.9611C138.881 89.8385 142.011 83.8587 142.011 83.8587L142.416 81.8941L134.841 80.9118C129.134 78.139 131.907 72.6729 133.536 70.2462C133.814 69.825 134.115 69.4182 134.436 69.0275L140.497 70.3171C140.497 70.3171 141.452 70.6138 143.575 71.5273L144.55 71.9572C145.739 72.4881 147.203 73.1716 148.972 74.0486C154.937 76.9804 152.414 80.0305 152.414 80.0305Z" fill="#5E52AD"/>
<path d="M139.449 110.957C139.665 111.311 139.768 111.719 139.746 112.13C139.724 112.541 139.577 112.937 139.324 113.267C139.071 113.597 138.723 113.847 138.325 113.985C137.926 114.123 137.494 114.144 137.083 114.043C135.843 113.745 134.372 113.233 133.93 112.427C133.123 110.955 133.525 104.867 133.525 104.867L134.587 103.346C134.587 103.346 134.032 110.071 135.345 110.654C136.658 111.236 139.436 110.927 139.436 110.927L139.449 110.957Z" fill="#5D3E53"/>
<path d="M140.523 25.5785C140.12 25.6876 139.754 25.899 139.462 26.1911C139.064 26.6425 139.02 27.2873 138.75 27.8268C138.33 28.6866 137.423 29.2132 136.619 29.7613C135.814 30.3094 135.011 31.0811 135.007 32.0397C135.007 33.4025 136.554 34.258 137.059 35.524C137.538 36.7062 137.059 38.0195 136.791 39.264C136.679 39.667 136.669 40.0901 136.76 40.4978C136.866 40.8003 137.026 41.082 137.233 41.3297C138.208 42.6193 139.42 43.7629 140.072 45.2309C140.568 46.3465 140.705 47.5781 140.835 48.7883C141.023 50.5293 141.211 52.3026 140.87 54.0222C140.837 54.125 140.837 54.2353 140.87 54.3382C140.928 54.4368 141.02 54.5128 141.129 54.5531C141.773 54.857 142.472 55.0313 143.187 55.0655C143.901 55.0997 144.616 54.9932 145.287 54.7522C145.958 54.5113 146.572 54.141 147.092 53.6635C147.612 53.186 148.027 52.6113 148.313 51.9738C148.755 51.0001 148.925 49.8243 149.801 49.1924C149.903 49.1102 150.026 49.056 150.157 49.0355C150.363 49.041 150.563 49.1061 150.732 49.2225C151.868 49.82 153.246 49.8372 154.513 49.5922C155.278 49.4438 156.06 49.1795 156.567 48.5991C157.564 47.447 157.009 45.7253 157.075 44.2228C157.128 43.0213 157.604 41.7531 157.075 40.6655C156.478 39.4231 154.725 38.7998 154.579 37.4413C154.49 36.6288 155.034 35.8916 155.275 35.1092C155.848 33.2327 154.659 31.3197 153.522 29.7054C153.14 29.1033 152.671 28.5569 152.131 28.0826C151.622 27.7052 151.059 27.4012 150.46 27.1798C148.795 26.4985 147.097 26.1545 145.374 25.6903C143.725 25.2324 142.206 25.0196 140.523 25.5785Z" fill="#85555C"/>
<path d="M148.981 53.6202H143.121V44.3904C143.295 43.504 143.397 42.6056 143.426 41.7036C143.426 41.4006 143.426 41.091 143.426 40.7794C143.371 39.6788 143.137 38.5805 142.522 37.9098C140.906 36.143 147.773 36.4375 147.773 36.4375C147.984 37.2488 148.258 38.0435 148.591 38.8148C149.089 40.0182 149.751 41.1511 150.559 42.183C151.271 43.1011 152.182 43.8549 153.228 44.3904C157.261 46.355 148.981 53.6202 148.981 53.6202Z" fill="#F8BDC5"/>
<g opacity="0.1">
<path opacity="0.1" d="M148.585 38.8148C147.99 39.5688 147.194 40.1505 146.284 40.4967C145.373 40.843 144.383 40.9407 143.42 40.7794C143.364 39.6788 143.13 38.5805 142.515 37.9098C140.899 36.143 147.767 36.4375 147.767 36.4375C147.977 37.2488 148.251 38.0435 148.585 38.8148Z" fill="black"/>
</g>
<path d="M144.333 40.5645C147.289 40.5645 149.686 38.2347 149.686 35.3607C149.686 32.4867 147.289 30.1569 144.333 30.1569C141.377 30.1569 138.98 32.4867 138.98 35.3607C138.98 38.2347 141.377 40.5645 144.333 40.5645Z" fill="#F8BDC5"/>
<path d="M166.552 44.2938C166.289 45.6555 166.121 47.0328 166.048 48.4164C165.966 50.1854 164.67 56.5994 164.197 58.8885C164.137 59.1821 164.004 59.4567 163.809 59.6881C163.614 59.9195 163.363 60.1004 163.078 60.2148C161.765 60.7371 159.377 61.0294 157.772 57.3517C156.867 55.328 156.132 53.2362 155.576 51.0968C155.379 50.3777 155.232 49.6467 155.134 48.9086L158.672 47.0429C159.005 47.3458 159.287 47.6975 159.507 48.0854C159.996 48.9 160.498 50.2069 160.392 52.049L161.497 53.6202C161.497 53.6202 164.224 45.3728 163.708 43.9004C163.193 42.428 165.325 42.0347 165.325 42.0347C165.325 42.0347 171.284 37.5208 171.991 38.2065C172.699 38.8922 169.884 42.3292 166.552 44.2938Z" fill="#F8BDC5"/>
<path d="M137.567 48.2208C137.291 48.9888 136.974 49.7421 136.616 50.4777C135.427 52.9646 133.096 56.9261 129.488 59.2174C123.934 62.7511 125.145 55.5848 125.145 55.5848C125.145 55.5848 126.505 47.0644 126.762 46.2583C127.166 44.9816 126.963 43.0191 126.963 43.0191C124.843 42.0368 122.419 35.8528 123.125 35.3606C123.83 34.8684 128.873 40.5644 128.873 40.5644C128.873 40.5644 131.197 41.6391 129.979 43.4124C128.761 45.1857 129.271 53.0334 129.271 53.0334L131.608 49.8973C132.128 48.5888 132.827 47.354 133.685 46.2261C134.127 45.6393 134.436 45.2846 134.436 45.2846L137.567 48.2208Z" fill="#F8BDC5"/>
<g opacity="0.1">
<path opacity="0.1" d="M159.51 48.0854C158.767 48.3519 155.89 49.4804 155.572 51.0946C155.375 50.3755 155.227 49.6445 155.13 48.9065L158.667 47.0408C159.003 47.3438 159.287 47.6963 159.51 48.0854Z" fill="black"/>
</g>
<g opacity="0.1">
<path opacity="0.1" d="M137.567 48.2208C137.291 48.9888 136.974 49.7421 136.616 50.4777C136.479 49.5062 135.915 47.0214 133.684 46.2197C134.127 45.6329 134.436 45.2782 134.436 45.2782L137.567 48.2208Z" fill="black"/>
</g>
<g opacity="0.1">
<path opacity="0.1" d="M148.981 53.6202H143.121V44.3904C143.295 43.504 143.397 42.6056 143.426 41.7036C144.631 42.8342 144.333 44.586 144.333 44.586L147.464 51.4643L148.981 45.3835L148.476 44.5989L150.555 42.1958C151.266 43.114 152.177 43.8678 153.224 44.4033C157.261 46.355 148.981 53.6202 148.981 53.6202Z" fill="black"/>
</g>
<g opacity="0.1">
<path opacity="0.1" d="M153.12 72.4666C153.12 72.4666 148.53 72.1119 144.547 71.9443L144.147 71.9271C143.581 71.9056 143.042 71.8884 142.513 71.8755C138.648 71.7852 134.277 70.4719 133.534 70.2419C133.813 69.8221 134.114 69.4167 134.436 69.0275L140.497 70.3171C140.497 70.3171 141.452 70.6138 143.575 71.5273L140.092 69.0275L150.705 70.8932C150.705 70.8932 151.074 70.848 153.027 71.9099L153.12 72.4666Z" fill="black"/>
</g>
<path d="M148.981 45.7662L148.476 44.9816L150.718 42.3743C150.718 42.3743 155.342 44.5775 156.553 44.0939C156.553 44.0939 159.483 46.4583 159.583 47.8253C159.583 47.8253 155.342 49.1988 155.441 51.2644C155.541 53.3301 153.429 57.7429 153.429 57.7429L152.545 61.2723C152 63.4112 151.925 65.6375 152.324 67.8066L153.131 72.1765C153.131 72.1765 146.767 71.6864 142.518 71.5875C138.268 71.4886 133.428 69.9195 133.428 69.9195L135.907 64.849C136.8 63.0191 137.238 61.0103 137.185 58.9853L136.963 50.7765C136.963 50.7765 136.762 46.6539 133.426 45.966C133.426 45.966 135.243 42.3335 138.069 42.628C138.069 42.628 142.186 40.9578 143.409 42.0863C144.631 43.2148 144.331 44.9838 144.331 44.9838L147.462 51.862L148.981 45.7662Z" fill="#ED677B"/>
<g opacity="0.1">
<path opacity="0.1" d="M140.47 34.2881C141.282 34.2881 141.918 33.4519 142.73 33.4949C143.15 33.5164 143.51 33.7765 143.857 34.0108C145.169 34.8938 146.629 35.5484 148.171 35.9453C148.77 36.1001 149.405 36.2161 150.006 36.0743C150.608 35.9324 151.172 35.4724 151.24 34.8727C151.257 34.6084 151.221 34.3434 151.134 34.0925C150.453 31.7866 148.913 29.8102 146.814 28.549C145.973 28.0482 144.947 27.6656 144.017 27.9794C143.176 28.261 142.635 29.0262 142.027 29.656C141.568 30.1276 141.048 30.5381 140.479 30.8769C140.037 31.137 139.373 31.3068 139.119 31.784C138.639 32.6738 139.393 34.2795 140.47 34.2881Z" fill="black"/>
</g>
<path d="M140.47 34.0925C141.282 34.0925 141.918 33.2564 142.73 33.2994C143.15 33.3209 143.51 33.5809 143.857 33.8152C145.169 34.6983 146.629 35.3528 148.171 35.7497C148.77 35.9045 149.405 36.0206 150.006 35.8787C150.608 35.7368 151.172 35.2769 151.24 34.6772C151.257 34.4129 151.221 34.1479 151.134 33.8969C150.453 31.5911 148.913 29.6146 146.814 28.3535C145.973 27.8527 144.947 27.47 144.017 27.7839C143.176 28.0654 142.635 28.8307 142.027 29.4604C141.568 29.932 141.048 30.3425 140.479 30.6813C140.037 30.9414 139.373 31.1112 139.119 31.5884C138.639 32.4869 139.393 34.0818 140.47 34.0925Z" fill="#85555C"/>
<path opacity="0.05" d="M138.023 56.5155C138.023 56.5155 142.971 58.2824 146.203 56.9088L147.82 57.0077C147.82 57.0077 150.506 58.8391 153.347 58.0201" fill="black"/>
<path opacity="0.05" d="M161.453 53.5708C161.453 53.5708 160.646 55.4365 161.048 56.0255L161.453 53.5708Z" fill="black"/>
<path opacity="0.05" d="M129.236 52.9818C129.236 52.9818 129.641 54.8475 129.236 55.4365V52.9818Z" fill="black"/>
<path d="M212.995 95.4958C212.995 95.4958 203.744 104.489 208.966 117.833C214.189 131.177 200.016 153.368 200.016 153.368C200.016 153.368 200.169 153.346 200.458 153.299C219.458 150.038 228.897 128.916 218.332 113.222C214.394 107.387 211.171 100.543 212.995 95.4958Z" fill="#4285F4"/>
<path opacity="0.1" d="M212.995 95.6462C212.995 95.6462 203.744 104.64 208.966 117.983C214.189 131.327 200.016 153.516 200.016 153.516C200.016 153.516 200.169 153.494 200.458 153.447C219.458 150.186 228.897 129.064 218.332 113.371C214.394 107.537 211.171 100.693 212.995 95.6462Z" fill="black"/>
<path d="M212.995 95.4958C212.995 95.4958 207.772 106.518 212.995 115.512C218.217 124.505 213.879 149.742 200.014 153.368" stroke="#535461" stroke-miterlimit="10"/>
<path d="M229.472 131.869C229.472 131.869 218.916 130.235 217.954 139.431C216.993 148.626 197.65 149.901 197.65 149.901L198.013 150.135C213.977 160.323 229.24 156.624 226.938 143.095C226.089 138.068 226.16 133.017 229.472 131.869Z" fill="#4285F4"/>
<path d="M229.472 131.869C229.472 131.869 221.278 133.616 221.954 140.86C222.631 148.104 209.793 156.785 197.659 149.903" stroke="#535461" stroke-miterlimit="10"/>
<path d="M220.185 150.236C220.185 150.236 211.872 148.62 209.654 146.464C207.436 144.308 197.46 140.538 196.352 143.239C195.245 145.941 181.388 155.094 190.809 156.71C200.231 158.326 212.979 158.859 215.75 157.785C218.52 156.71 220.185 150.236 220.185 150.236Z" fill="#A8A8A8"/>
<path opacity="0.2" d="M190.809 155.702C200.233 157.318 212.98 157.851 215.75 156.777C217.862 155.956 219.328 152.013 219.907 150.178L220.183 150.234C220.183 150.234 218.52 156.699 215.75 157.776C212.98 158.853 200.231 158.316 190.809 156.701C188.09 156.235 187.311 155.139 187.606 153.752C187.835 154.657 188.784 155.354 190.809 155.702Z" fill="black"/>
</g>
<defs>
<linearGradient id="paint0_linear" x1="115.404" y1="160.437" x2="115.404" y2="4.81689" gradientUnits="userSpaceOnUse">
<stop stop-color="#808080" stop-opacity="0.25"/>
<stop offset="0.54" stop-color="#808080" stop-opacity="0.12"/>
<stop offset="1" stop-color="#808080" stop-opacity="0.1"/>
</linearGradient>
<linearGradient id="paint1_linear" x1="38694" y1="53469.9" x2="38694" y2="16092" gradientUnits="userSpaceOnUse">
<stop stop-color="#808080" stop-opacity="0.25"/>
<stop offset="0.54" stop-color="#808080" stop-opacity="0.12"/>
<stop offset="1" stop-color="#808080" stop-opacity="0.1"/>
</linearGradient>
<clipPath id="clip0">
<rect width="229.494" height="166" fill="white"/>
</clipPath>
</defs>
</svg>
